<svg width="72" height="72" viewBox="0 0 72 72" fill="none" xmlns="http://www.w3.org/2000/svg">
<path fill-rule="evenodd" clip-rule="evenodd" d="M4.99949 5.82493C-0.000244141 10.8247 -0.000244141 18.8716 -0.000244141 34.9655V37.8105C-0.000244141 53.9044 -0.000244141 61.9516 4.99949 66.9509C9.99924 71.9508 18.0462 71.9508 34.1401 71.9508H36.9851C53.079 71.9508 61.1261 71.9508 66.1255 66.9509C71.1254 61.9516 71.1254 53.9044 71.1254 37.8105V34.9655C71.1254 18.8716 71.1254 10.8247 66.1255 5.82493C61.1261 0.825195 53.079 0.825195 36.9851 0.825195H34.1401C18.0462 0.825195 9.99924 0.825195 4.99949 5.82493ZM12.0023 22.4594C12.3876 40.9521 21.6338 52.0654 37.8445 52.0654H38.7635V41.4854C44.7202 42.0782 49.2245 46.4346 51.0323 52.0654H59.4491C57.1375 43.6489 51.0619 38.996 47.2685 37.2179C51.0619 35.0248 56.3963 29.6905 57.6704 22.4594H50.0244C48.3648 28.3273 43.4459 33.6616 38.7635 34.1655V22.4594H31.1172V42.9673C26.3755 41.7818 20.3892 36.0326 20.1225 22.4594H12.0023Z" fill="#0077FF"/>
</svg>
