<svg width="236" height="72" viewBox="0 0 236 72" fill="none" xmlns="http://www.w3.org/2000/svg">
<path fill-rule="evenodd" clip-rule="evenodd" d="M57.4631 21.9252H74.4623L75.0184 38.4315H75.2289L82.2939 21.9252H99.2472L93.1647 52.0936H82.8958L87.6814 28.3908H87.429L76.7283 52.0936H67.1868L66.2353 28.3908H65.9371L61.1461 52.0936H51.386L57.4631 21.9252ZM109.474 52.614L110.416 47.7822H108.361C100.483 47.7822 97.6142 43.3042 97.6142 38.8208C97.6142 32.1817 102.925 24.4224 113.37 24.4224H115.171L116.063 19.8993H127.541L126.643 24.4224H128.438C132.636 24.4224 139.394 25.4169 139.394 33.433C139.394 40.456 134.39 47.7822 124.152 47.7822H121.889L120.947 52.614H109.474ZM114.268 31.321H113.623C110.584 31.321 108.528 34.5532 108.528 37.3987C108.528 39.1637 109.604 40.8849 111.661 40.8849H112.342L114.268 31.321ZM122.786 40.8849H123.468C126.683 40.8849 128.478 37.3523 128.478 34.7294C128.478 32.7855 127.37 31.321 125.355 31.321H124.712L122.786 40.8849ZM173.565 21.9252L171.765 30.847H161.661L157.384 52.0936H145.911L150.193 30.847H140.089L141.884 21.9252H173.565ZM187.605 21.9252L184.131 39.1637H184.311L195.358 21.9252H208.755L202.676 52.0936H191.2L194.625 35.2007H194.454L183.454 52.0936H170.055L176.13 21.9252H187.605ZM217.661 63.462L219.292 54.9132L235.342 59.7736L217.661 63.462ZM213.858 56.8625H48.004C44.9418 56.8625 43.6071 60.2818 42.3236 63.5946C41.8702 64.7462 41.163 66.5589 40.6259 67.3089C39.6488 66.324 38.9281 61.6274 38.6488 59.7736L38.4909 58.7532C37.5016 52.3968 36.6163 45.6908 35.7526 39.2101C31.9927 10.8531 30.2099 0.929974 24.979 0.826152C18.4133 0.703205 16.0758 12.4091 9.15524 47.1593L8.25238 51.696C7.22401 56.8625 4.88385 56.8625 3.88517 56.8625H0.77171L-0.000244141 61.3323H3.88517C6.49119 61.3323 11.0865 60.1971 12.602 52.5799L13.5117 48.0363C17.7736 26.6149 21.8156 6.40793 24.6605 5.39431C27.1369 8.04996 29.5675 26.3294 31.3476 39.7989C32.2113 46.3069 33.1061 53.0334 34.1061 59.4417L34.2559 60.4458C35.0319 65.5713 35.9969 71.9508 40.773 71.9508C43.8325 71.9508 45.1672 68.5288 46.4533 65.2229C46.9473 63.9538 47.7476 61.9088 48.3049 61.3323H213.086L213.858 56.8625Z" fill="#0069B4"/>
</svg>
