<svg width="237" height="65" viewBox="0 0 237 65" fill="none" xmlns="http://www.w3.org/2000/svg">
<path d="M121.648 12.8899V52.0757H112.983V32.0967C112.983 28.0126 113.038 24.0935 113.149 20.175C112.155 23.9285 111.217 27.4054 109.782 32.0967L103.767 52.0757H96.0395L89.9137 32.0967C88.5337 27.4054 87.3193 23.8727 86.3258 20.2308C86.4362 24.1493 86.4919 28.0126 86.4919 32.0415V52.0757H77.9367V12.8899H91.9002L96.5915 28.2334C97.8611 32.4273 99.0197 36.5114 99.9581 40.3195C100.896 36.4568 102.056 32.3169 103.27 28.2334L107.905 12.8899H121.648Z" fill="#0F45C7"/>
<path d="M162.987 12.8899V52.0757H154.322V40.4305C154.322 34.2489 154.433 28.5088 154.653 23.5421C152.612 27.571 149.852 32.4273 147.313 36.8432L138.593 52.0757H129.155V12.8899H137.82V25.4735C137.82 31.4895 137.71 36.4568 137.489 40.8163C139.366 36.953 141.573 33.0345 143.725 29.3368L153.274 12.8899H162.987Z" fill="#0F45C7"/>
<path d="M202.615 32.3171C202.615 44.1836 195.109 53.0688 182.746 53.0688C176.675 53.0688 171.984 51.0271 167.238 46.5566L172.37 40.4853C176.565 43.8518 178.938 45.1772 182.967 45.1772C188.652 45.1772 192.571 41.5893 193.564 35.5738H177.779V28.0674H193.288C192.018 22.8799 188.321 19.7888 182.912 19.7888C179.435 19.7888 177.006 20.6719 173.033 24.0937L167.789 17.912C172.315 13.8831 176.289 11.8965 182.746 11.8965C195.385 11.8965 202.615 20.8927 202.615 32.3171Z" fill="#0F45C7"/>
<path d="M237 20.5614H225.852V52.0757H216.91V20.5614H205.872V12.8899H237V20.5614Z" fill="#0F45C7"/>
<path d="M61.9876 46.0153C63.8827 41.8932 64.941 37.3051 64.941 32.469C64.941 14.5366 50.4047 -0.000297546 32.4705 -0.000297546C14.5374 -0.000297546 0 14.5366 0 32.469C0 50.4033 14.5374 64.9419 32.4705 64.9419C44.6314 64.9419 55.2278 58.2557 60.791 48.3591H58.1118V41.5442L52.9848 48.5728V41.5442L47.849 48.5758V38.0767H46.4097C46.6103 37.3117 46.7682 36.5294 46.8881 35.7352H46.8892H49.9946V42.4511L55.1133 35.4373V42.4511L60.2527 35.4088V46.0153H61.9876ZM46.9041 35.629H43.8486C44.0207 34.6016 44.1127 33.5469 44.1127 32.469C44.1127 21.8982 35.5112 13.2978 24.9397 13.2978C21.334 13.2978 17.8209 14.3063 14.779 16.2115L16.3317 18.6877C18.9065 17.0751 21.8866 16.2228 24.9397 16.2228C33.8997 16.2228 41.1866 23.512 41.1866 32.469C41.1866 33.5504 41.0791 34.6057 40.8761 35.629H35.3118V26.1615L30.1622 33.221L30.1599 26.1888L25.04 33.2038V21.0595L18.0132 32.2073V21.0696L6.25111 39.5873C6.58764 40.4633 6.97878 41.3091 7.43106 42.1246L15.6687 29.2325V39.7713L22.7003 28.617V39.7594L27.8344 32.7266V39.7552L32.9625 32.729V38.1806H40.1485C37.8331 44.3302 31.89 48.7188 24.9397 48.7188C21.8902 48.7188 18.9201 47.8671 16.3454 46.261L14.7974 48.7408C17.8345 50.6389 21.3429 51.6408 24.9397 51.6408C33.5234 51.6408 40.8061 45.9731 43.2426 38.1806H46.3835C43.8575 47.6558 35.2043 54.6571 24.9445 54.6571C12.7105 54.6571 2.75756 44.7018 2.75756 32.469C2.75756 20.2369 12.7105 10.2821 24.9445 10.2821C37.179 10.2821 47.1296 20.2369 47.1296 32.469C47.1296 33.5439 47.0525 34.5974 46.9041 35.629Z" fill="#0F45C7"/>
</svg>
