<svg width="457" height="67" viewBox="0 0 457 67" fill="none" xmlns="http://www.w3.org/2000/svg">
<path d="M104.299 50.5362C113.663 50.5362 120.269 44.0365 120.269 34.8673C120.269 25.6981 113.663 19.1984 104.299 19.1984C94.9359 19.1984 88.3299 25.6981 88.3299 34.8673C88.3299 44.0365 94.9359 50.5362 104.299 50.5362ZM104.299 44.4428C98.8996 44.4428 95.2231 40.5546 95.2231 34.8673C95.2231 29.1801 98.8996 25.2919 104.299 25.2919C109.699 25.2919 113.375 29.1801 113.375 34.8673C113.375 40.5546 109.699 44.4428 104.299 44.4428Z" fill="black"/>
<path d="M141.349 22.8545C136.811 22.8545 133.652 24.5955 131.354 28.0775C131.871 21.984 133.767 18.7341 141.694 18.0377C147.381 17.5154 152.263 16.1227 152.723 8.69442L146.921 8.17213C146.519 10.7256 145.657 11.5961 141.636 11.9443C128.712 13.0469 124.576 21.1715 124.576 32.3139C124.576 37.9431 125.839 42.1795 128.08 45.1392C130.837 48.7372 134.915 50.5362 139.798 50.5362C148.53 50.5362 154.734 44.7329 154.734 36.6083C154.734 28.5417 149.161 22.8545 141.349 22.8545ZM139.856 44.5588C134.973 44.5588 131.641 41.367 131.641 36.6664C131.641 32.0237 134.973 28.8319 139.856 28.8319C144.681 28.8319 148.013 32.0237 148.013 36.6664C148.013 41.367 144.681 44.5588 139.856 44.5588Z" fill="black"/>
<path d="M166.781 61.8527V45.3713C168.849 47.8667 172.583 50.5362 177.81 50.5362C186.369 50.5362 192.401 43.9785 192.401 34.8673C192.401 25.7561 186.369 19.1984 177.81 19.1984C172.353 19.1984 168.562 22.1001 166.494 24.6535L165.115 19.7787H160.175V61.8527H166.781ZM176.202 44.5588C170.63 44.5588 166.781 40.5546 166.781 34.8673C166.781 29.1801 170.63 25.1758 176.202 25.1758C181.716 25.1758 185.508 29.1801 185.508 34.8673C185.508 40.5546 181.716 44.5588 176.202 44.5588Z" fill="black"/>
<path d="M210.331 19.1984C204.529 19.1984 199.417 22.2161 197.923 27.4391L204.012 28.4837C204.931 26.6266 206.999 24.8856 209.986 24.8856C213.605 24.8856 215.731 27.4971 216.018 31.4434H209.584C200.795 31.4434 196.43 35.3316 196.43 40.9028C196.43 46.532 200.738 50.5362 206.827 50.5362C211.71 50.5362 214.984 47.6926 216.42 45.1972L217.799 49.9559H222.681V33.0103C222.681 24.2473 217.971 19.1984 210.331 19.1984ZM208.378 44.907C205.161 44.907 203.093 43.2241 203.093 40.6126C203.093 38.2913 204.759 36.6664 209.814 36.6664H216.075C216.075 41.5992 212.973 44.907 208.378 44.907Z" fill="black"/>
<path d="M246.851 34.5772C249.896 33.7647 252.136 31.2693 252.136 27.8453C252.136 22.7965 247.368 19.1984 240.762 19.1984C234.846 19.1984 229.848 21.984 228.01 27.7293L234.099 28.7739C235.305 26.3945 237.66 24.8856 240.533 24.8856C243.29 24.8856 245.53 26.2784 245.53 28.5417C245.53 30.5729 243.692 31.9076 240.13 31.9076H236.397V37.7109H240.13C244.611 37.7109 245.99 39.2198 245.99 41.1349C245.99 43.4562 243.922 44.849 240.13 44.849C236.684 44.849 234.673 43.6884 233.352 41.0188L227.263 42.0634C228.699 47.1123 233.582 50.5362 240.188 50.5362C247.77 50.5362 252.596 46.59 252.596 41.6572C252.596 37.885 249.896 35.5057 246.851 34.5772Z" fill="black"/>
<path d="M273.153 50.5362C282.516 50.5362 289.122 44.0365 289.122 34.8673C289.122 25.6981 282.516 19.1984 273.153 19.1984C263.789 19.1984 257.183 25.6981 257.183 34.8673C257.183 44.0365 263.789 50.5362 273.153 50.5362ZM273.153 44.4428C267.753 44.4428 264.076 40.5546 264.076 34.8673C264.076 29.1801 267.753 25.2919 273.153 25.2919C278.552 25.2919 282.229 29.1801 282.229 34.8673C282.229 40.5546 278.552 44.4428 273.153 44.4428Z" fill="black"/>
<path d="M315.43 34.287C318.015 33.0683 319.681 31.0371 319.681 27.9034C319.681 23.1447 315.372 19.7787 309.168 19.7787H294.865V49.9559H309.8C316.234 49.9559 320.715 46.4159 320.715 41.5992C320.715 37.9431 318.359 35.2155 315.43 34.287ZM309.168 25.2919C311.466 25.2919 313.075 26.6847 313.075 28.5998C313.075 30.5149 311.466 31.8496 309.168 31.8496H301.471V25.2919H309.168ZM301.471 44.4428V37.0726H309.8C312.385 37.0726 314.109 38.5814 314.109 40.7867C314.109 42.992 312.385 44.4428 309.8 44.4428H301.471Z" fill="black"/>
<path d="M338.906 19.1984C333.105 19.1984 327.992 22.2161 326.499 27.4391L332.588 28.4837C333.507 26.6266 335.575 24.8856 338.562 24.8856C342.181 24.8856 344.306 27.4971 344.593 31.4434H338.16C329.371 31.4434 325.005 35.3316 325.005 40.9028C325.005 46.532 329.313 50.5362 335.402 50.5362C340.285 50.5362 343.559 47.6926 344.995 45.1972L346.374 49.9559H351.257V33.0103C351.257 24.2473 346.546 19.1984 338.906 19.1984ZM336.953 44.907C333.736 44.907 331.668 43.2241 331.668 40.6126C331.668 38.2913 333.334 36.6664 338.389 36.6664H344.651C344.651 41.5992 341.549 44.907 336.953 44.907Z" fill="black"/>
<path d="M378.414 31.6755H365.029V19.7787H358.423V49.9559H365.029V37.769H378.414V49.9559H385.02V19.7787H378.414V31.6755Z" fill="black"/>
<path d="M401.838 49.9559L412.982 27.5552H413.901V49.9559H420.22V19.7787H410.856L399.712 42.1795H398.793V19.7787H392.474V49.9559H401.838Z" fill="black"/>
<path d="M457 34.5191C457 25.8142 450.566 19.1984 441.49 19.1984C432.414 19.1984 425.98 25.7561 425.98 34.8673C425.98 43.9785 432.414 50.5362 441.49 50.5362C447.694 50.5362 453.553 47.5766 455.794 41.8313L449.59 40.7867C448.154 42.9339 445.396 44.4428 441.892 44.4428C436.837 44.4428 433.505 41.309 432.874 36.6664H456.885C456.943 36.028 457 35.3316 457 34.5191ZM441.49 25.0017C445.626 25.0017 448.728 27.6712 449.82 31.4434H433.276C434.367 27.5552 437.469 25.0017 441.49 25.0017Z" fill="black"/>
<path fill-rule="evenodd" clip-rule="evenodd" d="M4.57999 5.21584C0 9.8428 0 17.2898 0 32.1838V34.8167C0 49.7107 0 57.1577 4.57999 61.7846C9.15997 66.4116 16.5313 66.4116 31.2741 66.4116H33.8803C48.623 66.4116 55.9944 66.4116 60.5744 61.7846C65.1544 57.1577 65.1544 49.7107 65.1544 34.8167V32.1838C65.1544 17.2898 65.1544 9.8428 60.5744 5.21584C55.9944 0.588867 48.623 0.588867 33.8803 0.588867H31.2741C16.5313 0.588867 9.15997 0.588867 4.57999 5.21584ZM10.9949 20.6101C11.3478 37.724 19.8178 48.0088 34.6676 48.0088H35.5093V38.2176C40.966 38.7661 45.0921 42.7978 46.7481 48.0088H54.4583C52.3408 40.2197 46.7752 35.9138 43.3003 34.2682C46.7752 32.2387 51.6618 27.3021 52.8292 20.6101H45.8249C44.3046 26.0405 39.7986 30.9771 35.5093 31.4434V20.6101H28.505V39.5889C24.1614 38.4919 18.6777 33.1713 18.4333 20.6101H10.9949Z" fill="#0077FF"/>
</svg>
