<svg width="316" height="65" viewBox="0 0 316 65" fill="none" xmlns="http://www.w3.org/2000/svg">
<path d="M111.433 32.6173C111.433 22.9989 115.421 14.7881 126.916 14.7881C138.411 14.7881 142.399 22.9989 142.399 32.6173C142.399 42.2357 138.411 50.4466 126.916 50.4466C115.421 50.4466 111.433 42.2357 111.433 32.6173ZM118.705 32.6173C118.705 38.2476 119.878 43.526 127.033 43.526C134.189 43.526 135.361 38.2476 135.361 32.6173C135.361 26.987 134.189 21.7087 127.033 21.7087C119.878 21.7087 118.705 26.987 118.705 32.6173ZM293.948 15.6092L300.282 26.166L306.616 15.6092H315.179L304.857 31.9136L316 49.6255H307.437L300.282 37.6611L293.127 49.6255H284.564L295.707 31.9136L285.385 15.6092H293.948ZM262.629 29.2157H276.001V35.7844H262.629V42.9395H278.465V49.8601H255.357V15.6092H278.347V22.5297H262.512V29.2157H262.629ZM231.897 49.6255V22.5297H222.514V15.6092H248.436V22.5297H239.053V49.6255H231.897ZM194.362 49.6255H187.442V15.6092H194.714V36.4882L208.203 15.6092H215.124V49.6255H207.851V28.7465L194.362 49.6255ZM146.622 42.9395C149.672 43.0568 151.666 41.7666 152.37 38.9514C154.364 31.5617 154.598 23.2335 155.654 15.6092H177.589V49.6255H170.316V22.5297H162.105C161.636 27.2216 160.815 35.5498 159.408 40.7109C157.883 46.5758 153.073 50.212 146.622 49.8601V42.9395ZM76.83 49.6255V15.6092H103.339V49.6255H96.0668V22.5297H84.1024V49.6255H76.83Z" fill="#404344"/>
<path d="M31.7877 0.243164C26.2747 0.243164 17.2428 0.47776 11.9644 1.06425C4.69191 1.88533 1.75947 5.75616 1.05568 12.5594C0.469191 17.8378 0 25.4622 0 32.5C0 39.5379 0.117298 47.2795 1.05568 52.4406C2.22866 59.2439 5.39569 62.8801 11.9644 63.9358C17.2428 64.7569 26.8612 64.7569 31.7877 64.7569C36.7142 64.7569 46.4499 64.7569 51.611 63.9358C58.1797 62.8801 61.3467 59.2439 62.5197 52.4406C63.458 47.2795 63.5753 39.3033 63.5753 32.5C63.5753 25.6968 62.9889 16.8994 62.5197 12.6767C61.8159 5.63886 58.7661 2.11993 51.611 1.18155C46.3326 0.47776 37.3007 0.243164 31.7877 0.243164ZM54.0742 7.63292C55.4818 8.21941 57.9451 11.8556 57.3586 15.8438C54.6607 18.0724 51.2591 19.5973 48.0921 20.1838V45.7547H57.5932C57.5932 49.6255 57.0067 52.7925 56.3029 53.9655H39.0601V20.5357H26.8612V40.4763C26.8612 50.4466 21.2309 55.4904 13.9584 55.4904C11.9644 55.4904 9.50111 55.2558 7.38975 54.6693C6.45137 53.379 5.98218 49.5082 5.86488 44.699C10.6741 47.0449 17.1255 48.1006 17.712 40.5936V21.8259C10.4395 22.647 7.74165 27.6908 5.27839 31.0925C5.27839 26.5178 5.63029 22.4124 5.74759 19.5973C10.7914 14.2016 16.3044 11.7383 27.3304 11.7383H43.0483C46.9191 11.7383 50.6726 10.3308 54.0742 7.63292Z" fill="#37B34A"/>
</svg>
