<svg width="509" height="398" viewBox="0 0 509 398" fill="none" xmlns="http://www.w3.org/2000/svg">
<path d="M134.441 62.2221L134.441 62.2212C119.031 43.9431 109.089 22.1869 106.157 0.932161C106.123 0.684765 105.911 0.500488 105.662 0.500488H90.0886C89.9456 0.500488 89.8095 0.561715 89.7146 0.668691C89.6197 0.775667 89.5751 0.918153 89.5922 1.06013C90.9726 12.5495 93.9416 23.7915 98.4142 34.4643L98.4142 34.4643C104.24 48.3624 112.148 61.2925 121.866 72.8104L121.866 72.8105C124.168 75.5383 126.525 78.1318 128.936 80.5909C129.03 80.6869 129.158 80.7409 129.293 80.7409H152.402C152.615 80.7409 152.805 80.6054 152.875 80.4035C152.944 80.2016 152.878 79.9779 152.709 79.8466C146.019 74.6287 139.896 68.7214 134.441 62.2221Z" stroke="black" stroke-opacity="0.4" stroke-linejoin="round"/>
<path d="M134.441 141.412L134.44 141.411C119.031 123.133 109.089 101.377 106.157 80.1221C106.123 79.8747 105.911 79.6904 105.661 79.6904H90.0884C89.9454 79.6904 89.8092 79.7517 89.7143 79.8586C89.6194 79.9656 89.5749 80.1081 89.5919 80.2501C90.9723 91.7394 93.9413 102.981 98.4139 113.654L98.4139 113.654C104.24 127.552 112.148 140.482 121.866 152L121.866 152C124.168 154.728 126.525 157.322 128.935 159.781C129.03 159.877 129.158 159.931 129.293 159.931H152.402C152.615 159.931 152.805 159.795 152.874 159.593C152.944 159.392 152.877 159.168 152.709 159.037C146.018 153.819 139.895 147.911 134.441 141.412Z" stroke="black" stroke-opacity="0.4" stroke-linejoin="round"/>
<path d="M134.446 220.602L134.445 220.601C119.036 202.328 109.099 180.572 106.167 159.312C106.133 159.064 105.922 158.88 105.672 158.88H90.0884C89.9454 158.88 89.8092 158.941 89.7143 159.048C89.6195 159.155 89.5749 159.298 89.5919 159.44C90.9714 170.931 93.9405 182.175 98.4139 192.849L98.414 192.849C104.242 206.745 112.15 219.673 121.865 231.19C124.168 233.921 126.527 236.515 128.941 238.971C129.035 239.067 129.164 239.121 129.298 239.121H152.401C152.615 239.121 152.805 238.985 152.874 238.783C152.944 238.581 152.877 238.358 152.709 238.226C146.022 233.006 139.901 227.099 134.446 220.602Z" stroke="black" stroke-opacity="0.4" stroke-linejoin="round"/>
<path d="M134.446 299.791L134.445 299.79C119.036 281.518 109.099 259.761 106.167 238.502C106.133 238.254 105.922 238.07 105.672 238.07H90.0884C89.9454 238.07 89.8092 238.131 89.7143 238.238C89.6195 238.345 89.5749 238.487 89.5919 238.629C90.9714 250.121 93.9405 261.365 98.4139 272.039L98.414 272.039C104.242 285.934 112.15 298.862 121.865 310.38C124.168 313.111 126.527 315.705 128.941 318.161C129.035 318.256 129.164 318.31 129.298 318.31H152.401C152.615 318.31 152.805 318.175 152.874 317.973C152.944 317.771 152.877 317.547 152.709 317.416C146.022 312.196 139.901 306.289 134.446 299.791Z" stroke="black" stroke-opacity="0.4" stroke-linejoin="round"/>
<path d="M134.446 378.976L134.445 378.975C119.036 360.702 109.099 338.946 106.167 317.691C106.133 317.444 105.922 317.259 105.672 317.259H90.0884C89.9454 317.259 89.8092 317.321 89.7143 317.427C89.6194 317.534 89.5749 317.677 89.5919 317.819C90.9721 329.308 93.9411 340.55 98.4139 351.223L98.414 351.223C104.242 365.12 112.149 378.05 121.865 389.569L121.866 389.569C124.168 392.297 126.527 394.891 128.941 397.35C129.035 397.446 129.163 397.5 129.298 397.5H152.401C152.615 397.5 152.805 397.364 152.874 397.162C152.944 396.961 152.877 396.737 152.709 396.606C146.02 391.385 139.899 385.476 134.446 378.976Z" stroke="black" stroke-opacity="0.4" stroke-linejoin="round"/>
<path d="M45.3526 62.2216L45.3519 62.2207C29.9425 43.9427 20.0005 22.1864 17.0684 0.931673C17.0343 0.684276 16.8228 0.5 16.5731 0.5H1C0.857002 0.5 0.720847 0.561227 0.625954 0.668203C0.531061 0.775179 0.486512 0.917665 0.50357 1.05964C1.88393 12.549 4.85294 23.7911 9.32554 34.4638L9.32556 34.4638C15.1515 48.3619 23.0593 61.292 32.7771 72.8099L32.7772 72.81C35.0798 75.5378 37.4364 78.1313 39.8471 80.5904C39.9411 80.6864 40.0698 80.7404 40.2041 80.7404H63.3131C63.5266 80.7404 63.7165 80.6049 63.786 80.403C63.8554 80.2011 63.789 79.9774 63.6206 79.8461C56.93 74.6282 50.807 68.7209 45.3526 62.2216Z" stroke="black" stroke-opacity="0.4" stroke-linejoin="round"/>
<path d="M45.3525 141.412L45.3518 141.411C29.9424 123.133 20.0003 101.377 17.0683 80.1219C17.0342 79.8745 16.8227 79.6902 16.573 79.6902H0.999878C0.85688 79.6902 0.720725 79.7514 0.625832 79.8584C0.530939 79.9654 0.48639 80.1079 0.503448 80.2498C1.88381 91.7392 4.85282 102.981 9.32542 113.654L9.32544 113.654C15.1514 127.552 23.0592 140.482 32.777 152L32.7771 152C35.0797 154.728 37.4363 157.322 39.847 159.781C39.941 159.877 40.0697 159.931 40.204 159.931H63.313C63.5265 159.931 63.7164 159.795 63.7858 159.593C63.8553 159.391 63.7888 159.168 63.6205 159.036C56.9299 153.818 50.8068 147.911 45.3525 141.412Z" stroke="black" stroke-opacity="0.4" stroke-linejoin="round"/>
<path d="M45.3576 220.601L45.3569 220.601C29.9476 202.328 20.0107 180.572 17.0786 159.312C17.0445 159.064 16.8331 158.88 16.5833 158.88H0.999878C0.856888 158.88 0.72074 158.941 0.625847 159.048C0.530955 159.155 0.486399 159.298 0.503442 159.439C1.88294 170.931 4.85197 182.175 9.32542 192.849L9.32548 192.849C15.1534 206.744 23.0611 219.672 32.777 231.19C35.0797 233.921 37.4383 236.515 39.8526 238.971C39.9466 239.066 40.0751 239.12 40.2092 239.12H63.313C63.5264 239.12 63.7163 238.985 63.7858 238.783C63.8552 238.581 63.7889 238.357 63.6206 238.226C56.9332 233.006 50.8121 227.099 45.3576 220.601Z" stroke="black" stroke-opacity="0.4" stroke-linejoin="round"/>
<path d="M45.3576 299.791L45.3569 299.79C29.9476 281.517 20.0107 259.761 17.0786 238.501C17.0445 238.254 16.8331 238.07 16.5833 238.07H0.999878C0.856888 238.07 0.72074 238.131 0.625847 238.238C0.530955 238.345 0.486399 238.487 0.503442 238.629C1.88294 250.12 4.85197 261.364 9.32542 272.039L9.32548 272.039C15.1534 285.934 23.0611 298.862 32.777 310.379C35.0797 313.111 37.4383 315.705 39.8526 318.161C39.9466 318.256 40.0751 318.31 40.2092 318.31H63.313C63.5264 318.31 63.7163 318.175 63.7858 317.973C63.8552 317.771 63.7889 317.547 63.6206 317.416C56.9332 312.196 50.8121 306.289 45.3576 299.791Z" stroke="black" stroke-opacity="0.4" stroke-linejoin="round"/>
<path d="M45.3577 378.976L45.3569 378.975C29.9476 360.702 20.0107 338.946 17.0786 317.691C17.0445 317.444 16.8331 317.259 16.5833 317.259H0.999878C0.856881 317.259 0.720727 317.321 0.625835 317.427C0.530942 317.534 0.486392 317.677 0.503447 317.819C1.88361 329.308 4.85263 340.55 9.32542 351.223L9.32547 351.223C15.1534 365.12 23.061 378.05 32.777 389.569L32.7771 389.569C35.0797 392.297 37.4382 394.891 39.8524 397.35C39.9464 397.446 40.075 397.5 40.2092 397.5H63.313C63.5264 397.5 63.7163 397.364 63.7858 397.162C63.8552 396.961 63.7889 396.737 63.6206 396.606C56.9318 391.385 50.8105 385.476 45.3577 378.976Z" stroke="black" stroke-opacity="0.4" stroke-linejoin="round"/>
<path d="M223.53 62.2221L223.529 62.2212C208.12 43.9431 198.178 22.1869 195.246 0.932161C195.212 0.684765 195 0.500488 194.75 0.500488H179.177C179.034 0.500488 178.898 0.561715 178.803 0.668691C178.708 0.775667 178.664 0.918153 178.681 1.06013C180.061 12.5495 183.03 23.7915 187.503 34.4643L187.503 34.4643C193.329 48.3624 201.237 61.2925 210.955 72.8104L210.955 72.8105C213.257 75.5383 215.614 78.1318 218.024 80.5909C218.118 80.6869 218.247 80.7409 218.382 80.7409H241.491C241.704 80.7409 241.894 80.6054 241.963 80.4035C242.033 80.2016 241.966 79.9779 241.798 79.8466C235.107 74.6287 228.984 68.7214 223.53 62.2221Z" stroke="black" stroke-opacity="0.4" stroke-linejoin="round"/>
<path d="M223.53 141.412L223.529 141.411C208.12 123.133 198.178 101.377 195.246 80.1221C195.212 79.8747 195 79.6904 194.751 79.6904H179.177C179.034 79.6904 178.898 79.7517 178.803 79.8586C178.709 79.9656 178.664 80.1081 178.681 80.2501C180.061 91.7394 183.03 102.981 187.503 113.654L187.503 113.654C193.329 127.552 201.237 140.482 210.955 152L210.955 152C213.257 154.728 215.614 157.322 218.025 159.781C218.119 159.877 218.247 159.931 218.382 159.931H241.491C241.704 159.931 241.894 159.795 241.963 159.593C242.033 159.392 241.966 159.168 241.798 159.037C235.108 153.819 228.984 147.911 223.53 141.412Z" stroke="black" stroke-opacity="0.4" stroke-linejoin="round"/>
<path d="M223.535 220.602L223.535 220.601C208.125 202.328 198.188 180.572 195.256 159.312C195.222 159.064 195.011 158.88 194.761 158.88H179.177C179.035 158.88 178.898 158.941 178.803 159.048C178.709 159.155 178.664 159.298 178.681 159.44C180.061 170.931 183.03 182.175 187.503 192.849L187.503 192.849C193.331 206.745 201.239 219.673 210.955 231.19C213.257 233.921 215.616 236.515 218.03 238.971C218.124 239.067 218.253 239.121 218.387 239.121H241.491C241.704 239.121 241.894 238.985 241.963 238.783C242.033 238.581 241.966 238.358 241.798 238.226C235.111 233.006 228.99 227.099 223.535 220.602Z" stroke="black" stroke-opacity="0.4" stroke-linejoin="round"/>
<path d="M223.535 299.791L223.535 299.79C208.125 281.518 198.188 259.761 195.256 238.502C195.222 238.254 195.011 238.07 194.761 238.07H179.177C179.035 238.07 178.898 238.131 178.803 238.238C178.709 238.345 178.664 238.487 178.681 238.629C180.061 250.121 183.03 261.365 187.503 272.039L187.503 272.039C193.331 285.934 201.239 298.862 210.955 310.38C213.257 313.111 215.616 315.705 218.03 318.161C218.124 318.256 218.253 318.31 218.387 318.31H241.491C241.704 318.31 241.894 318.175 241.963 317.973C242.033 317.771 241.966 317.547 241.798 317.416C235.111 312.196 228.99 306.289 223.535 299.791Z" stroke="black" stroke-opacity="0.4" stroke-linejoin="round"/>
<path d="M223.535 378.976L223.535 378.975C208.125 360.702 198.188 338.946 195.256 317.691C195.222 317.444 195.011 317.259 194.761 317.259H179.177C179.034 317.259 178.898 317.321 178.803 317.427C178.709 317.534 178.664 317.677 178.681 317.819C180.061 329.308 183.03 340.55 187.503 351.223L187.503 351.223C193.331 365.12 201.239 378.05 210.955 389.569L210.955 389.569C213.257 392.297 215.616 394.891 218.03 397.35C218.124 397.446 218.253 397.5 218.387 397.5H241.491C241.704 397.5 241.894 397.364 241.963 397.162C242.033 396.961 241.966 396.737 241.798 396.606C235.109 391.385 228.988 385.476 223.535 378.976Z" stroke="black" stroke-opacity="0.4" stroke-linejoin="round"/>
<path d="M312.618 62.2221L312.617 62.2212C297.208 43.9431 287.266 22.1869 284.334 0.932161C284.3 0.684765 284.088 0.500488 283.839 0.500488H268.266C268.123 0.500488 267.986 0.561715 267.891 0.668691C267.797 0.775667 267.752 0.918153 267.769 1.06013C269.149 12.5495 272.118 23.7915 276.591 34.4643L276.591 34.4643C282.417 48.3624 290.325 61.2925 300.043 72.8104L300.043 72.8105C302.345 75.5383 304.702 78.1318 307.113 80.5909C307.207 80.6869 307.335 80.7409 307.47 80.7409H330.579C330.792 80.7409 330.982 80.6054 331.051 80.4035C331.121 80.2016 331.054 79.9779 330.886 79.8466C324.196 74.6287 318.072 68.7214 312.618 62.2221Z" stroke="black" stroke-opacity="0.4" stroke-linejoin="round"/>
<path d="M312.618 141.412L312.618 141.411C297.208 123.133 287.266 101.377 284.334 80.1221C284.3 79.8747 284.089 79.6904 283.839 79.6904H268.266C268.123 79.6904 267.987 79.7517 267.892 79.8586C267.797 79.9656 267.752 80.1081 267.769 80.2501C269.15 91.7394 272.119 102.981 276.591 113.654L276.591 113.654C282.417 127.552 290.325 140.482 300.043 152L300.043 152C302.346 154.728 304.702 157.322 307.113 159.781C307.207 159.877 307.336 159.931 307.47 159.931H330.579C330.792 159.931 330.982 159.795 331.052 159.593C331.121 159.392 331.055 159.168 330.886 159.037C324.196 153.819 318.073 147.911 312.618 141.412Z" stroke="black" stroke-opacity="0.4" stroke-linejoin="round"/>
<path d="M312.624 220.602L312.623 220.601C297.214 202.328 287.277 180.572 284.345 159.312C284.311 159.064 284.099 158.88 283.849 158.88H268.266C268.123 158.88 267.987 158.941 267.892 159.048C267.797 159.155 267.752 159.298 267.769 159.44C269.149 170.931 272.118 182.175 276.591 192.849L276.591 192.849C282.419 206.745 290.327 219.673 300.043 231.19C302.346 233.921 304.704 236.515 307.119 238.971C307.213 239.067 307.341 239.121 307.475 239.121H330.579C330.792 239.121 330.982 238.985 331.052 238.783C331.121 238.581 331.055 238.358 330.887 238.226C324.199 233.006 318.078 227.099 312.624 220.602Z" stroke="black" stroke-opacity="0.4" stroke-linejoin="round"/>
<path d="M312.624 299.791L312.623 299.79C297.214 281.518 287.277 259.761 284.345 238.502C284.311 238.254 284.099 238.07 283.849 238.07H268.266C268.123 238.07 267.987 238.131 267.892 238.238C267.797 238.345 267.752 238.487 267.769 238.629C269.149 250.121 272.118 261.365 276.591 272.039L276.591 272.039C282.419 285.934 290.327 298.862 300.043 310.38C302.346 313.111 304.704 315.705 307.119 318.161C307.213 318.256 307.341 318.31 307.475 318.31H330.579C330.792 318.31 330.982 318.175 331.052 317.973C331.121 317.771 331.055 317.547 330.887 317.416C324.199 312.196 318.078 306.289 312.624 299.791Z" stroke="black" stroke-opacity="0.4" stroke-linejoin="round"/>
<path d="M312.624 378.976L312.623 378.975C297.214 360.702 287.277 338.946 284.345 317.691C284.311 317.444 284.099 317.259 283.849 317.259H268.266C268.123 317.259 267.987 317.321 267.892 317.427C267.797 317.534 267.752 317.677 267.769 317.819C269.15 329.308 272.119 340.55 276.591 351.223L276.591 351.223C282.419 365.12 290.327 378.05 300.043 389.569L300.043 389.569C302.346 392.297 304.704 394.891 307.118 397.35C307.212 397.446 307.341 397.5 307.475 397.5H330.579C330.792 397.5 330.982 397.364 331.052 397.162C331.121 396.961 331.055 396.737 330.887 396.606C324.198 391.385 318.077 385.476 312.624 378.976Z" stroke="black" stroke-opacity="0.4" stroke-linejoin="round"/>
<path d="M401.706 62.2221L401.706 62.2212C386.296 43.9431 376.354 22.1869 373.422 0.932161C373.388 0.684765 373.177 0.500488 372.927 0.500488H357.354C357.211 0.500488 357.075 0.561715 356.98 0.668691C356.885 0.775667 356.84 0.918153 356.857 1.06013C358.238 12.5495 361.207 23.7915 365.679 34.4643L365.679 34.4643C371.505 48.3624 379.413 61.2925 389.131 72.8104L389.131 72.8105C391.434 75.5383 393.79 78.1318 396.201 80.5909C396.295 80.6869 396.424 80.7409 396.558 80.7409H419.667C419.88 80.7409 420.07 80.6054 420.14 80.4035C420.209 80.2016 420.143 79.9779 419.974 79.8466C413.284 74.6287 407.161 68.7214 401.706 62.2221Z" stroke="black" stroke-opacity="0.4" stroke-linejoin="round"/>
<path d="M401.707 141.412L401.706 141.411C386.296 123.133 376.354 101.377 373.422 80.1221C373.388 79.8747 373.177 79.6904 372.927 79.6904H357.354C357.211 79.6904 357.075 79.7517 356.98 79.8586C356.885 79.9656 356.841 80.1081 356.858 80.2501C358.238 91.7394 361.207 102.981 365.68 113.654L365.68 113.654C371.505 127.552 379.413 140.482 389.131 152L389.131 152C391.434 154.728 393.79 157.322 396.201 159.781C396.295 159.877 396.424 159.931 396.558 159.931H419.667C419.881 159.931 420.071 159.795 420.14 159.593C420.209 159.392 420.143 159.168 419.975 159.037C413.284 153.819 407.161 147.911 401.707 141.412Z" stroke="black" stroke-opacity="0.4" stroke-linejoin="round"/>
<path d="M401.712 220.602L401.711 220.601C386.302 202.328 376.365 180.572 373.433 159.312C373.399 159.064 373.187 158.88 372.937 158.88H357.354C357.211 158.88 357.075 158.941 356.98 159.048C356.885 159.155 356.841 159.298 356.858 159.44C358.237 170.931 361.206 182.175 365.68 192.849L365.68 192.849C371.508 206.745 379.415 219.673 389.131 231.19C391.434 233.921 393.792 236.515 396.207 238.971C396.301 239.067 396.429 239.121 396.563 239.121H419.667C419.881 239.121 420.07 238.985 420.14 238.783C420.209 238.581 420.143 238.358 419.975 238.226C413.287 233.006 407.166 227.099 401.712 220.602Z" stroke="black" stroke-opacity="0.4" stroke-linejoin="round"/>
<path d="M401.712 299.791L401.711 299.79C386.302 281.518 376.365 259.761 373.433 238.502C373.399 238.254 373.187 238.07 372.937 238.07H357.354C357.211 238.07 357.075 238.131 356.98 238.238C356.885 238.345 356.841 238.487 356.858 238.629C358.237 250.121 361.206 261.365 365.68 272.039L365.68 272.039C371.508 285.934 379.415 298.862 389.131 310.38C391.434 313.111 393.792 315.705 396.207 318.161C396.301 318.256 396.429 318.31 396.563 318.31H419.667C419.881 318.31 420.07 318.175 420.14 317.973C420.209 317.771 420.143 317.547 419.975 317.416C413.287 312.196 407.166 306.289 401.712 299.791Z" stroke="black" stroke-opacity="0.4" stroke-linejoin="round"/>
<path d="M401.712 378.976L401.711 378.975C386.302 360.702 376.365 338.946 373.433 317.691C373.399 317.444 373.187 317.259 372.937 317.259H357.354C357.211 317.259 357.075 317.321 356.98 317.427C356.885 317.534 356.841 317.677 356.858 317.819C358.238 329.308 361.207 340.55 365.68 351.223L365.68 351.223C371.508 365.12 379.415 378.05 389.131 389.569L389.131 389.569C391.434 392.297 393.792 394.891 396.207 397.35C396.301 397.446 396.429 397.5 396.563 397.5H419.667C419.881 397.5 420.07 397.364 420.14 397.162C420.209 396.961 420.143 396.737 419.975 396.606C413.286 391.385 407.165 385.476 401.712 378.976Z" stroke="black" stroke-opacity="0.4" stroke-linejoin="round"/>
<path d="M490.795 62.2221L490.795 62.2212C475.385 43.9431 465.443 22.1869 462.511 0.932161C462.477 0.684765 462.266 0.500488 462.016 0.500488H446.443C446.3 0.500488 446.164 0.561715 446.069 0.668691C445.974 0.775667 445.929 0.918153 445.946 1.06013C447.327 12.5495 450.296 23.7915 454.768 34.4643L454.768 34.4643C460.594 48.3624 468.502 61.2925 478.22 72.8104L478.22 72.8105C480.523 75.5383 482.879 78.1318 485.29 80.5909C485.384 80.6869 485.513 80.7409 485.647 80.7409H508.756C508.969 80.7409 509.159 80.6054 509.229 80.4035C509.298 80.2016 509.232 79.9779 509.063 79.8466C502.373 74.6287 496.25 68.7214 490.795 62.2221Z" stroke="black" stroke-opacity="0.4" stroke-linejoin="round"/>
<path d="M490.795 141.412L490.795 141.411C475.385 123.133 465.443 101.377 462.511 80.1221C462.477 79.8747 462.266 79.6904 462.016 79.6904H446.443C446.3 79.6904 446.164 79.7517 446.069 79.8586C445.974 79.9656 445.929 80.1081 445.946 80.2501C447.327 91.7394 450.296 102.981 454.768 113.654L454.768 113.654C460.594 127.552 468.502 140.482 478.22 152L478.22 152C480.523 154.728 482.879 157.322 485.29 159.781C485.384 159.877 485.513 159.931 485.647 159.931H508.756C508.969 159.931 509.159 159.795 509.229 159.593C509.298 159.392 509.232 159.168 509.063 159.037C502.373 153.819 496.25 147.911 490.795 141.412Z" stroke="black" stroke-opacity="0.4" stroke-linejoin="round"/>
<path d="M490.801 220.602L490.8 220.601C475.391 202.328 465.454 180.572 462.522 159.312C462.488 159.064 462.276 158.88 462.026 158.88H446.443C446.3 158.88 446.164 158.941 446.069 159.048C445.974 159.155 445.929 159.298 445.946 159.44C447.326 170.931 450.295 182.175 454.768 192.849L454.768 192.849C460.596 206.745 468.504 219.673 478.22 231.19C480.523 233.921 482.881 236.515 485.296 238.971C485.39 239.067 485.518 239.121 485.652 239.121H508.756C508.969 239.121 509.159 238.985 509.229 238.783C509.298 238.581 509.232 238.358 509.064 238.226C502.376 233.006 496.255 227.099 490.801 220.602Z" stroke="black" stroke-opacity="0.4" stroke-linejoin="round"/>
<path d="M490.801 299.791L490.8 299.79C475.391 281.518 465.454 259.761 462.522 238.502C462.488 238.254 462.276 238.07 462.026 238.07H446.443C446.3 238.07 446.164 238.131 446.069 238.238C445.974 238.345 445.929 238.487 445.946 238.629C447.326 250.121 450.295 261.365 454.768 272.039L454.768 272.039C460.596 285.934 468.504 298.862 478.22 310.38C480.523 313.111 482.881 315.705 485.296 318.161C485.39 318.256 485.518 318.31 485.652 318.31H508.756C508.969 318.31 509.159 318.175 509.229 317.973C509.298 317.771 509.232 317.547 509.064 317.416C502.376 312.196 496.255 306.289 490.801 299.791Z" stroke="black" stroke-opacity="0.4" stroke-linejoin="round"/>
<path d="M490.801 378.976L490.8 378.975C475.391 360.702 465.454 338.946 462.522 317.691C462.488 317.444 462.276 317.259 462.026 317.259H446.443C446.3 317.259 446.164 317.321 446.069 317.427C445.974 317.534 445.929 317.677 445.946 317.819C447.327 329.308 450.296 340.55 454.768 351.223L454.768 351.223C460.596 365.12 468.504 378.05 478.22 389.569L478.22 389.569C480.523 392.297 482.881 394.891 485.295 397.35C485.389 397.446 485.518 397.5 485.652 397.5H508.756C508.969 397.5 509.159 397.364 509.229 397.162C509.298 396.961 509.232 396.737 509.064 396.606C502.375 391.385 496.254 385.476 490.801 378.976Z" stroke="black" stroke-opacity="0.4" stroke-linejoin="round"/>
</svg>
