<svg width="622" height="486" viewBox="0 0 622 486" fill="none" xmlns="http://www.w3.org/2000/svg">
<path d="M129.272 0.932161C129.238 0.684765 129.027 0.500488 128.777 0.500488H109.764C109.621 0.500488 109.485 0.561715 109.39 0.668691C109.295 0.775667 109.251 0.918153 109.268 1.06013C110.952 15.0769 114.574 28.7919 120.031 41.8124L120.031 41.8124C127.139 58.7696 136.787 74.5459 148.644 88.599L148.644 88.5991C151.454 91.9274 154.329 95.0917 157.27 98.0919C157.364 98.1878 157.493 98.2419 157.627 98.2419H185.84C186.053 98.2419 186.243 98.1063 186.313 97.9044C186.382 97.7026 186.316 97.4789 186.147 97.3476C177.973 90.9725 170.492 83.755 163.828 75.8144L163.445 76.1358L163.827 75.8135C145.002 53.4841 132.855 26.9037 129.272 0.932161Z" stroke="black" stroke-linejoin="round"/>
<path d="M129.273 97.6118C129.239 97.3645 129.027 97.1802 128.777 97.1802H109.765C109.622 97.1802 109.486 97.2414 109.391 97.3484C109.296 97.4554 109.251 97.5978 109.268 97.7398C110.952 111.757 114.574 125.472 120.031 138.492L120.031 138.492C127.139 155.449 136.788 171.226 148.645 185.279L148.645 185.279C151.454 188.607 154.329 191.771 157.27 194.772C157.364 194.868 157.493 194.922 157.627 194.922H185.84C186.054 194.922 186.244 194.786 186.313 194.584C186.383 194.382 186.316 194.159 186.148 194.027C177.973 187.652 170.492 180.435 163.828 172.494L163.445 172.816L163.828 172.493C145.003 150.164 132.855 123.583 129.273 97.6118Z" stroke="black" stroke-linejoin="round"/>
<path d="M129.285 194.292C129.251 194.044 129.04 193.86 128.79 193.86H109.765C109.622 193.86 109.486 193.921 109.391 194.028C109.296 194.135 109.251 194.277 109.268 194.419C110.951 208.438 114.573 222.156 120.031 235.178L120.031 235.178C127.142 252.132 136.79 267.906 148.644 281.958C151.454 285.291 154.332 288.456 157.277 291.452C157.371 291.547 157.5 291.601 157.634 291.601H185.84C186.054 291.601 186.244 291.466 186.313 291.264C186.383 291.062 186.316 290.838 186.148 290.707C177.977 284.33 170.499 277.112 163.835 269.174L163.452 269.495L163.834 269.173C145.009 246.85 132.868 220.269 129.285 194.292Z" stroke="black" stroke-linejoin="round"/>
<path d="M129.285 290.971C129.251 290.723 129.04 290.539 128.79 290.539H109.765C109.622 290.539 109.486 290.6 109.391 290.707C109.296 290.814 109.251 290.957 109.268 291.099C110.951 305.118 114.573 318.835 120.031 331.857L120.031 331.857C127.142 348.811 136.79 364.585 148.644 378.637C151.454 381.97 154.332 385.135 157.277 388.131C157.371 388.227 157.5 388.28 157.634 388.28H185.84C186.054 388.28 186.244 388.145 186.313 387.943C186.383 387.741 186.316 387.518 186.148 387.386C177.977 381.009 170.499 373.791 163.835 365.853L163.452 366.174L163.834 365.852C145.009 343.529 132.868 316.949 129.285 290.971Z" stroke="black" stroke-linejoin="round"/>
<path d="M129.285 387.65C129.251 387.403 129.04 387.219 128.79 387.219H109.765C109.622 387.219 109.486 387.28 109.391 387.387C109.296 387.494 109.251 387.636 109.268 387.778C110.952 401.795 114.574 415.51 120.031 428.531L120.031 428.531C127.142 445.487 136.79 461.263 148.645 475.317L148.645 475.317C151.454 478.646 154.332 481.81 157.277 484.81C157.371 484.906 157.5 484.96 157.634 484.96H185.84C186.054 484.96 186.244 484.825 186.313 484.623C186.383 484.421 186.316 484.197 186.148 484.066C177.976 477.688 170.497 470.469 163.835 462.526L163.452 462.848L163.834 462.525C145.009 440.202 132.868 413.622 129.285 387.65Z" stroke="black" stroke-linejoin="round"/>
<path d="M20.5079 0.931673C20.4738 0.684276 20.2623 0.5 20.0126 0.5H1C0.857002 0.5 0.720847 0.561227 0.625954 0.668203C0.531061 0.775179 0.486512 0.917665 0.50357 1.05964C2.18758 15.0764 5.80969 28.7914 11.2662 41.8119L11.2662 41.8119C18.3745 58.7691 28.0229 74.5454 39.8798 88.5985L39.8799 88.5986C42.6893 91.9269 45.5645 95.0912 48.5057 98.0914C48.5997 98.1873 48.7284 98.2414 48.8627 98.2414H77.0755C77.289 98.2414 77.479 98.1058 77.5484 97.904C77.6178 97.7021 77.5514 97.4784 77.383 97.3471C69.2086 90.972 61.7277 83.7546 55.0637 75.8139L54.6807 76.1353L55.063 75.813C36.2381 53.4837 24.0906 26.9032 20.5079 0.931673Z" stroke="black" stroke-linejoin="round"/>
<path d="M20.5079 97.6114C20.4738 97.364 20.2623 97.1797 20.0126 97.1797H1C0.857002 97.1797 0.720847 97.2409 0.625954 97.3479C0.531061 97.4549 0.486512 97.5974 0.50357 97.7393C2.18758 111.756 5.80969 125.471 11.2662 138.492L11.2662 138.492C18.3745 155.449 28.0229 171.225 39.8798 185.278L39.8799 185.278C42.6893 188.607 45.5645 191.771 48.5057 194.771C48.5997 194.867 48.7284 194.921 48.8627 194.921H77.0755C77.289 194.921 77.479 194.786 77.5484 194.584C77.6178 194.382 77.5514 194.158 77.383 194.027C69.2086 187.652 61.7277 180.434 55.0637 172.494L54.6807 172.815L55.063 172.493C36.2381 150.163 24.0906 123.583 20.5079 97.6114Z" stroke="black" stroke-linejoin="round"/>
<path d="M20.5205 194.291C20.4864 194.044 20.275 193.859 20.0252 193.859H1C0.85701 193.859 0.720862 193.921 0.625969 194.028C0.531077 194.135 0.486521 194.277 0.503564 194.419C2.18652 208.438 5.80866 222.155 11.2662 235.178L11.2662 235.178C18.377 252.132 28.0251 267.905 39.8797 281.958C42.6893 285.29 45.5669 288.455 48.5125 291.451C48.6065 291.547 48.735 291.601 48.869 291.601H77.0755C77.289 291.601 77.4789 291.465 77.5483 291.263C77.6178 291.062 77.5514 290.838 77.3832 290.707C69.2127 284.329 61.734 277.112 55.07 269.173L54.687 269.495L55.0692 269.172C36.2444 246.849 24.1032 220.269 20.5205 194.291Z" stroke="black" stroke-linejoin="round"/>
<path d="M20.5205 290.97C20.4864 290.723 20.275 290.539 20.0252 290.539H1C0.85701 290.539 0.720862 290.6 0.625969 290.707C0.531077 290.814 0.486521 290.956 0.503564 291.098C2.18652 305.117 5.80866 318.834 11.2662 331.857L11.2662 331.857C18.377 348.811 28.0251 364.585 39.8797 378.637C42.6893 381.97 45.5669 385.134 48.5125 388.13C48.6065 388.226 48.735 388.28 48.869 388.28H77.0755C77.289 388.28 77.4789 388.144 77.5483 387.943C77.6178 387.741 77.5514 387.517 77.3832 387.386C69.2127 381.008 61.734 373.791 55.07 365.852L54.687 366.174L55.0692 365.852C36.2444 343.529 24.1032 316.948 20.5205 290.97Z" stroke="black" stroke-linejoin="round"/>
<path d="M20.5205 387.65C20.4864 387.403 20.2749 387.218 20.0252 387.218H1C0.857003 387.218 0.720849 387.279 0.625957 387.386C0.531064 387.493 0.486514 387.636 0.503569 387.778C2.18734 401.795 5.80946 415.51 11.2662 428.53L11.2662 428.53C18.377 445.486 28.0251 461.262 39.8798 475.317L39.8799 475.317C42.6894 478.645 45.5668 481.81 48.5122 484.81C48.6063 484.906 48.7348 484.96 48.869 484.96H77.0755C77.289 484.96 77.4789 484.824 77.5483 484.622C77.6178 484.42 77.5514 484.197 77.3831 484.065C69.211 477.688 61.7321 470.468 55.0701 462.526L54.687 462.847L55.0692 462.525C36.2444 440.202 24.1032 413.622 20.5205 387.65Z" stroke="black" stroke-linejoin="round"/>
<path d="M238.037 0.932161C238.003 0.684765 237.791 0.500488 237.542 0.500488H218.529C218.386 0.500488 218.25 0.561715 218.155 0.668691C218.06 0.775667 218.016 0.918153 218.033 1.06013C219.717 15.0769 223.339 28.7919 228.795 41.8124L228.795 41.8124C235.904 58.7696 245.552 74.5459 257.409 88.599L257.409 88.5991C260.218 91.9274 263.094 95.0917 266.035 98.0919C266.129 98.1878 266.258 98.2419 266.392 98.2419H294.605C294.818 98.2419 295.008 98.1063 295.078 97.9044C295.147 97.7026 295.081 97.4789 294.912 97.3476C286.738 90.9725 279.257 83.755 272.593 75.8144L272.21 76.1358L272.592 75.8135C253.767 53.4841 241.62 26.9037 238.037 0.932161Z" stroke="black" stroke-linejoin="round"/>
<path d="M238.037 97.6118C238.003 97.3645 237.791 97.1802 237.542 97.1802H218.529C218.386 97.1802 218.25 97.2414 218.155 97.3484C218.06 97.4554 218.016 97.5978 218.033 97.7398C219.717 111.757 223.339 125.472 228.795 138.492L228.795 138.492C235.904 155.449 245.552 171.226 257.409 185.279L257.409 185.279C260.218 188.607 263.094 191.771 266.035 194.772C266.129 194.868 266.257 194.922 266.392 194.922H294.605C294.818 194.922 295.008 194.786 295.077 194.584C295.147 194.382 295.08 194.159 294.912 194.027C286.738 187.652 279.257 180.435 272.593 172.494L272.21 172.816L272.592 172.493C253.767 150.164 241.62 123.583 238.037 97.6118Z" stroke="black" stroke-linejoin="round"/>
<path d="M238.05 194.292C238.015 194.044 237.804 193.86 237.554 193.86H218.529C218.386 193.86 218.25 193.921 218.155 194.028C218.06 194.135 218.016 194.277 218.033 194.419C219.716 208.438 223.338 222.156 228.795 235.178L228.795 235.178C235.906 252.132 245.554 267.906 257.409 281.958C260.218 285.291 263.096 288.456 266.042 291.452C266.136 291.547 266.264 291.601 266.398 291.601H294.605C294.818 291.601 295.008 291.466 295.077 291.264C295.147 291.062 295.08 290.838 294.912 290.707C286.742 284.33 279.263 277.112 272.599 269.174L272.216 269.495L272.598 269.173C253.773 246.85 241.632 220.269 238.05 194.292Z" stroke="black" stroke-linejoin="round"/>
<path d="M238.05 290.971C238.015 290.723 237.804 290.539 237.554 290.539H218.529C218.386 290.539 218.25 290.6 218.155 290.707C218.06 290.814 218.016 290.957 218.033 291.099C219.716 305.118 223.338 318.835 228.795 331.857L228.795 331.857C235.906 348.811 245.554 364.585 257.409 378.637C260.218 381.97 263.096 385.135 266.042 388.131C266.136 388.227 266.264 388.28 266.398 388.28H294.605C294.818 388.28 295.008 388.145 295.077 387.943C295.147 387.741 295.08 387.518 294.912 387.386C286.742 381.009 279.263 373.791 272.599 365.853L272.216 366.174L272.598 365.852C253.773 343.529 241.632 316.949 238.05 290.971Z" stroke="black" stroke-linejoin="round"/>
<path d="M238.05 387.65C238.015 387.403 237.804 387.219 237.554 387.219H218.529C218.386 387.219 218.25 387.28 218.155 387.387C218.06 387.494 218.016 387.636 218.033 387.778C219.716 401.795 223.339 415.51 228.795 428.531L228.795 428.531C235.906 445.487 245.554 461.263 257.409 475.317L257.409 475.317C260.218 478.646 263.096 481.81 266.041 484.81C266.135 484.906 266.264 484.96 266.398 484.96H294.605C294.818 484.96 295.008 484.825 295.077 484.623C295.147 484.421 295.08 484.197 294.912 484.066C286.74 477.688 279.261 470.469 272.599 462.526L272.216 462.848L272.598 462.525C253.773 440.202 241.632 413.622 238.05 387.65Z" stroke="black" stroke-linejoin="round"/>
<path d="M346.801 0.932161C346.767 0.684765 346.556 0.500488 346.306 0.500488H327.293C327.15 0.500488 327.014 0.561715 326.919 0.668691C326.825 0.775667 326.78 0.918153 326.797 1.06013C328.481 15.0769 332.103 28.7919 337.56 41.8124L337.56 41.8124C344.668 58.7696 354.316 74.5459 366.173 88.599L366.173 88.5991C368.983 91.9274 371.858 95.0917 374.799 98.0919C374.893 98.1878 375.022 98.2419 375.156 98.2419H403.369C403.582 98.2419 403.772 98.1063 403.842 97.9044C403.911 97.7026 403.845 97.4789 403.676 97.3476C395.502 90.9725 388.021 83.755 381.357 75.8144L380.974 76.1358L381.356 75.8135C362.532 53.4841 350.384 26.9037 346.801 0.932161Z" stroke="black" stroke-linejoin="round"/>
<path d="M346.802 97.6118C346.768 97.3645 346.556 97.1802 346.306 97.1802H327.294C327.151 97.1802 327.015 97.2414 326.92 97.3484C326.825 97.4554 326.78 97.5978 326.797 97.7398C328.481 111.757 332.104 125.472 337.56 138.492L337.56 138.492C344.668 155.449 354.317 171.226 366.174 185.279L366.174 185.279C368.983 188.607 371.858 191.771 374.799 194.772C374.894 194.868 375.022 194.922 375.157 194.922H403.369C403.583 194.922 403.773 194.786 403.842 194.584C403.912 194.382 403.845 194.159 403.677 194.027C395.502 187.652 388.021 180.435 381.358 172.494L380.975 172.816L381.357 172.493C362.532 150.164 350.384 123.583 346.802 97.6118Z" stroke="black" stroke-linejoin="round"/>
<path d="M346.814 194.292C346.78 194.044 346.569 193.86 346.319 193.86H327.294C327.151 193.86 327.015 193.921 326.92 194.028C326.825 194.135 326.78 194.277 326.797 194.419C328.48 208.438 332.102 222.156 337.56 235.178L337.56 235.178C344.671 252.132 354.319 267.906 366.174 281.958C368.983 285.291 371.861 288.456 374.806 291.452C374.9 291.547 375.029 291.601 375.163 291.601H403.369C403.583 291.601 403.773 291.466 403.842 291.264C403.912 291.062 403.845 290.838 403.677 290.707C395.507 284.33 388.028 277.112 381.364 269.174L380.981 269.495L381.363 269.173C362.538 246.85 350.397 220.269 346.814 194.292Z" stroke="black" stroke-linejoin="round"/>
<path d="M346.814 290.971C346.78 290.723 346.569 290.539 346.319 290.539H327.294C327.151 290.539 327.015 290.6 326.92 290.707C326.825 290.814 326.78 290.957 326.797 291.099C328.48 305.118 332.102 318.835 337.56 331.857L337.56 331.857C344.671 348.811 354.319 364.585 366.174 378.637C368.983 381.97 371.861 385.135 374.806 388.131C374.9 388.227 375.029 388.28 375.163 388.28H403.369C403.583 388.28 403.773 388.145 403.842 387.943C403.912 387.741 403.845 387.518 403.677 387.386C395.507 381.009 388.028 373.791 381.364 365.853L380.981 366.174L381.363 365.852C362.538 343.529 350.397 316.949 346.814 290.971Z" stroke="black" stroke-linejoin="round"/>
<path d="M346.814 387.65C346.78 387.403 346.569 387.219 346.319 387.219H327.294C327.151 387.219 327.015 387.28 326.92 387.387C326.825 387.494 326.78 387.636 326.797 387.778C328.481 401.795 332.103 415.51 337.56 428.531L337.56 428.531C344.671 445.487 354.319 461.263 366.174 475.317L366.174 475.317C368.983 478.646 371.861 481.81 374.806 484.81C374.9 484.906 375.029 484.96 375.163 484.96H403.369C403.583 484.96 403.773 484.825 403.842 484.623C403.912 484.421 403.845 484.197 403.677 484.066C395.505 477.688 388.026 470.469 381.364 462.526L380.981 462.848L381.363 462.525C362.538 440.202 350.397 413.622 346.814 387.65Z" stroke="black" stroke-linejoin="round"/>
<path d="M455.566 0.932161C455.532 0.684765 455.32 0.500488 455.071 0.500488H436.058C435.915 0.500488 435.779 0.561715 435.684 0.668691C435.589 0.775667 435.545 0.918153 435.562 1.06013C437.246 15.0769 440.868 28.7919 446.324 41.8124L446.324 41.8124C453.433 58.7696 463.081 74.5459 474.938 88.599L474.938 88.5991C477.747 91.9274 480.623 95.0917 483.564 98.0919C483.658 98.1878 483.786 98.2419 483.921 98.2419H512.134C512.347 98.2419 512.537 98.1063 512.606 97.9044C512.676 97.7026 512.609 97.4789 512.441 97.3476C504.267 90.9725 496.786 83.755 490.122 75.8144L489.739 76.1358L490.121 75.8135C471.296 53.4841 459.149 26.9037 455.566 0.932161Z" stroke="black" stroke-linejoin="round"/>
<path d="M455.566 97.6118C455.532 97.3645 455.32 97.1802 455.071 97.1802H436.058C435.915 97.1802 435.779 97.2414 435.684 97.3484C435.589 97.4554 435.544 97.5978 435.562 97.7398C437.246 111.757 440.868 125.472 446.324 138.492L446.324 138.492C453.432 155.449 463.081 171.226 474.938 185.279L474.938 185.279C477.747 188.607 480.623 191.771 483.564 194.772C483.658 194.868 483.786 194.922 483.921 194.922H512.134C512.347 194.922 512.537 194.786 512.606 194.584C512.676 194.382 512.609 194.159 512.441 194.027C504.267 187.652 496.786 180.435 490.122 172.494L489.739 172.816L490.121 172.493C471.296 150.164 459.149 123.583 455.566 97.6118Z" stroke="black" stroke-linejoin="round"/>
<path d="M455.579 194.292C455.544 194.044 455.333 193.86 455.083 193.86H436.058C435.915 193.86 435.779 193.921 435.684 194.028C435.589 194.135 435.545 194.277 435.562 194.419C437.245 208.438 440.867 222.156 446.324 235.178L446.324 235.178C453.435 252.132 463.083 267.906 474.938 281.958C477.747 285.291 480.625 288.456 483.57 291.452C483.664 291.547 483.793 291.601 483.927 291.601H512.133C512.347 291.601 512.537 291.466 512.606 291.264C512.676 291.062 512.609 290.838 512.441 290.707C504.271 284.33 496.792 277.112 490.128 269.174L489.745 269.495L490.127 269.173C471.302 246.85 459.161 220.269 455.579 194.292Z" stroke="black" stroke-linejoin="round"/>
<path d="M455.579 290.971C455.544 290.723 455.333 290.539 455.083 290.539H436.058C435.915 290.539 435.779 290.6 435.684 290.707C435.589 290.814 435.545 290.957 435.562 291.099C437.245 305.118 440.867 318.835 446.324 331.857L446.324 331.857C453.435 348.811 463.083 364.585 474.938 378.637C477.747 381.97 480.625 385.135 483.57 388.131C483.664 388.227 483.793 388.28 483.927 388.28H512.133C512.347 388.28 512.537 388.145 512.606 387.943C512.676 387.741 512.609 387.518 512.441 387.386C504.271 381.009 496.792 373.791 490.128 365.853L489.745 366.174L490.127 365.852C471.302 343.529 459.161 316.949 455.579 290.971Z" stroke="black" stroke-linejoin="round"/>
<path d="M455.578 387.65C455.544 387.403 455.333 387.219 455.083 387.219H436.058C435.915 387.219 435.779 387.28 435.684 387.387C435.589 387.494 435.544 387.636 435.562 387.778C437.245 401.795 440.867 415.51 446.324 428.531L446.324 428.531C453.435 445.487 463.083 461.263 474.938 475.317L474.938 475.317C477.747 478.646 480.625 481.81 483.57 484.81C483.664 484.906 483.793 484.96 483.927 484.96H512.133C512.347 484.96 512.537 484.825 512.606 484.623C512.676 484.421 512.609 484.197 512.441 484.066C504.269 477.688 496.79 470.469 490.128 462.526L489.745 462.848L490.127 462.525C471.302 440.202 459.161 413.622 455.578 387.65Z" stroke="black" stroke-linejoin="round"/>
<path d="M564.331 0.932161C564.297 0.684765 564.085 0.500488 563.835 0.500488H544.823C544.68 0.500488 544.544 0.561715 544.449 0.668691C544.354 0.775667 544.309 0.918153 544.326 1.06013C546.01 15.0769 549.632 28.7919 555.089 41.8124L555.089 41.8124C562.197 58.7696 571.846 74.5459 583.703 88.599L583.703 88.5991C586.512 91.9274 589.387 95.0917 592.328 98.0919C592.422 98.1878 592.551 98.2419 592.685 98.2419H620.898C621.112 98.2419 621.302 98.1063 621.371 97.9044C621.441 97.7026 621.374 97.4789 621.206 97.3476C613.031 90.9725 605.55 83.755 598.886 75.8144L598.503 76.1358L598.886 75.8135C580.061 53.4841 567.913 26.9037 564.331 0.932161Z" stroke="black" stroke-linejoin="round"/>
<path d="M564.331 97.6118C564.297 97.3645 564.085 97.1802 563.836 97.1802H544.823C544.68 97.1802 544.544 97.2414 544.449 97.3484C544.354 97.4554 544.31 97.5978 544.327 97.7398C546.011 111.757 549.633 125.472 555.089 138.492L555.089 138.492C562.197 155.449 571.846 171.226 583.703 185.279L583.703 185.279C586.512 188.607 589.388 191.771 592.329 194.772C592.423 194.868 592.551 194.922 592.686 194.922H620.899C621.112 194.922 621.302 194.786 621.371 194.584C621.441 194.382 621.374 194.159 621.206 194.027C613.032 187.652 605.551 180.435 598.887 172.494L598.504 172.816L598.886 172.493C580.061 150.164 567.914 123.583 564.331 97.6118Z" stroke="black" stroke-linejoin="round"/>
<path d="M564.344 194.292C564.309 194.044 564.098 193.86 563.848 193.86H544.823C544.68 193.86 544.544 193.921 544.449 194.028C544.354 194.135 544.31 194.277 544.327 194.419C546.01 208.438 549.632 222.156 555.089 235.178L555.089 235.178C562.2 252.132 571.848 267.906 583.703 281.958C586.512 285.291 589.39 288.456 592.335 291.452C592.429 291.547 592.558 291.601 592.692 291.601H620.899C621.112 291.601 621.302 291.466 621.371 291.264C621.441 291.062 621.374 290.838 621.206 290.707C613.036 284.33 605.557 277.112 598.893 269.174L598.51 269.495L598.892 269.173C580.067 246.85 567.926 220.269 564.344 194.292Z" stroke="black" stroke-linejoin="round"/>
<path d="M564.344 290.971C564.309 290.723 564.098 290.539 563.848 290.539H544.823C544.68 290.539 544.544 290.6 544.449 290.707C544.354 290.814 544.31 290.957 544.327 291.099C546.01 305.118 549.632 318.835 555.089 331.857L555.089 331.857C562.2 348.811 571.848 364.585 583.703 378.637C586.512 381.97 589.39 385.135 592.335 388.131C592.429 388.227 592.558 388.28 592.692 388.28H620.899C621.112 388.28 621.302 388.145 621.371 387.943C621.441 387.741 621.374 387.518 621.206 387.386C613.036 381.009 605.557 373.791 598.893 365.853L598.51 366.174L598.892 365.852C580.067 343.529 567.926 316.949 564.344 290.971Z" stroke="black" stroke-linejoin="round"/>
<path d="M564.344 387.65C564.309 387.403 564.098 387.219 563.848 387.219H544.823C544.68 387.219 544.544 387.28 544.449 387.387C544.354 387.494 544.31 387.636 544.327 387.778C546.01 401.795 549.632 415.51 555.089 428.531L555.089 428.531C562.2 445.487 571.848 461.263 583.703 475.317L583.703 475.317C586.512 478.646 589.39 481.81 592.335 484.81C592.429 484.906 592.558 484.96 592.692 484.96H620.899C621.112 484.96 621.302 484.825 621.371 484.623C621.441 484.421 621.374 484.197 621.206 484.066C613.034 477.688 605.555 470.469 598.893 462.526L598.51 462.848L598.892 462.525C580.067 440.202 567.926 413.622 564.344 387.65Z" stroke="black" stroke-linejoin="round"/>
</svg>
