<svg width="48" height="49" viewBox="0 0 48 49" fill="none" xmlns="http://www.w3.org/2000/svg">
<path fill-rule="evenodd" clip-rule="evenodd" d="M3.77004 3.89895C0.43457 7.23443 0.43457 12.6028 0.43457 23.3395V25.2375C0.43457 35.9742 0.43457 41.3427 3.77004 44.6779C7.10553 48.0135 12.4739 48.0135 23.2106 48.0135H25.1086C35.8453 48.0135 41.2138 48.0135 44.549 44.6779C47.8846 41.3427 47.8846 35.9742 47.8846 25.2375V23.3395C47.8846 12.6028 47.8846 7.23443 44.549 3.89895C41.2138 0.563477 35.8453 0.563477 25.1086 0.563477H23.2106C12.4739 0.563477 7.10553 0.563477 3.77004 3.89895ZM8.44184 14.9963C8.69885 27.3333 14.8673 34.7473 25.682 34.7473H26.295V27.6891C30.2689 28.0846 33.2739 30.9909 34.4799 34.7473H40.095C38.5529 29.1324 34.4996 26.0284 31.9689 24.8421C34.4996 23.3791 38.0584 19.8204 38.9084 14.9963H33.8075C32.7003 18.9109 29.4188 22.4696 26.295 22.8058V14.9963H21.1939V28.6777C18.0306 27.8868 14.037 24.0514 13.859 14.9963H8.44184Z" fill="#0077FF"/>
</svg>
