<svg width="158" height="49" viewBox="0 0 158 49" fill="none" xmlns="http://www.w3.org/2000/svg">
<path fill-rule="evenodd" clip-rule="evenodd" d="M38.5177 14.6399H49.8583L50.2293 25.6517H50.3697L55.083 14.6399H66.3931L62.3352 34.7661H55.4846L58.6772 18.9533H58.5088L51.37 34.7661H45.0046L44.3699 18.9533H44.1709L40.9747 34.7661H34.4634L38.5177 14.6399ZM73.2158 35.1134L73.8443 31.8899H72.4731C67.2178 31.8899 65.3037 28.9025 65.3037 25.9115C65.3037 21.4823 68.8465 16.3059 75.8151 16.3059H77.0162L77.6113 13.2884H85.2687L84.67 16.3059H85.8674C88.6675 16.3059 93.1764 16.9693 93.1764 22.3171C93.1764 27.0024 89.8379 31.8899 83.0079 31.8899H81.4981L80.8696 35.1134H73.2158ZM76.4138 20.9082H75.9835C73.9559 20.9082 72.5847 23.0644 72.5847 24.9628C72.5847 26.1402 73.3023 27.2885 74.6744 27.2885H75.1291L76.4138 20.9082ZM82.0968 27.2885H82.5515C84.6961 27.2885 85.8935 24.9318 85.8935 23.182C85.8935 21.8851 85.1543 20.9082 83.8101 20.9082H83.3816L82.0968 27.2885ZM115.973 14.6399L114.772 20.5919H108.031L105.178 34.7661H97.5241L100.381 20.5919H93.64L94.8375 14.6399H115.973ZM125.339 14.6399L123.022 26.1402H123.141L130.512 14.6399H139.449L135.393 34.7661H127.738L130.023 23.4964H129.908L122.57 34.7661H113.631L117.684 14.6399H125.339ZM145.391 42.3504L146.478 36.6472L157.186 39.8898L145.391 42.3504ZM142.853 37.9477H32.2072C30.1643 37.9477 29.2739 40.2288 28.4177 42.4388C28.1152 43.2071 27.6434 44.4164 27.285 44.9168C26.6332 44.2597 26.1524 41.1265 25.966 39.8898L25.8607 39.209C25.2008 34.9685 24.6101 30.4947 24.0339 26.1712C21.5256 7.25342 20.3362 0.633377 16.8465 0.564115C12.4664 0.482093 10.907 8.29145 6.29003 31.4744L5.6877 34.5009C5.00164 37.9477 3.44046 37.9477 2.77421 37.9477H0.697123L0.182129 40.9296H2.77421C4.51276 40.9296 7.57841 40.1723 8.5895 35.0906L9.19632 32.0594C12.0396 17.7686 14.7361 4.28789 16.634 3.61167C18.2861 5.38333 19.9077 17.5781 21.0952 26.564C21.6714 30.9057 22.2683 35.3932 22.9355 39.6683L23.0354 40.3381C23.5531 43.7575 24.1969 48.0135 27.3832 48.0135C29.4242 48.0135 30.3147 45.7306 31.1727 43.5251C31.5022 42.6785 32.0361 41.3142 32.408 40.9296H142.338L142.853 37.9477Z" fill="#0069B4"/>
</svg>
