<svg width="159" height="44" viewBox="0 0 159 44" fill="none" xmlns="http://www.w3.org/2000/svg">
<path d="M81.1566 9.1168V35.2588H75.3759V21.9302C75.3759 19.2056 75.4127 16.591 75.4864 13.9769C74.8235 16.481 74.1979 18.8005 73.2405 21.9302L69.2274 35.2588H64.0723L59.9855 21.9302C59.0649 18.8005 58.2548 16.4437 57.5919 14.0141C57.6656 16.6283 57.7028 19.2056 57.7028 21.8934V35.2588H51.9954V9.1168H61.3108L64.4405 19.3529C65.2875 22.1508 66.0604 24.8754 66.6864 27.4159C67.3125 24.839 68.0858 22.0771 68.8959 19.3529L71.9884 9.1168H81.1566Z" fill="#0F45C7"/>
<path d="M108.735 9.1168V35.2588H102.954V27.49C102.954 23.366 103.028 19.5366 103.175 16.2232C101.813 18.911 99.9721 22.1508 98.2785 25.0967L92.461 35.2588H86.1648V9.1168H91.9455V17.5116C91.9455 21.5251 91.8718 24.839 91.7245 27.7473C92.9766 25.17 94.4492 22.5558 95.8849 20.089L102.255 9.1168H108.735Z" fill="#0F45C7"/>
<path d="M135.172 22.0773C135.172 29.9938 130.165 35.9214 121.917 35.9214C117.867 35.9214 114.737 34.5593 111.571 31.5769L114.995 27.5265C117.793 29.7724 119.376 30.6566 122.064 30.6566C125.857 30.6566 128.471 28.263 129.133 24.2499H118.603V19.2422H128.949C128.102 15.7814 125.636 13.7192 122.027 13.7192C119.708 13.7192 118.088 14.3084 115.437 16.5912L111.939 12.4672C114.958 9.7794 117.609 8.45411 121.917 8.45411C130.349 8.45411 135.172 14.4557 135.172 22.0773Z" fill="#0F45C7"/>
<path d="M158.111 14.2346H150.674V35.2588H144.709V14.2346H137.345V9.1168H158.111V14.2346Z" fill="#0F45C7"/>
<path d="M41.3552 31.2158C42.6195 28.4658 43.3256 25.405 43.3256 22.1787C43.3256 10.2154 33.628 0.517403 21.6635 0.517403C9.69983 0.517403 0.00146484 10.2154 0.00146484 22.1787C0.00146484 34.1431 9.69983 43.8423 21.6635 43.8423C29.7764 43.8423 36.8456 39.3817 40.557 32.7794H38.7696V28.233L35.3492 32.922V28.233L31.923 32.924V25.9197H30.9627C31.0966 25.4093 31.2019 24.8875 31.2819 24.3577H31.2827H33.3544V28.838L36.7692 24.1589V28.838L40.1978 24.1399V31.2158H41.3552ZM31.2926 24.2868H29.2542C29.369 23.6014 29.4304 22.8977 29.4304 22.1787C29.4304 15.1265 23.692 9.38899 16.6395 9.38899C14.234 9.38899 11.8903 10.0617 9.86099 11.3328L10.8968 12.9848C12.6145 11.9089 14.6027 11.3403 16.6395 11.3403C22.617 11.3403 27.4783 16.2032 27.4783 22.1787C27.4783 22.9001 27.4066 23.6041 27.2712 24.2868H23.559V17.9707L20.1236 22.6803L20.122 17.989L16.7064 22.6689V14.567L12.0186 22.004V14.5738L4.17177 26.9275C4.39628 27.5119 4.65722 28.0762 4.95895 28.6202L10.4545 20.0195V27.0502L15.1455 19.6088V27.0423L18.5706 22.3505V27.0395L21.9918 22.3521V25.989H26.7857C25.2411 30.0916 21.2763 33.0194 16.6395 33.0194C14.605 33.0194 12.6236 32.4512 10.9059 31.3797L9.87326 33.034C11.8994 34.3003 14.24 34.9687 16.6395 34.9687C22.366 34.9687 27.2244 31.1876 28.8499 25.989H30.9453C29.2601 32.3102 23.4873 36.981 16.6427 36.981C8.48105 36.981 1.84112 30.3395 1.84112 22.1787C1.84112 14.0182 8.48105 7.3771 16.6427 7.3771C24.8047 7.3771 31.443 14.0182 31.443 22.1787C31.443 22.8958 31.3916 23.5986 31.2926 24.2868Z" fill="#0F45C7"/>
</svg>
