<svg width="306" height="45" viewBox="0 0 306 45" fill="none" xmlns="http://www.w3.org/2000/svg">
<path d="M69.7467 34.2325C75.9932 34.2325 80.4003 29.8964 80.4003 23.7793C80.4003 17.6623 75.9932 13.3261 69.7467 13.3261C63.5001 13.3261 59.093 17.6623 59.093 23.7793C59.093 29.8964 63.5001 34.2325 69.7467 34.2325ZM69.7467 30.1674C66.1444 30.1674 63.6917 27.5734 63.6917 23.7793C63.6917 19.9852 66.1444 17.3912 69.7467 17.3912C73.349 17.3912 75.8016 19.9852 75.8016 23.7793C75.8016 27.5734 73.349 30.1674 69.7467 30.1674Z" fill="black"/>
<path d="M94.4638 15.7652C91.4363 15.7652 89.3286 16.9267 87.7957 19.2496C88.1406 15.1845 89.4052 13.0164 94.6937 12.5518C98.4876 12.2034 101.745 11.2742 102.052 6.31859L98.1811 5.97015C97.9128 7.67364 97.338 8.25437 94.6554 8.48667C86.0328 9.22226 83.2736 14.6424 83.2736 22.0758C83.2736 25.8312 84.1167 28.6575 85.6113 30.632C87.4508 33.0323 90.1717 34.2325 93.4291 34.2325C99.2541 34.2325 103.393 30.361 103.393 24.9408C103.393 19.5593 99.6756 15.7652 94.4638 15.7652ZM93.4674 30.2448C90.21 30.2448 87.9873 28.1155 87.9873 24.9795C87.9873 21.8823 90.21 19.7529 93.4674 19.7529C96.6865 19.7529 98.9092 21.8823 98.9092 24.9795C98.9092 28.1155 96.6865 30.2448 93.4674 30.2448Z" fill="black"/>
<path d="M111.43 41.7821V30.7868C112.81 32.4516 115.301 34.2325 118.788 34.2325C124.498 34.2325 128.522 29.8577 128.522 23.7793C128.522 17.701 124.498 13.3261 118.788 13.3261C115.147 13.3261 112.618 15.2619 111.239 16.9654L110.319 13.7133H107.023V41.7821H111.43ZM117.715 30.2448C113.998 30.2448 111.43 27.5734 111.43 23.7793C111.43 19.9852 113.998 17.3138 117.715 17.3138C121.394 17.3138 123.923 19.9852 123.923 23.7793C123.923 27.5734 121.394 30.2448 117.715 30.2448Z" fill="black"/>
<path d="M140.484 13.3261C136.613 13.3261 133.202 15.3393 132.206 18.8237L136.268 19.5206C136.881 18.2817 138.261 17.1202 140.254 17.1202C142.668 17.1202 144.086 18.8624 144.278 21.4951H139.985C134.122 21.4951 131.21 24.089 131.21 27.8057C131.21 31.5612 134.084 34.2325 138.146 34.2325C141.403 34.2325 143.588 32.3355 144.546 30.6707L145.466 33.8454H148.723V22.5404C148.723 16.6944 145.581 13.3261 140.484 13.3261ZM139.181 30.4771C137.035 30.4771 135.655 29.3544 135.655 27.6122C135.655 26.0635 136.766 24.9795 140.139 24.9795H144.316C144.316 28.2703 142.246 30.4771 139.181 30.4771Z" fill="black"/>
<path d="M164.847 23.5857C166.879 23.0437 168.373 21.379 168.373 19.0947C168.373 15.7265 165.192 13.3261 160.785 13.3261C156.838 13.3261 153.504 15.1845 152.278 19.0173L156.34 19.7142C157.145 18.1268 158.716 17.1202 160.632 17.1202C162.471 17.1202 163.966 18.0494 163.966 19.5593C163.966 20.9144 162.74 21.8048 160.364 21.8048H157.873V25.6764H160.364C163.353 25.6764 164.273 26.683 164.273 27.9606C164.273 29.5092 162.893 30.4384 160.364 30.4384C158.064 30.4384 156.723 29.6641 155.842 27.8832L151.779 28.5801C152.738 31.9483 155.995 34.2325 160.402 34.2325C165.461 34.2325 168.68 31.5999 168.68 28.309C168.68 25.7925 166.879 24.2052 164.847 23.5857Z" fill="black"/>
<path d="M182.394 34.2325C188.64 34.2325 193.047 29.8964 193.047 23.7793C193.047 17.6623 188.64 13.3261 182.394 13.3261C176.147 13.3261 171.74 17.6623 171.74 23.7793C171.74 29.8964 176.147 34.2325 182.394 34.2325ZM182.394 30.1674C178.791 30.1674 176.339 27.5734 176.339 23.7793C176.339 19.9852 178.791 17.3912 182.394 17.3912C185.996 17.3912 188.449 19.9852 188.449 23.7793C188.449 27.5734 185.996 30.1674 182.394 30.1674Z" fill="black"/>
<path d="M210.598 23.3922C212.323 22.5791 213.434 21.2241 213.434 19.1334C213.434 15.9588 210.56 13.7133 206.421 13.7133H196.879V33.8454H206.843C211.135 33.8454 214.124 31.4837 214.124 28.2703C214.124 25.8312 212.553 24.0116 210.598 23.3922ZM206.421 17.3912C207.954 17.3912 209.027 18.3204 209.027 19.598C209.027 20.8757 207.954 21.7661 206.421 21.7661H201.286V17.3912H206.421ZM201.286 30.1674V25.2505H206.843C208.567 25.2505 209.717 26.2571 209.717 27.7283C209.717 29.1995 208.567 30.1674 206.843 30.1674H201.286Z" fill="black"/>
<path d="M226.26 13.3261C222.39 13.3261 218.979 15.3393 217.982 18.8237L222.045 19.5206C222.658 18.2817 224.037 17.1202 226.03 17.1202C228.444 17.1202 229.862 18.8624 230.054 21.4951H225.762C219.899 21.4951 216.986 24.089 216.986 27.8057C216.986 31.5612 219.86 34.2325 223.922 34.2325C227.18 34.2325 229.364 32.3355 230.322 30.6707L231.242 33.8454H234.499V22.5404C234.499 16.6944 231.357 13.3261 226.26 13.3261ZM224.957 30.4771C222.811 30.4771 221.431 29.3544 221.431 27.6122C221.431 26.0635 222.543 24.9795 225.915 24.9795H230.092C230.092 28.2703 228.023 30.4771 224.957 30.4771Z" fill="black"/>
<path d="M252.617 21.65H243.688V13.7133H239.28V33.8454H243.688V25.7151H252.617V33.8454H257.024V13.7133H252.617V21.65Z" fill="black"/>
<path d="M268.244 33.8454L275.678 18.9012H276.291V33.8454H280.507V13.7133H274.26L266.826 28.6575H266.212V13.7133H261.997V33.8454H268.244Z" fill="black"/>
<path d="M305.044 23.547C305.044 17.7397 300.752 13.3261 294.697 13.3261C288.642 13.3261 284.35 17.701 284.35 23.7793C284.35 29.8577 288.642 34.2325 294.697 34.2325C298.836 34.2325 302.745 32.258 304.239 28.4252L300.1 27.7283C299.142 29.1608 297.303 30.1674 294.965 30.1674C291.593 30.1674 289.37 28.0767 288.948 24.9795H304.967C305.006 24.5536 305.044 24.089 305.044 23.547ZM294.697 17.1977C297.456 17.1977 299.525 18.9786 300.254 21.4951H289.217C289.945 18.9012 292.014 17.1977 294.697 17.1977Z" fill="black"/>
<path fill-rule="evenodd" clip-rule="evenodd" d="M3.22097 3.99792C0.165527 7.08471 0.165527 12.0528 0.165527 21.989V23.7455C0.165527 33.6818 0.165527 38.6499 3.22097 41.7367C6.27642 44.8234 11.1941 44.8235 21.0294 44.8235H22.7681C32.6034 44.8235 37.5211 44.8234 40.5765 41.7367C43.632 38.6499 43.632 33.6818 43.632 23.7455V21.989C43.632 12.0528 43.632 7.08471 40.5765 3.99792C37.5211 0.911133 32.6034 0.911133 22.7681 0.911133H21.0294C11.1941 0.911133 6.27642 0.911133 3.22097 3.99792ZM7.50055 14.2679C7.736 25.6851 13.3866 32.5464 23.2933 32.5464H23.8549V26.0144C27.4952 26.3803 30.2478 29.07 31.3526 32.5464H36.4963C35.0836 27.3501 31.3707 24.4775 29.0525 23.3797C31.3707 22.0257 34.6307 18.7323 35.4095 14.2679H30.7367C29.7225 17.8907 26.7164 21.184 23.8549 21.4951V14.2679H19.1821V26.9292C16.2843 26.1974 12.626 22.6478 12.463 14.2679H7.50055Z" fill="#0077FF"/>
</svg>
