<svg width="212" height="44" viewBox="0 0 212 44" fill="none" xmlns="http://www.w3.org/2000/svg">
<path d="M75.1 21.6102C75.1 15.1935 77.7605 9.71582 85.4293 9.71582C93.0981 9.71582 95.7587 15.1935 95.7587 21.6102C95.7587 28.027 93.0981 33.5047 85.4293 33.5047C77.7605 33.5047 75.1 28.027 75.1 21.6102ZM79.9516 21.6102C79.9516 25.3664 80.7342 28.8878 85.5076 28.8878C90.281 28.8878 91.0635 25.3664 91.0635 21.6102C91.0635 17.8541 90.281 14.3327 85.5076 14.3327C80.7342 14.3327 79.9516 17.8541 79.9516 21.6102ZM196.861 10.2636L201.087 17.3063L205.313 10.2636H211.025L204.139 21.1407L211.573 32.9569H205.86L201.087 24.9751L196.314 32.9569H190.601L198.035 21.1407L191.149 10.2636H196.861ZM175.968 19.3409H184.889V23.7231H175.968V28.4965H186.532V33.1134H171.116V10.2636H186.454V14.8805H175.89V19.3409H175.968ZM155.466 32.9569V14.8805H149.205V10.2636H166.499V14.8805H160.239V32.9569H155.466ZM130.425 32.9569H125.808V10.2636H130.659V24.1926L139.659 10.2636H144.275V32.9569H139.424V19.0279L130.425 32.9569ZM98.5758 28.4965C100.61 28.5747 101.941 27.714 102.41 25.8359C103.74 20.906 103.897 15.35 104.601 10.2636H119.235V32.9569H114.383V14.8805H108.905C108.592 18.0106 108.044 23.5666 107.105 27.0097C106.088 30.9223 102.88 33.3482 98.5758 33.1134V28.4965ZM52.0154 32.9569V10.2636H69.7005V32.9569H64.8488V14.8805H56.8671V32.9569H52.0154Z" fill="#404344"/>
<path d="M21.9663 0.0126953C18.2884 0.0126953 12.2629 0.169202 8.74155 0.560466C3.88988 1.10824 1.93356 3.69058 1.46404 8.22924C1.07278 11.7506 0.759766 16.837 0.759766 21.5322C0.759766 26.2274 0.838019 31.3921 1.46404 34.8352C2.24657 39.3739 4.35939 41.7997 8.74155 42.504C12.2629 43.0517 18.6797 43.0517 21.9663 43.0517C25.2529 43.0517 31.7479 43.0517 35.191 42.504C39.5732 41.7997 41.686 39.3739 42.4685 34.8352C43.0945 31.3921 43.1728 26.0709 43.1728 21.5322C43.1728 16.9936 42.7815 11.1246 42.4685 8.30749C41.999 3.61232 39.9644 1.26474 35.191 0.638718C31.6696 0.169201 25.6442 0.0126953 21.9663 0.0126953ZM36.8343 4.94262C37.7733 5.33389 39.4166 7.75972 39.0254 10.4203C37.2256 11.9071 34.9562 12.9244 32.8434 13.3157V30.3748H39.1819C39.1819 32.9571 38.7906 35.07 38.3211 35.8525H26.8179V13.5504H18.6797V26.8534C18.6797 33.5049 14.9235 36.8698 10.0718 36.8698C8.74155 36.8698 7.09824 36.7133 5.68969 36.322C5.06367 35.4612 4.75066 32.8789 4.6724 29.6705C7.88077 31.2356 12.1847 31.9398 12.5759 26.9317V14.4112C7.72426 14.959 5.92445 18.3239 4.28114 20.5932C4.28114 17.5413 4.5159 14.8025 4.59415 12.9244C7.95902 9.32478 11.6369 7.68147 18.9927 7.68147H29.4785C32.0609 7.68147 34.565 6.74244 36.8343 4.94262Z" fill="#37B34A"/>
</svg>
