<svg width="1920" height="679" viewBox="0 0 1920 679" fill="none" xmlns="http://www.w3.org/2000/svg">
<g clip-path="url(#clip0_307_29)">
<rect width="1920" height="679" fill="#0077FF"/>
<g filter="url(#filter0_f_307_29)">
<path opacity="0.02" d="M-858.366 -480.687C-901.343 -408.067 -935.855 -329.354 -960.706 -247.747C-1002.62 -110.071 -1018.02 35.8388 -1002.94 176.926C-987.882 317.859 -942.403 453.948 -862.57 572.213C-659.248 875.098 -214.747 1005.83 96.7476 817.123C172.169 771.44 244.915 705.217 331.74 679.832C336.355 678.489 340.986 677.262 345.692 676.153C388.043 666.269 430.203 671.27 472.252 673.562C513.49 675.796 554.392 675.837 594.072 653.573C718.136 584.442 862.022 311.317 733.653 196.914C704.701 171.103 666.766 158.252 630.06 145.72C428.592 76.9568 226.019 -8.36525 73.6916 -155.386C63.1937 -165.531 52.9147 -175.941 42.8946 -186.674C-59.2501 -296.059 -129.291 -431.268 -229.656 -542.333C-329.281 -652.801 -480.933 -738.12 -623.602 -696.435C-728.281 -665.876 -802.85 -574.46 -858.366 -480.687Z" fill="#001F9A"/>
<path opacity="0.04" d="M-855.489 -478.029C-899.111 -405.927 -934.224 -327.131 -959.214 -245.353C-1001.39 -107.471 -1016.79 38.8451 -1001.49 180.247C-986.207 321.494 -939.975 457.62 -859.795 575.971C-657.794 874.126 -222.031 1001.33 87.558 819.752C164.396 774.682 239.435 709.672 326.9 682.523C331.537 681.084 336.209 679.762 340.936 678.556C383.482 667.768 425.773 671.322 468.378 672.969C510.193 674.54 551.802 674.964 591.995 652.229C715.182 582.555 857.868 310.292 729.557 196.722C700.621 171.105 662.777 158.43 626.165 146.055C424.908 78.1668 224.889 -8.85561 72.4884 -155.221C62.0085 -165.307 51.7278 -175.64 41.6853 -186.238C-60.5448 -294.445 -132.65 -426.531 -232.823 -536.721C-331.494 -645.775 -481.335 -729.969 -622.429 -689.466C-725.986 -659.79 -799.8 -570.077 -855.489 -478.029Z" fill="#001F9A"/>
<path opacity="0.07" d="M-852.61 -475.39C-896.898 -403.787 -932.573 -324.927 -957.741 -242.998C-1000.17 -104.851 -1015.57 41.871 -1000.04 183.568C-984.531 325.13 -937.703 461.386 -857.001 579.729C-656.734 873.435 -229.162 996.972 78.3691 822.362C156.663 777.906 233.936 714.128 322.081 685.177C326.758 683.642 331.452 682.223 336.201 680.922C378.942 669.248 421.363 671.336 464.506 672.318C506.897 673.226 549.269 674.113 589.938 650.847C712.359 580.827 853.735 309.21 725.501 196.473C696.58 171.03 658.83 158.532 622.31 146.333C421.246 79.3194 223.78 -9.40337 71.3255 -155.112C60.8631 -165.121 50.5805 -175.376 40.4972 -185.879C-61.8187 -292.889 -135.969 -421.871 -235.95 -531.167C-333.708 -638.729 -481.756 -721.818 -621.257 -682.496C-723.691 -653.684 -796.749 -565.713 -852.61 -475.39Z" fill="#001F9A"/>
<path opacity="0.09" d="M-849.752 -472.732C-894.704 -401.628 -930.943 -322.684 -956.268 -240.624C-998.935 -102.251 -1014.34 44.8776 -998.591 186.909C-982.856 328.785 -935.432 465.19 -854.226 583.506C-655.712 872.763 -236.162 992.768 69.1794 825.011C148.968 781.169 228.455 718.622 317.242 687.868C321.94 686.256 326.675 684.723 331.446 683.306C374.382 670.728 416.934 671.368 460.614 671.687C503.581 671.93 546.696 673.28 587.843 649.483C709.498 579.136 849.562 308.166 721.388 196.242C692.481 170.993 654.823 158.671 618.377 146.628C417.525 80.4708 222.594 -9.95282 70.0845 -154.967C59.6401 -164.917 49.3361 -175.076 39.2503 -185.482C-63.1513 -291.296 -139.583 -416.965 -239.135 -525.575C-336.158 -631.496 -482.158 -713.667 -620.084 -675.527C-721.395 -647.597 -793.717 -561.35 -849.752 -472.732Z" fill="#001F9A"/>
<path opacity="0.11" d="M-846.873 -470.094C-892.51 -399.509 -929.292 -320.48 -954.777 -238.25C-997.7 -99.6504 -1013.12 47.8837 -997.141 190.23C-981.181 332.44 -933.16 468.955 -851.432 587.264C-654.691 872.071 -242.992 988.703 60.0096 827.621C141.311 784.395 222.975 723.077 312.441 690.541C317.18 688.834 321.937 687.204 326.73 685.691C369.861 672.209 412.523 671.401 456.78 671.056C500.323 670.636 544.182 672.448 585.825 648.102C706.733 577.428 845.449 307.084 717.351 196.013C688.459 170.957 650.894 158.792 614.541 146.925C413.9 81.6432 221.522 -10.4808 68.9403 -154.839C58.4946 -164.731 48.2079 -174.813 38.0809 -185.103C-64.4066 -289.72 -142.942 -412.248 -242.242 -520.02C-338.43 -624.413 -482.58 -705.516 -618.912 -668.558C-719.1 -641.492 -790.705 -556.968 -846.873 -470.094Z" fill="#001F9A"/>
<path opacity="0.13" d="M-843.995 -467.435C-890.317 -397.35 -927.661 -318.257 -953.285 -235.875C-996.464 -97.0494 -1011.87 50.8911 -995.69 193.551C-979.506 336.076 -930.907 472.741 -848.657 591.023C-653.708 871.398 -249.708 984.796 50.8204 830.251C133.654 787.66 217.495 727.553 307.602 693.214C312.363 691.41 317.161 689.685 321.975 688.075C365.281 673.708 408.094 671.434 452.888 670.425C497.008 669.342 541.629 671.615 583.729 646.739C703.89 575.777 841.276 306.04 713.256 195.783C684.38 170.902 646.907 158.913 610.627 147.222C410.199 82.8147 220.355 -11.0102 67.6997 -154.713C57.272 -164.546 46.9638 -174.532 36.8152 -184.726C-65.7582 -288.146 -146.397 -407.513 -245.447 -514.447C-340.683 -617.33 -483.001 -697.365 -617.72 -661.587C-716.786 -635.404 -787.692 -552.624 -843.995 -467.435Z" fill="#001F9A"/>
<path opacity="0.15" d="M-841.117 -464.797C-888.142 -395.211 -926.01 -316.053 -951.792 -233.52C-995.229 -94.4298 -1010.65 53.8973 -994.239 196.872C-977.83 339.712 -928.655 476.505 -845.863 594.781C-652.707 870.744 -256.273 981.008 41.6317 832.86C126.037 790.886 211.996 731.989 302.784 695.867C307.585 693.967 312.385 692.145 317.241 690.421C360.705 675.052 403.685 671.428 449.036 669.755C493.732 668.008 539.097 670.744 581.692 645.338C701.106 574.088 837.163 304.939 709.201 195.515C680.34 170.827 642.96 159.014 606.773 147.461C406.557 83.9095 219.247 -11.597 66.5374 -154.624C56.1277 -164.399 45.8177 -174.307 35.6467 -184.367C-67.0125 -286.59 -149.755 -402.815 -248.573 -508.912C-342.956 -610.247 -483.403 -689.215 -616.547 -654.618C-714.51 -629.299 -784.718 -548.262 -841.117 -464.797Z" fill="#001F9A"/>
<path opacity="0.17" d="M-838.258 -462.139C-885.988 -393.053 -924.38 -313.811 -950.32 -231.127C-993.994 -91.8294 -1009.42 56.9035 -992.788 200.193C-976.155 343.366 -926.402 480.289 -843.088 598.539C-651.764 870.108 -262.745 977.377 32.4429 835.47C118.439 794.132 206.517 736.444 297.945 698.539C302.767 696.563 307.609 694.625 312.486 692.805C356.146 676.531 399.236 671.46 445.144 669.123C490.435 666.713 536.544 669.93 579.616 643.974C698.301 572.437 833.01 303.894 705.126 195.304C676.279 170.81 638.992 159.154 602.898 147.777C402.893 85.1005 218.137 -12.1063 65.3543 -154.478C54.9626 -164.194 44.6504 -174.006 34.4384 -183.97C-68.3065 -284.996 -153.154 -398.059 -251.72 -503.32C-345.209 -603.164 -483.824 -681.064 -615.374 -647.649C-712.214 -623.212 -781.764 -543.92 -838.239 -462.139L-838.258 -462.139Z" fill="#001F9A"/>
<path opacity="0.2" d="M-835.381 -459.481C-883.833 -390.895 -922.73 -311.587 -948.828 -228.753C-992.759 -89.2288 -1008.19 59.91 -991.338 203.533C-974.499 347.021 -924.151 484.093 -840.314 602.335C-650.841 869.511 -269.086 973.942 23.2525 838.137C110.878 797.437 201.035 740.958 293.105 701.25C297.968 699.178 302.831 697.144 307.749 695.228C351.585 678.05 394.825 671.532 441.29 668.53C487.157 665.458 534.009 669.137 577.559 642.631C695.515 570.825 828.857 302.85 701.05 195.093C672.218 170.774 635.024 159.313 599.003 148.092C399.191 86.2907 216.989 -12.6358 64.1513 -154.312C53.7775 -163.97 43.4438 -173.686 33.2296 -183.553C-69.6012 -283.382 -156.533 -393.303 -254.867 -497.727C-347.463 -596.062 -484.227 -672.894 -614.203 -640.66C-709.92 -617.087 -778.81 -539.539 -835.381 -459.481Z" fill="#001F9A"/>
<path opacity="0.22" d="M-832.502 -456.842C-881.678 -388.737 -921.079 -309.383 -947.335 -226.397C-991.523 -86.628 -1006.97 62.9166 -989.887 206.855C-972.824 350.657 -921.918 487.877 -837.519 606.094C-649.917 868.875 -275.313 970.607 14.083 840.748C103.356 800.685 195.555 745.414 288.305 703.904C293.19 701.736 298.094 699.606 303.034 697.575C347.065 679.492 390.435 671.507 437.438 667.861C483.881 664.125 531.496 668.286 575.522 641.23C692.749 569.175 824.744 301.769 696.995 194.825C668.178 170.7 631.077 159.396 595.149 148.351C395.548 87.4246 215.881 -13.2027 62.989 -154.223C52.6327 -163.803 42.2778 -173.442 32.042 -183.213C-71.0728 -281.637 -159.909 -388.625 -257.993 -492.192C-349.695 -589.036 -484.628 -664.762 -613.01 -633.729C-707.604 -611.039 -775.873 -535.255 -832.482 -456.861L-832.502 -456.842Z" fill="#001F9A"/>
<path opacity="0.24" d="M-829.624 -454.185C-879.543 -386.58 -919.448 -307.16 -945.844 -224.004C-990.307 -84.009 -1005.74 65.9226 -988.437 210.175C-971.148 354.292 -919.685 491.661 -834.744 609.851C-649.033 868.277 -281.446 967.39 4.87434 843.376C95.8148 803.99 190.056 749.869 283.446 706.595C288.372 704.331 293.298 702.105 298.259 699.977C342.466 680.99 385.986 671.558 433.545 667.248C480.565 662.848 528.942 667.491 573.426 639.886C689.924 567.582 820.571 300.724 692.899 194.633C664.098 170.701 627.089 159.554 591.254 148.686C391.866 88.6149 214.732 -13.6939 61.7667 -154.058C51.4285 -163.58 41.0713 -173.122 30.7947 -182.797C-72.406 -280.025 -163.327 -383.851 -261.179 -486.581C-351.988 -581.915 -485.07 -656.574 -611.857 -626.722C-705.329 -604.895 -772.977 -530.876 -829.644 -454.185L-829.624 -454.185Z" fill="#001F9A"/>
<path opacity="0.26" d="M-826.765 -451.546C-877.446 -384.443 -917.817 -304.937 -944.37 -221.649C-989.072 -81.4081 -1004.52 68.9294 -986.986 213.497C-969.473 357.947 -917.452 495.445 -831.95 613.61C-648.129 867.66 -287.467 964.33 -4.29519 845.987C88.3312 807.278 184.576 754.325 278.646 709.249C283.594 706.888 288.541 704.567 293.544 702.343C337.945 682.451 381.576 671.572 429.693 666.598C477.289 661.535 526.428 666.66 571.388 638.504C687.176 565.971 816.457 299.662 688.844 194.384C660.057 170.627 623.141 159.675 587.38 148.963C388.203 89.7678 213.623 -14.2415 60.5841 -153.931C50.2638 -163.394 39.885 -172.84 29.6057 -182.399C-73.7006 -278.411 -166.706 -379.114 -264.325 -481.007C-354.241 -574.851 -485.472 -648.422 -610.685 -619.733C-703.034 -598.789 -770.099 -526.535 -826.766 -451.508L-826.765 -451.546Z" fill="#001F9A"/>
<path opacity="0.28" d="M-823.888 -448.888C-875.33 -382.306 -916.167 -302.714 -942.879 -219.255C-987.837 -78.8079 -1003.29 71.9549 -985.535 216.817C-967.798 361.583 -915.219 499.229 -829.175 617.367C-647.284 867.079 -293.414 961.407 -13.4845 848.616C80.8668 810.585 179.096 758.799 273.807 711.921C278.796 709.484 283.764 707.047 288.789 704.708C333.385 683.931 377.147 671.585 425.801 665.947C473.974 660.22 523.855 665.826 569.294 637.102C684.371 564.339 812.266 298.578 684.731 194.114C655.959 170.551 619.136 159.756 583.467 149.22C384.502 90.8998 212.456 -14.8104 59.3636 -153.843C49.0614 -163.249 38.6809 -172.617 28.3601 -182.061C-75.0324 -276.856 -170.122 -374.436 -267.509 -475.474C-356.512 -567.807 -485.931 -640.311 -609.531 -612.803C-700.758 -592.722 -767.24 -522.254 -823.907 -448.889L-823.888 -448.888Z" fill="#001F9A"/>
<path opacity="0.3" d="M-821.009 -446.249C-873.213 -380.168 -914.516 -300.509 -941.386 -216.9C-986.601 -76.2069 -1002.06 74.9616 -984.085 220.139C-966.122 365.219 -913.006 503.013 -826.381 621.126C-646.439 866.5 -299.267 958.622 -22.654 851.227C73.4406 813.913 173.616 763.255 268.988 714.594C273.998 712.061 279.007 709.528 284.054 707.093C328.825 685.411 372.737 671.618 421.948 665.316C470.697 658.926 521.34 665.033 567.256 635.74C681.642 562.768 808.153 297.516 680.694 193.905C651.937 170.535 615.187 159.916 579.611 149.537C380.839 92.072 211.347 -15.3385 58.1998 -153.696C47.8962 -163.043 37.5135 -172.315 27.1905 -181.662C-76.3076 -275.242 -173.461 -369.699 -270.617 -469.899C-358.707 -560.742 -486.295 -632.159 -608.32 -605.832C-698.424 -586.634 -764.362 -517.952 -821.009 -446.249Z" fill="#001F9A"/>
<path opacity="0.33" d="M-818.151 -443.592C-871.156 -378.012 -912.905 -298.287 -939.914 -214.526C-985.366 -73.6063 -1000.82 77.9686 -982.634 223.46C-964.447 368.855 -910.793 506.816 -823.606 624.884C-645.614 865.939 -305.046 955.974 -31.8624 853.836C65.9942 817.26 168.117 767.692 264.149 717.247C269.181 714.618 274.231 711.989 279.299 709.457C324.266 686.872 368.288 671.631 418.056 664.665C467.401 657.612 518.807 664.201 565.18 634.358C678.856 561.176 804 296.453 676.599 193.655C647.858 170.46 611.2 160.017 575.717 149.814C377.157 93.2242 210.219 -15.8867 56.9977 -153.569C46.7121 -162.858 36.327 -172.033 25.9631 -181.285C-77.6208 -273.667 -176.858 -365.001 -273.783 -464.326C-360.96 -553.678 -486.716 -624.008 -607.167 -598.863C-696.148 -580.529 -761.541 -513.651 -818.151 -443.592Z" fill="#001F9A"/>
<path opacity="0.35" d="M-815.273 -440.934C-869.059 -375.875 -911.255 -296.044 -938.422 -212.132C-984.132 -70.9673 -999.593 80.9942 -981.165 226.82C-962.754 372.548 -908.561 510.658 -820.812 628.681C-644.809 865.416 -310.732 953.483 -41.0333 856.504C58.6044 820.685 162.656 772.205 259.329 719.977C264.401 717.252 269.473 714.528 274.563 711.88C319.705 688.39 363.878 671.703 414.202 664.073C464.123 656.356 516.291 663.446 563.123 633.014C676.106 559.642 799.866 295.409 672.543 193.445C643.816 170.443 607.252 160.157 571.861 150.131C373.513 94.4157 209.109 -16.3961 55.8146 -153.423C45.5471 -162.653 35.1602 -171.751 24.755 -180.888C-78.9152 -272.054 -180.237 -360.265 -276.929 -458.752C-363.193 -546.614 -487.137 -615.858 -605.975 -591.894C-693.833 -574.442 -758.702 -509.351 -815.253 -440.953L-815.273 -440.934Z" fill="#001F9A"/>
<path opacity="0.37" d="M-812.395 -438.295C-867 -373.758 -909.604 -293.84 -936.949 -209.778C-982.915 -68.3867 -998.367 83.981 -979.733 230.121C-961.097 376.164 -906.367 514.44 -818.037 632.419C-644.022 864.854 -316.381 951.05 -50.2218 859.094C51.2158 824.052 157.157 776.641 254.51 722.611C259.603 719.809 264.716 716.989 269.828 714.226C315.165 689.85 359.468 671.697 410.33 663.422C460.827 655.042 513.757 662.614 561.066 631.632C673.358 558.07 795.713 294.346 668.468 193.215C639.756 170.407 603.284 160.297 567.968 150.407C369.831 95.5675 207.961 -16.9451 54.6126 -153.296C44.3625 -162.449 33.9545 -171.47 23.547 -180.51C-80.2282 -270.479 -183.615 -355.548 -280.095 -453.18C-365.446 -539.55 -487.559 -607.708 -604.822 -584.925C-691.577 -568.337 -755.919 -505.071 -812.414 -438.296L-812.395 -438.295Z" fill="#001F9A"/>
<path opacity="0.39" d="M-809.516 -435.637C-864.941 -371.622 -907.954 -291.616 -935.457 -207.403C-981.66 -65.7854 -997.141 86.9878 -978.282 233.442C-959.421 379.8 -904.173 518.243 -815.262 636.177C-643.255 864.331 -321.956 948.775 -59.4302 861.724C43.8257 827.497 151.657 781.116 249.652 725.283C254.786 722.386 259.901 719.468 265.054 716.591C310.587 691.311 355.001 671.709 406.439 662.771C457.512 653.728 511.204 661.801 558.971 630.249C670.59 556.497 791.542 293.263 664.354 192.965C635.658 170.331 599.279 160.398 564.055 150.684C366.13 96.7001 206.814 -17.4935 53.3919 -153.189C43.1598 -162.283 32.7496 -171.207 22.3008 -180.132C-81.5608 -268.886 -187.011 -350.85 -283.28 -447.607C-367.718 -532.486 -488 -599.538 -603.668 -577.936C-689.302 -562.212 -753.156 -500.791 -809.555 -435.638L-809.516 -435.637Z" fill="#001F9A"/>
<path opacity="0.41" d="M-806.657 -432.999C-862.921 -369.506 -906.342 -289.394 -933.984 -205.029C-980.445 -63.1662 -995.915 89.994 -976.832 236.782C-957.766 383.454 -901.98 522.065 -812.468 639.955C-642.489 863.826 -327.476 946.635 -68.6003 864.353C36.4928 830.961 146.177 785.591 244.851 727.975C250.007 724.982 255.163 721.969 260.338 718.995C306.045 692.829 350.609 671.762 402.585 662.159C454.234 652.452 508.708 661.027 556.933 628.906C667.879 554.984 787.427 292.239 660.317 192.755C631.635 170.315 595.349 160.557 560.218 151.001C362.486 97.8915 205.723 -18.0219 52.2473 -153.042C42.0331 -162.077 31.602 -170.925 21.1504 -179.734C-82.797 -267.29 -190.332 -346.112 -286.368 -442.032C-369.893 -525.44 -488.363 -591.386 -602.438 -570.966C-686.948 -556.124 -750.335 -496.529 -806.639 -432.979L-806.657 -432.999Z" fill="#001F9A"/>
<path opacity="0.43" d="M-803.78 -430.341C-860.901 -367.39 -904.692 -287.171 -932.493 -202.655C-979.21 -60.5658 -994.689 93.0003 -975.382 240.103C-956.091 387.109 -899.806 525.886 -809.693 643.713C-641.762 863.321 -332.94 944.594 -77.7898 866.982C29.1594 834.446 140.697 790.046 240.012 730.647C245.208 727.558 250.386 724.449 255.602 721.379C301.504 694.309 346.199 671.794 398.731 661.528C450.957 651.158 506.192 660.253 554.876 627.524C665.13 553.431 783.294 291.157 656.241 192.525C627.575 170.278 591.381 160.678 556.324 151.297C358.804 99.0628 204.575 -18.5515 51.0447 -152.896C40.8485 -161.873 30.415 -170.624 19.9226 -179.337C-84.1106 -265.697 -193.71 -341.395 -289.535 -436.44C-372.127 -518.357 -488.785 -583.217 -601.285 -563.978C-684.673 -550 -747.592 -492.25 -803.78 -430.322L-803.78 -430.341Z" fill="#001F9A"/>
<path opacity="0.46" d="M-800.901 -427.702C-858.88 -365.293 -903.041 -284.967 -931 -200.299C-977.974 -57.9843 -993.463 96.0068 -973.93 243.405C-954.415 390.726 -897.612 529.688 -806.898 647.452C-641.035 862.797 -338.349 942.631 -86.959 869.573C21.8642 837.951 135.217 794.483 235.193 733.281C240.411 730.115 245.63 726.891 250.868 723.706C296.965 695.751 341.79 671.77 394.86 660.839C447.681 649.806 503.679 659.402 552.82 626.103C662.421 551.841 779.142 290.055 652.168 192.237C623.516 170.165 587.415 160.76 552.45 151.536C355.142 100.177 203.467 -19.1377 49.8635 -152.826C39.6853 -161.745 29.2495 -170.399 18.7162 -179.017C-85.4033 -264.16 -197.067 -336.755 -292.679 -430.944C-374.339 -511.389 -489.185 -575.142 -600.092 -557.085C-682.357 -543.99 -744.846 -488.086 -800.881 -427.74L-800.901 -427.702Z" fill="#001F9A"/>
<path opacity="0.48" d="M-798.043 -425.044C-856.898 -363.197 -901.41 -282.743 -929.528 -197.906C-976.759 -55.3454 -992.238 99.0328 -972.48 246.746C-952.74 394.381 -895.458 533.529 -804.124 651.229C-640.347 862.329 -343.741 940.843 -96.1675 872.202C14.5292 841.513 129.718 798.958 230.354 735.973C235.612 732.711 240.853 729.391 246.112 726.11C292.405 697.25 337.341 671.821 390.968 660.226C444.365 648.53 501.144 658.628 550.743 624.76C659.671 550.346 774.989 289.011 648.092 192.026C619.455 170.148 583.447 160.9 548.575 151.853C351.479 101.349 202.338 -19.6473 48.661 -152.68C38.4815 -161.541 28.044 -170.118 17.5079 -178.619C-86.6974 -262.566 -200.425 -332.037 -295.845 -425.351C-376.591 -504.325 -489.627 -566.973 -598.939 -550.097C-680.082 -537.865 -742.14 -483.827 -798.042 -425.083L-798.043 -425.044Z" fill="#001F9A"/>
<path opacity="0.5" d="M-795.165 -422.386C-854.897 -361.101 -899.78 -280.501 -928.036 -195.531C-975.504 -52.7445 -991.012 102.039 -971.03 250.086C-951.065 398.055 -893.284 537.369 -801.349 655.006C-639.679 861.881 -349.098 939.152 -105.357 874.85C7.25047 845.153 124.237 803.452 225.514 738.664C230.795 735.306 236.076 731.89 241.357 728.513C287.825 698.768 332.911 671.853 387.095 659.614C441.068 647.254 498.628 657.873 548.667 623.416C656.94 548.851 770.835 287.986 643.996 191.834C615.394 170.15 579.459 161.059 544.661 152.187C347.776 102.558 201.17 -20.1387 47.4384 -152.496C37.2763 -161.279 26.837 -169.778 16.2596 -178.165C-88.0314 -260.915 -203.824 -327.262 -299.032 -419.721C-378.845 -497.222 -490.069 -558.765 -597.787 -543.07C-677.807 -531.721 -739.454 -479.569 -795.185 -422.368L-795.165 -422.386Z" fill="#001F9A"/>
<path opacity="0.52" d="M-792.287 -419.747C-852.933 -359.044 -898.129 -278.297 -926.543 -193.176C-974.268 -50.1631 -989.766 105.027 -969.579 253.388C-949.389 401.672 -891.13 541.19 -798.555 658.765C-638.991 861.413 -354.398 937.541 -114.527 877.461C-0.00867734 848.775 118.758 807.888 220.715 741.318C226.036 737.864 231.32 734.352 236.642 730.859C283.304 700.21 328.521 671.848 383.242 658.945C437.792 645.921 496.133 657.061 546.63 621.995C654.249 547.3 766.723 286.866 639.961 191.547C611.374 170.038 575.531 161.142 540.826 152.427C344.134 103.673 200.101 -20.7433 46.2958 -152.425C36.1518 -161.15 25.7105 -169.572 15.1111 -177.843C-89.2465 -259.396 -207.123 -322.62 -302.119 -414.204C-380.98 -490.233 -490.411 -550.67 -596.555 -536.138C-675.453 -525.652 -736.689 -475.386 -792.267 -419.766L-792.287 -419.747Z" fill="#001F9A"/>
<path opacity="0.54" d="M-789.409 -417.09C-850.97 -356.968 -896.479 -276.074 -925.052 -190.783C-973.034 -47.524 -988.541 108.052 -968.109 256.728C-947.695 405.327 -888.957 545.05 -795.761 662.542C-638.323 860.984 -359.662 936.045 -123.697 880.11C-7.2505 852.493 113.296 812.383 215.894 744.029C221.237 740.479 226.562 736.871 231.906 733.282C278.763 701.748 324.091 671.919 379.389 658.352C434.515 644.665 493.636 656.326 544.573 620.671C651.537 545.825 762.589 285.861 635.885 191.356C607.313 170.04 571.564 161.301 536.931 152.761C340.451 104.863 198.952 -21.2343 45.0927 -152.241C34.9666 -160.907 24.5038 -169.233 13.8829 -177.408C-90.5605 -257.763 -210.481 -317.884 -305.286 -408.573C-383.214 -483.13 -490.819 -542.249 -595.403 -529.111C-673.162 -519.353 -734.041 -471.147 -789.41 -417.051L-789.409 -417.09Z" fill="#001F9A"/>
<path opacity="0.57" d="M-786.55 -414.451C-849.026 -354.932 -894.848 -273.87 -923.579 -188.428C-971.817 -44.9433 -987.315 111.059 -966.677 260.03C-946.038 408.943 -886.841 548.87 -792.986 666.281C-637.694 860.534 -364.929 934.627 -132.905 882.7C-14.5119 856.211 107.778 816.818 211.037 746.663C216.42 743.036 221.767 739.312 227.132 735.627C274.184 703.189 319.643 671.913 375.478 657.681C431.181 643.331 491.082 655.513 542.478 619.269C648.788 544.292 758.397 284.777 631.771 191.105C603.214 169.983 567.538 161.42 533.018 153.038C336.75 106.015 197.785 -21.7836 43.8716 -152.134C33.7636 -160.742 23.2985 -168.971 12.6367 -177.05C-91.8925 -256.209 -213.877 -313.225 -308.47 -403.039C-385.465 -476.144 -491.279 -534.138 -594.249 -522.181C-670.886 -513.287 -731.392 -466.986 -786.55 -414.451Z" fill="#001F9A"/>
<path opacity="0.59" d="M-783.672 -411.793C-847.1 -352.895 -893.217 -271.628 -922.087 -186.053C-970.563 -42.3422 -986.089 114.065 -965.227 263.37C-944.364 412.617 -884.707 552.748 -790.211 670.058C-637.085 860.123 -370.178 933.326 -142.095 885.348C-21.7562 860.027 102.297 821.313 206.216 749.355C211.621 745.632 217.009 741.832 222.396 738.012C269.643 704.689 315.233 671.946 371.625 657.051C427.903 642.037 488.586 654.739 540.421 617.887C646.077 542.779 754.264 283.695 627.716 190.857C599.173 169.909 563.59 161.522 529.163 153.316C333.107 107.168 196.695 -22.3309 42.6892 -152.026C32.5991 -160.575 22.1325 -168.727 11.4486 -176.691C-93.1664 -254.652 -217.197 -308.545 -311.616 -397.485C-387.659 -469.117 -491.681 -525.987 -593.076 -515.231C-668.59 -507.219 -728.742 -462.845 -783.691 -411.813L-783.672 -411.793Z" fill="#001F9A"/>
<path opacity="0.61" d="M-780.793 -409.154C-845.174 -350.878 -891.566 -269.423 -920.594 -183.679C-969.327 -39.7415 -984.843 117.072 -963.757 266.692C-942.669 416.253 -882.572 556.607 -787.397 673.817C-636.437 859.713 -375.391 932.103 -151.245 887.959C-28.9433 863.882 96.8372 825.75 201.416 752.028C206.862 748.21 212.271 744.313 217.68 740.397C265.103 706.188 310.823 671.979 367.772 656.42C424.646 640.743 486.109 653.966 538.383 616.525C643.404 541.305 750.15 282.652 623.66 190.627C595.133 169.873 559.642 161.643 525.289 153.594C329.444 108.321 195.567 -22.8791 41.5068 -151.898C31.4347 -160.389 20.9462 -168.445 10.2403 -176.294C-94.4408 -253.077 -220.535 -303.846 -314.762 -391.911C-389.853 -462.09 -492.083 -517.836 -591.884 -508.261C-666.295 -501.113 -726.073 -458.683 -780.793 -409.174L-780.793 -409.154Z" fill="#001F9A"/>
<path opacity="0.63" d="M-777.935 -406.497C-843.287 -348.881 -889.935 -267.2 -919.122 -181.305C-968.112 -37.1222 -983.637 120.078 -962.325 270.012C-941.013 419.888 -880.476 560.465 -784.642 677.574C-635.887 859.32 -380.644 930.956 -160.453 890.588C-36.1896 867.794 91.3377 830.224 196.578 754.7C202.045 750.785 207.495 746.793 212.926 742.781C260.543 707.668 306.393 672.011 363.899 655.788C421.35 639.448 483.593 653.212 536.326 615.162C640.711 539.831 746.017 281.589 619.604 190.417C591.091 169.857 555.693 161.802 521.433 153.91C325.781 109.492 194.458 -23.4078 40.343 -151.752C30.2889 -160.184 19.7988 -168.163 9.07089 -175.895C-95.696 -251.482 -223.835 -299.166 -317.87 -386.318C-392.008 -455.044 -492.466 -509.665 -590.674 -501.252C-663.962 -494.987 -723.404 -454.502 -777.877 -406.476L-777.935 -406.497Z" fill="#001F9A"/>
<path opacity="0.65" d="M-976.095 -217.9C-1042.44 -160.945 -1089.32 -79.0382 -1118.69 7.00795C-1167.93 151.417 -1183.45 309.023 -1161.91 459.291C-1140.4 609.482 -1079.42 750.32 -982.905 867.29C-836.355 1044.88 -586.899 1115.86 -370.7 1079.16C-244.476 1057.72 -115.2 1020.64 -9.31872 943.31C-3.811 939.319 1.64144 935.211 7.11374 931.084C54.9255 895.086 100.907 857.963 158.95 841.075C216.977 824.072 280.021 838.376 333.174 799.717C436.923 724.275 540.768 466.463 414.433 376.105C385.935 355.719 350.63 347.841 316.463 340.125C121.022 296.582 -7.76666 161.981 -161.936 34.3131C-171.972 25.9583 -182.464 18.057 -193.233 10.42C-298.066 -63.969 -428.25 -108.548 -522.113 -194.826C-595.298 -262.099 -693.963 -315.596 -790.597 -308.365C-862.762 -302.963 -921.888 -264.463 -976.114 -217.92L-976.095 -217.9Z" fill="#001F9A"/>
<path opacity="0.67" d="M-772.179 -401.2C-839.53 -344.926 -886.654 -262.754 -916.157 -176.556C-965.641 -31.9211 -981.185 126.091 -959.425 276.674C-937.682 427.198 -876.306 568.259 -779.073 685.11C-634.748 858.572 -391.08 928.973 -178.832 895.827C-50.6293 875.812 80.3579 839.154 186.919 760.045C192.448 755.958 197.942 751.754 203.455 747.531C251.461 710.648 297.573 672.058 356.154 654.526C414.757 636.859 478.6 651.684 532.193 612.417C635.307 536.863 737.711 279.463 611.434 189.937C582.952 169.745 547.739 162.043 513.645 154.483C318.417 111.816 192.181 -24.4855 37.9389 -151.498C27.901 -159.795 17.4072 -167.619 6.61631 -175.14C-98.3024 -248.352 -230.531 -289.826 -324.221 -375.192C-396.453 -441.011 -493.347 -493.384 -588.367 -487.334C-659.41 -482.815 -718.218 -446.299 -772.179 -401.2Z" fill="#001F9A"/>
<path opacity="0.7" d="M-769.301 -398.542C-837.661 -342.988 -885.004 -260.531 -914.665 -174.182C-964.406 -29.3013 -979.94 129.117 -957.974 279.995C-936.007 430.833 -874.211 572.155 -776.298 688.868C-634.198 858.218 -396.319 928.078 -188.021 898.456C-57.842 879.937 74.8776 843.629 182.08 762.717C187.65 758.534 193.184 754.254 198.7 749.915C246.976 712.226 293.124 672.09 352.281 653.894C411.46 635.564 476.104 650.93 530.117 611.054C632.614 535.388 733.558 278.418 607.358 189.726C578.891 169.728 543.771 162.183 509.77 154.799C314.753 113.007 191.052 -24.9953 36.7557 -151.352C26.7358 -159.59 16.2399 -167.317 5.42753 -174.743C-99.5573 -246.776 -233.83 -285.146 -327.348 -369.599C-398.628 -433.984 -493.73 -485.213 -587.176 -480.345C-657.096 -476.689 -715.606 -442.177 -769.301 -398.542Z" fill="#001F9A"/>
<path opacity="0.72" d="M-766.442 -395.904C-835.829 -341.07 -883.373 -258.327 -913.192 -171.808C-963.19 -26.7011 -978.733 132.123 -956.523 283.316C-934.331 434.469 -872.155 576.071 -773.504 692.626C-633.668 857.882 -401.541 927.26 -197.191 901.066C-65.0367 884.121 69.3983 848.066 177.261 765.37C182.853 761.091 188.427 756.715 193.965 752.261C242.437 713.668 288.715 672.084 348.41 653.224C408.165 634.23 473.608 650.156 528.061 609.652C629.941 533.895 729.426 277.317 603.284 189.458C574.832 169.634 539.805 162.265 505.876 155.057C311.072 114.121 189.905 -25.5633 35.535 -151.244C25.533 -159.424 15.0348 -167.055 4.18099 -174.365C-100.89 -245.202 -237.188 -280.486 -330.533 -364.045C-400.841 -426.978 -494.189 -477.083 -586.041 -473.395C-654.858 -470.623 -713.051 -438.115 -766.461 -395.904L-766.442 -395.904Z" fill="#001F9A"/>
<path opacity="0.74" d="M-763.564 -393.246C-833.997 -339.171 -881.723 -256.104 -911.7 -169.434C-961.955 -24.1007 -977.488 135.13 -955.073 286.656C-932.656 438.124 -870.1 580.005 -770.729 696.403C-633.158 857.565 -406.804 926.538 -206.4 903.714C-72.2733 888.439 63.8981 852.559 172.421 768.081C178.054 763.706 183.631 759.233 189.209 754.683C237.876 715.205 284.285 672.136 344.536 652.631C404.868 632.974 471.11 649.441 525.984 608.328C627.248 532.46 725.253 276.311 599.188 189.266C570.751 169.636 535.817 162.443 501.981 155.392C307.37 115.33 188.775 -26.0537 34.332 -151.079C24.348 -159.201 13.8287 -166.755 2.97222 -173.949C-102.164 -243.607 -240.507 -275.807 -333.68 -358.433C-403.035 -419.932 -494.592 -468.913 -584.85 -466.387C-652.544 -464.498 -710.439 -433.994 -763.564 -393.227L-763.564 -393.246Z" fill="#001F9A"/>
<path opacity="0.76" d="M-760.685 -390.607C-832.183 -337.33 -880.092 -253.881 -910.208 -167.078C-960.719 -21.5001 -976.262 138.117 -953.622 289.958C-930.981 441.76 -868.064 583.92 -767.934 700.142C-632.627 857.21 -412.087 925.855 -215.569 906.305C-79.4712 892.759 58.4189 856.996 167.602 770.715C173.256 766.263 178.875 761.676 184.475 757.029C233.336 716.647 279.857 672.13 340.665 651.961C401.592 631.641 468.615 648.648 523.928 606.907C624.575 530.947 721.121 275.19 595.133 188.998C566.711 169.561 531.87 162.525 498.127 155.65C303.727 116.464 187.667 -26.6402 33.1698 -150.99C23.2038 -159.053 12.6822 -166.51 1.78478 -173.609C-103.418 -242.089 -243.785 -271.203 -336.806 -352.917C-405.188 -412.982 -494.993 -460.82 -583.657 -459.456C-650.228 -458.449 -707.844 -429.989 -760.685 -390.607Z" fill="#001F9A"/>
<path opacity="0.78" d="M-757.808 -387.949C-830.37 -335.47 -878.441 -251.657 -908.716 -164.684C-959.465 -18.8797 -975.017 141.143 -952.152 293.299C-929.287 445.415 -866.009 587.874 -765.141 703.92C-632.137 856.931 -417.373 925.268 -224.74 908.954C-86.6733 897.252 52.9571 861.491 162.801 773.427C168.496 768.88 174.136 764.195 179.758 759.434C228.795 718.166 275.465 672.182 336.83 651.35C398.334 630.366 466.175 647.934 521.909 605.565C621.939 529.513 717.025 274.167 591.096 188.788C562.689 169.526 527.94 162.685 494.271 155.967C300.083 117.636 186.557 -27.1494 32.0053 -150.824C22.0573 -158.828 11.5339 -166.208 0.595189 -173.192C-104.674 -240.494 -247.066 -266.522 -339.954 -347.305C-407.363 -405.935 -495.396 -452.63 -582.467 -452.447C-647.915 -452.304 -705.251 -425.906 -757.789 -387.929L-757.808 -387.949Z" fill="#001F9A"/>
<path opacity="0.8" d="M-754.949 -385.291C-828.594 -333.65 -876.81 -249.434 -907.244 -162.31C-958.249 -16.2795 -973.811 144.169 -950.721 296.619C-927.63 449.051 -864.032 591.845 -762.385 707.677C-631.686 856.633 -422.737 924.738 -233.947 911.564C-93.934 901.782 47.4586 865.927 157.943 776.079C163.66 771.436 169.34 766.656 174.984 761.798C224.216 719.626 271.017 672.195 332.919 650.699C394.999 629.052 463.64 647.179 519.795 604.181C619.208 528.058 712.834 273.084 586.983 188.538C558.59 169.469 523.934 162.786 490.358 156.244C296.382 118.788 185.41 -27.698 30.7847 -150.717C20.8542 -158.643 10.3096 -165.947 -0.631326 -172.833C-105.985 -238.958 -250.383 -261.9 -343.118 -341.771C-409.555 -398.986 -495.831 -444.692 -581.312 -445.517C-645.635 -446.392 -702.693 -421.94 -754.949 -385.311L-754.949 -385.291Z" fill="#001F9A"/>
<path opacity="0.83" d="M-752.071 -382.653C-826.817 -331.888 -875.16 -247.21 -905.751 -159.955C-957.014 -13.6788 -972.565 147.156 -949.27 299.94C-925.955 452.706 -862.035 595.817 -759.591 711.455C-631.196 856.373 -428.103 924.284 -243.137 914.193C-101.179 906.448 41.9586 870.401 153.104 778.752C158.861 774.012 164.564 769.136 170.23 764.163C219.656 721.086 266.568 672.208 329.047 650.048C391.703 627.737 461.162 646.426 517.738 602.78C616.554 526.565 708.682 272.001 582.908 188.289C554.53 169.394 519.967 162.887 486.484 156.502C292.719 119.921 184.282 -28.2656 29.5828 -150.609C19.6703 -158.478 9.12397 -165.703 -1.85882 -172.456C-107.279 -237.402 -253.701 -257.278 -346.284 -336.198C-411.729 -391.998 -496.253 -436.541 -580.159 -438.548C-643.359 -440.287 -700.156 -417.937 -752.09 -382.653L-752.071 -382.653Z" fill="#001F9A"/>
<path opacity="0.85" d="M-749.193 -379.995C-825.059 -330.146 -873.51 -244.987 -904.26 -157.562C-955.779 -11.0594 -971.34 150.182 -947.801 303.281C-924.261 456.361 -860.04 599.827 -756.797 715.232C-630.727 856.132 -432.86 900.099 -252.308 916.841C-108.943 930.13 36.4972 874.896 148.303 781.463C154.081 776.647 159.825 771.656 165.513 766.586C215.134 722.625 262.177 672.28 325.193 649.455C388.425 626.481 458.703 645.73 515.68 601.456C613.898 525.169 704.547 270.996 578.831 188.097C550.469 169.396 515.979 163.065 482.589 156.836C289.036 121.131 183.132 -28.7568 28.3799 -150.444C18.466 -158.255 7.95663 -165.402 -3.06747 -172.039C-108.433 -236.018 -257 -252.637 -349.431 -330.586C-413.904 -384.952 -496.675 -428.353 -578.968 -431.54C-641.065 -434.162 -697.581 -413.894 -749.193 -379.976L-749.193 -379.995Z" fill="#001F9A"/>
<path opacity="0.87" d="M-746.334 -377.357C-823.32 -328.442 -871.898 -242.784 -902.786 -155.207C-954.543 -8.47798 -970.113 153.169 -946.369 306.582C-922.624 459.976 -858.102 603.817 -754.022 718.971C-630.294 855.853 -438.242 902.874 -261.496 919.432C-116.32 933.033 30.9986 879.332 143.465 784.097C149.284 779.185 155.03 774.097 160.759 768.932C210.556 724.065 257.748 672.274 321.302 648.785C385.11 625.148 456.207 644.957 513.605 600.054C611.226 523.676 700.396 269.894 574.757 187.828C546.41 169.322 512.013 163.147 478.715 157.095C285.355 122.244 182.024 -29.3431 27.1981 -150.355C17.3023 -158.107 6.77175 -165.178 -4.27439 -171.7C-109.725 -234.481 -260.278 -248.053 -352.576 -325.07C-416.057 -378.04 -497.076 -420.259 -577.794 -424.629C-638.768 -428.114 -695.023 -409.986 -746.333 -377.376L-746.334 -377.357Z" fill="#001F9A"/>
<path opacity="0.89" d="M-743.456 -374.699C-821.58 -326.758 -870.248 -240.561 -901.294 -152.832C-953.308 -5.85816 -968.887 156.175 -944.919 309.923C-920.949 463.631 -856.166 607.884 -751.247 722.748C-629.883 855.63 -443.726 905.821 -270.686 922.081C-123.677 935.879 25.5183 883.807 138.645 786.789C144.486 781.78 150.272 776.617 156.023 771.316C206.015 725.565 253.338 672.306 317.448 648.154C381.853 623.854 453.748 644.223 511.548 598.691C608.571 522.241 696.262 268.85 570.681 187.618C542.349 169.285 508.044 163.306 474.84 157.411C281.692 123.436 180.895 -29.8528 26.0147 -150.189C16.1367 -157.883 5.60399 -164.857 -5.48302 -171.283C-111.02 -232.868 -263.558 -243.41 -355.743 -319.459C-418.25 -371.014 -497.498 -412.07 -576.623 -417.601C-636.474 -421.969 -692.466 -405.982 -743.456 -374.679L-743.456 -374.699Z" fill="#001F9A"/>
<path opacity="0.91" d="M-740.578 -372.06C-819.838 -325.131 -868.598 -238.337 -899.803 -150.458C-952.073 -3.25718 -967.662 159.182 -943.449 313.245C-919.255 467.287 -854.229 611.932 -748.434 726.508C-629.414 855.409 -449.309 908.883 -279.855 924.691C-130.992 938.571 20.0382 888.263 133.825 789.462C139.707 784.358 145.515 779.098 151.307 773.702C201.493 727.046 248.927 672.34 313.595 647.523C378.576 622.56 451.309 643.509 509.511 597.31C605.935 520.788 692.148 267.769 566.626 187.369C538.308 169.231 504.096 163.408 470.965 157.688C278.029 124.588 179.767 -30.4008 24.8323 -150.081C14.9724 -157.716 4.41841 -164.614 -6.67135 -170.924C-112.294 -231.311 -266.797 -238.844 -358.869 -313.923C-420.384 -364.082 -497.899 -403.957 -575.43 -410.67C-634.159 -415.901 -689.869 -402.073 -740.578 -372.06Z" fill="#001F9A"/>
<path opacity="0.93" d="M-737.7 -369.402C-818.115 -323.525 -866.947 -236.113 -898.33 -148.084C-950.857 -0.657112 -966.436 162.208 -942.017 316.565C-917.598 470.922 -852.351 616.018 -745.678 730.265C-629.042 855.205 -455.069 912.075 -289.064 927.32C-138.324 941.147 14.5387 892.738 128.987 792.134C134.889 786.953 140.739 781.578 146.552 776.086C196.934 728.526 244.498 672.372 309.723 646.892C375.279 621.265 448.831 642.774 507.434 595.947C603.281 519.354 687.976 266.725 562.55 187.139C534.248 169.194 500.129 163.548 467.091 157.985C274.366 125.76 178.658 -30.9294 23.6304 -149.954C13.7885 -157.531 3.23215 -164.332 -7.89848 -170.546C-113.607 -229.737 -270.075 -234.26 -362.035 -308.35C-422.557 -357.113 -498.321 -395.788 -574.277 -403.701C-631.883 -409.815 -687.329 -398.166 -737.719 -369.421L-737.7 -369.402Z" fill="#001F9A"/>
<path opacity="0.96" d="M-734.841 -366.744C-816.43 -321.978 -865.336 -233.891 -896.857 -145.71C-949.641 1.96226 -965.23 165.214 -940.586 319.886C-915.942 474.557 -850.493 620.121 -742.922 734.022C-628.669 855.001 -460.967 915.38 -298.272 929.93C-145.633 943.588 9.03961 897.193 124.129 794.786C130.073 789.51 135.943 784.038 141.779 778.431C192.355 729.985 240.05 672.366 305.812 646.221C371.945 619.931 446.334 642.02 505.34 594.545C600.588 517.879 683.805 265.622 558.437 186.889C530.15 169.118 496.123 163.648 463.158 158.261C270.646 126.892 177.471 -31.479 22.3899 -149.829C12.5655 -157.328 2.00752 -164.051 -9.14514 -170.15C-114.939 -228.144 -273.372 -229.677 -365.22 -302.758C-424.731 -350.125 -498.762 -387.618 -573.124 -396.713C-629.608 -403.69 -684.79 -394.24 -734.861 -366.744L-734.841 -366.744Z" fill="#001F9A"/>
<path opacity="0.98" d="M-731.963 -364.105C-814.725 -320.469 -863.685 -231.687 -895.365 -143.335C-948.386 4.56315 -963.984 168.22 -939.116 323.226C-914.248 478.213 -848.617 624.264 -740.109 737.8C-628.241 854.856 -467.222 922.428 -307.442 932.559C-152.625 942.381 3.55913 901.668 119.309 797.478C125.274 792.105 131.186 786.538 137.043 780.834C187.795 731.484 235.62 672.417 301.959 645.609C368.668 618.655 443.951 641.404 503.301 593.201C598.065 516.583 679.69 264.598 554.4 186.679C526.127 169.102 492.194 163.789 459.322 158.578C267.002 128.084 176.381 -32.0073 21.2453 -149.681C11.4388 -157.122 0.859739 -163.768 -10.315 -169.752C-116.195 -226.549 -276.493 -225.224 -368.328 -297.184C-426.786 -343.25 -499.145 -379.467 -571.913 -389.743C-627.274 -397.584 -682.173 -390.35 -731.963 -364.105Z" fill="#001F9A"/>
<path d="M550.325 186.449C522.067 169.066 488.226 163.929 455.447 158.875C263.339 129.256 175.253 -32.5361 20.0623 -149.535C-82.3465 -226.729 -270.123 -213.01 -371.475 -291.591C-472.827 -370.173 -614.624 -419.296 -729.066 -361.427C-812.999 -318.997 -862.016 -229.424 -893.854 -140.941C-947.132 7.18357 -962.739 171.247 -937.647 326.567C-912.554 481.888 -846.78 628.445 -737.315 741.578C-627.85 854.711 -473.1 922.35 -316.612 935.208C-160.125 948.066 -1.90173 906.143 114.508 800.171C172.456 747.43 223.497 675.636 298.105 644.998C365.391 617.38 441.455 640.631 501.245 591.839C595.336 515.05 675.557 263.536 550.325 186.449Z" fill="#001F9A"/>
<path d="M-726.422 -354.559C-612.349 -413.19 -470.75 -366.335 -368.451 -289.394C-266.829 -212.469 -80.8578 -225.051 21.1707 -148.136C175.411 -31.8559 263.244 129.156 451.562 161.279C483.692 166.782 516.846 172.348 544.461 189.929C666.894 268.478 587.082 517.353 492.925 594.488C433.941 642.699 358.978 620.364 292.587 647.77C218.951 678.16 168.305 748.764 110.88 800.647C-4.36708 904.867 -160.641 946.139 -315.297 933.537C-471.538 920.878 -625.731 853.367 -734.836 740.591C-843.942 627.815 -909.491 481.552 -933.97 326.459C-958.477 172.564 -942.678 10.2454 -889.651 -136.241C-857.951 -223.78 -809.306 -312.279 -726.402 -354.559L-726.422 -354.559Z" fill="#051F9C"/>
<path d="M-723.758 -347.671C-609.889 -406.694 -468.434 -362.8 -365.428 -287.177C-263.315 -212.213 -79.37 -223.334 22.2593 -146.718C175.549 -31.1563 263.129 129.096 447.637 163.702C479.139 169.635 511.627 175.572 538.559 193.427C658.491 273.021 578.789 519.674 484.566 597.156C426.37 644.786 352.545 623.386 287.01 650.58C214.347 680.741 164.115 750.137 107.213 801.162C-6.87145 903.611 -161.217 944.27 -314.021 931.884C-469.996 919.444 -623.67 852.062 -732.396 739.623C-841.142 627.184 -906.466 481.236 -930.332 326.389C-954.234 173.92 -938.263 13.3456 -885.486 -131.523C-853.944 -218.118 -805.524 -305.288 -723.777 -347.672L-723.758 -347.671Z" fill="#0B1F9E"/>
<path d="M-721.114 -340.784C-607.521 -400.412 -466.276 -359.095 -362.424 -284.961C-259.921 -211.787 -77.9008 -221.637 23.3487 -145.32C175.669 -30.4961 262.996 128.996 443.734 166.087C474.587 172.45 506.408 178.796 532.676 196.907C649.969 277.754 570.517 521.976 476.227 599.805C418.837 646.854 346.112 626.389 281.472 653.352C209.782 683.265 159.946 751.471 103.585 801.657C-9.33655 902.335 -161.734 942.363 -312.706 930.232C-468.434 917.991 -621.55 850.738 -729.918 738.656C-838.304 626.573 -903.093 480.87 -926.636 326.301C-949.642 175.225 -933.771 16.4277 -881.264 -126.803C-849.86 -212.434 -801.757 -298.432 -721.095 -340.764L-721.114 -340.784Z" fill="#101FA1"/>
<path d="M-718.45 -333.896C-605.153 -394.111 -464.1 -355.39 -359.4 -282.745C-256.546 -211.38 -76.4126 -219.92 24.4377 -143.903C175.808 -29.7968 262.883 128.916 439.829 168.51C470.034 175.322 501.188 182.059 526.793 200.405C641.446 282.525 562.413 524.515 467.869 602.473C411.379 649.059 339.66 629.41 275.915 656.162C205.178 685.846 155.776 752.844 99.9184 802.172C-11.8405 901.078 -162.308 940.474 -311.431 928.599C-466.892 916.558 -619.47 849.433 -727.478 737.707C-835.486 625.962 -899.972 480.575 -922.999 326.23C-945.322 176.563 -929.356 19.5275 -877.099 -122.065C-845.833 -206.752 -798.048 -291.559 -718.451 -333.857L-718.45 -333.896Z" fill="#1520A3"/>
<path d="M-715.786 -327.008C-602.765 -387.829 -461.923 -351.685 -356.357 -280.528C-253.153 -210.953 -74.9052 -218.222 25.5455 -142.485C175.946 -29.0976 262.768 128.855 435.943 170.933C465.5 178.175 495.987 185.322 520.929 203.905C632.96 287.317 554.196 526.876 459.549 605.141C403.884 651.167 333.266 632.433 270.396 658.954C200.631 688.389 151.624 754.217 96.3094 802.668C-14.3064 899.822 -162.806 938.586 -310.096 926.928C-465.312 915.105 -617.351 848.109 -724.999 736.72C-832.648 625.331 -896.812 480.223 -919.322 326.122C-940.962 177.863 -924.882 22.5706 -872.896 -117.385C-841.767 -201.128 -794.3 -284.762 -715.786 -327.008Z" fill="#1A20A5"/>
<path d="M-713.123 -320.12C-600.397 -381.547 -459.766 -347.98 -353.334 -278.311C-249.778 -210.507 -73.417 -216.505 26.6543 -141.086C176.105 -28.4361 262.674 128.757 432.04 173.318C460.948 181.009 490.768 188.566 515.047 207.365C624.437 292.07 545.962 529.219 451.211 607.771C396.371 653.236 326.834 635.416 264.859 661.707C196.067 690.914 147.474 755.532 92.6824 803.125C-16.7706 898.508 -163.322 936.641 -308.781 925.238C-463.749 913.614 -615.23 846.747 -722.52 735.714C-829.809 624.682 -893.67 479.87 -915.645 326.015C-936.622 179.163 -920.427 25.633 -868.692 -112.685C-837.702 -195.464 -790.551 -277.945 -713.122 -320.139L-713.123 -320.12Z" fill="#2020A7"/>
<path d="M-710.459 -313.232C-598.009 -375.266 -457.609 -344.256 -350.31 -276.094C-246.404 -210.08 -71.9284 -214.808 27.7433 -139.668C176.224 -27.7374 262.56 128.677 428.135 175.741C456.414 183.862 485.548 191.829 509.164 210.864C615.932 296.881 537.726 531.58 442.872 610.439C388.858 655.343 320.401 638.438 259.321 664.517C191.501 693.495 143.323 756.905 89.0348 803.64C-19.2553 897.251 -163.877 934.752 -307.485 923.605C-462.188 912.2 -613.131 845.461 -720.061 734.766C-826.971 624.071 -890.53 479.556 -911.968 325.945C-932.263 180.521 -915.974 28.7334 -864.489 -107.946C-833.637 -189.781 -786.803 -271.109 -710.459 -313.232Z" fill="#2520A9"/>
<path d="M-707.796 -306.344C-595.641 -368.984 -455.471 -340.551 -347.287 -273.858C-243.05 -209.616 -70.4408 -213.091 28.8505 -138.231C176.382 -27.0376 262.444 128.635 424.249 178.184C451.879 186.754 480.346 195.13 503.3 214.382C607.445 301.731 529.509 533.98 434.551 613.127C381.362 657.47 314.006 641.48 253.782 667.328C186.935 696.058 139.152 758.278 85.4056 804.174C-21.7221 896.033 -164.369 932.594 -306.191 921.991C-460.62 910.438 -611.051 844.175 -717.603 733.837C-824.154 623.498 -887.391 479.281 -908.312 325.895C-927.943 181.878 -911.521 31.8535 -860.306 -103.208C-829.592 -184.099 -783.095 -264.274 -707.816 -306.306L-707.796 -306.344Z" fill="#2A20AC"/>
<path d="M-705.132 -299.456C-593.272 -362.721 -453.333 -336.827 -344.244 -271.641C-239.695 -209.17 -68.9334 -211.373 29.9591 -136.832C176.521 -26.3574 262.35 128.536 420.344 180.588C447.327 189.588 475.126 198.393 497.417 217.862C598.94 306.542 521.255 536.322 426.212 615.776C373.829 659.558 307.574 644.483 248.244 670.119C182.35 698.62 135.002 759.632 81.7583 804.67C-24.2067 894.758 -164.923 930.648 -304.895 920.32C-459.077 908.946 -608.951 842.832 -715.143 732.85C-821.335 622.848 -884.269 478.948 -904.655 325.806C-923.623 183.216 -907.086 34.9345 -856.122 -98.4894C-825.547 -178.416 -779.366 -257.458 -705.152 -299.418L-705.132 -299.456Z" fill="#3020AE"/>
<path d="M-702.468 -292.568C-590.903 -356.479 -451.196 -333.104 -341.221 -269.424C-236.36 -208.706 -67.4644 -209.676 31.0672 -135.414C176.679 -25.6578 262.359 128.13 416.459 182.992C442.814 192.383 469.925 201.657 491.554 221.342C590.454 311.372 513.039 538.664 417.892 618.425C366.335 661.646 301.161 647.486 242.726 672.892C177.805 701.144 130.851 760.986 78.1501 805.147C-26.652 893.463 -165.42 928.702 -303.561 918.649C-457.475 907.436 -606.812 841.508 -712.644 731.863C-818.477 622.218 -881.109 478.596 -900.939 325.699C-919.263 184.516 -902.593 37.978 -851.88 -93.7887C-821.442 -172.771 -775.597 -250.661 -702.449 -292.549L-702.468 -292.568Z" fill="#3520B0"/>
<path d="M-699.805 -285.68C-588.535 -350.216 -449.078 -329.361 -338.197 -267.207C-233.024 -208.261 -65.9763 -207.959 32.1561 -133.996C176.798 -24.9779 262.265 128.032 412.554 185.415C438.261 195.236 464.705 204.939 485.671 224.841C581.967 316.242 504.804 541.026 409.534 621.094C358.783 663.734 294.728 650.508 237.169 675.702C173.219 703.726 126.68 762.359 74.5024 805.662C-29.1373 892.226 -165.975 926.795 -302.265 917.016C-455.933 905.983 -604.732 840.203 -710.186 730.915C-815.64 621.627 -877.988 478.301 -897.283 325.629C-914.943 185.874 -898.139 41.0791 -847.696 -89.0695C-817.397 -167.088 -771.868 -243.864 -699.805 -285.661L-699.805 -285.68Z" fill="#3A20B2"/>
<path d="M-697.141 -278.793C-586.165 -343.973 -446.96 -325.619 -335.174 -264.991C-229.69 -207.778 -64.4879 -206.262 33.2646 -132.598C176.957 -24.2978 262.17 127.933 408.669 187.819C433.747 198.07 459.503 208.221 479.807 228.32C573.48 321.11 496.568 543.367 401.214 623.742C351.289 665.821 288.315 653.491 231.65 678.474C168.673 706.269 122.53 763.693 70.8743 806.157C-31.6026 890.95 -166.491 924.868 -300.95 915.344C-454.351 904.492 -602.612 838.86 -707.707 729.928C-812.801 620.977 -874.847 477.967 -893.606 325.521C-910.622 187.192 -893.685 44.1407 -843.493 -84.37C-813.332 -161.444 -768.138 -237.087 -697.141 -278.793Z" fill="#3F21B4"/>
<path d="M-694.478 -271.904C-583.796 -337.73 -444.862 -321.876 -332.131 -262.774C-226.355 -207.314 -62.9809 -204.544 34.3726 -131.18C177.095 -23.6175 262.095 127.834 404.765 190.223C429.194 200.904 454.283 211.484 473.905 231.799C564.954 325.979 488.314 545.709 392.856 626.391C343.737 667.889 281.863 656.494 226.074 681.265C164.07 708.812 118.341 765.046 67.2075 806.652C-34.1066 889.674 -167.046 922.941 -299.674 913.692C-452.827 903 -600.531 837.555 -705.266 728.941C-810.001 620.346 -871.765 477.633 -889.968 325.431C-906.34 188.51 -889.25 47.2219 -839.328 -79.6515C-809.305 -155.782 -764.447 -230.291 -694.517 -271.886L-694.478 -271.904Z" fill="#4521B7"/>
<path d="M-691.814 -265.016C-581.427 -331.507 -442.744 -318.114 -329.107 -260.557C-223.04 -206.83 -61.4924 -202.847 35.4808 -129.762C177.253 -22.9177 262.02 127.736 400.879 192.647C424.66 203.758 449.062 214.786 468.041 235.299C556.466 330.887 480.098 548.071 384.536 629.06C336.242 669.997 275.469 659.517 220.555 684.057C159.504 711.374 114.209 766.401 63.5795 807.148C-36.5718 888.399 -167.582 921.033 -298.36 912.04C-451.246 901.528 -598.431 836.23 -702.788 727.973C-807.144 619.716 -868.624 477.319 -886.272 325.343C-902 189.848 -884.777 50.3037 -835.086 -74.9506C-805.201 -150.117 -760.679 -223.532 -691.795 -265.016L-691.814 -265.016Z" fill="#4A21B9"/>
<path d="M-689.17 -258.129C-579.096 -325.284 -440.684 -314.373 -326.103 -258.341C-219.763 -206.348 -60.0237 -201.13 36.5508 -128.364C177.354 -22.2385 261.888 127.617 396.956 195.05C420.107 206.61 443.822 218.067 462.139 238.778C547.92 335.794 471.824 550.412 376.178 631.708C328.69 672.065 269.018 662.519 214.998 686.828C154.92 713.898 109.945 767.636 59.9327 807.624C-39.2252 886.906 -168.116 919.087 -297.063 910.349C-449.702 900.017 -596.33 834.868 -700.327 726.967C-804.325 619.066 -865.522 476.966 -882.614 325.215C-897.718 191.147 -880.342 53.346 -830.901 -70.2705C-801.155 -144.493 -756.986 -216.794 -689.149 -258.167L-689.17 -258.129Z" fill="#4F21BB"/>
<path d="M-686.506 -251.241C-576.726 -319.06 -438.587 -310.592 -323.08 -256.124C-216.468 -205.846 -58.5352 -199.432 37.6589 -126.946C177.512 -21.5578 261.812 127.538 393.051 197.454C415.555 209.444 438.602 221.35 456.257 242.257C539.412 340.721 463.57 552.753 367.839 634.358C321.158 674.153 262.585 665.522 209.461 689.62C150.354 716.46 105.775 768.99 56.3043 808.14C-41.71 885.65 -168.652 917.18 -295.749 908.717C-448.141 898.565 -594.231 833.583 -697.849 726.02C-801.487 618.475 -862.401 476.671 -878.938 325.166C-893.398 192.523 -875.869 56.4474 -826.699 -65.5124C-797.09 -138.79 -753.257 -209.978 -686.487 -251.24L-686.506 -251.241Z" fill="#5521BD"/>
<path d="M-683.842 -244.353C-574.375 -312.857 -436.508 -306.832 -320.037 -253.907C-213.153 -205.344 -57.028 -197.716 38.767 -125.528C177.65 -20.859 261.736 127.458 389.165 199.878C411.021 212.297 433.4 224.651 450.393 245.756C530.904 345.666 455.354 555.095 359.5 637.025C313.625 676.24 256.171 668.543 203.922 692.411C145.789 719.022 101.624 770.343 52.6569 808.635C-44.1947 884.373 -169.188 915.272 -294.453 907.064C-446.579 897.092 -592.131 832.258 -695.39 725.051C-798.668 617.844 -859.3 476.356 -875.261 325.076C-889.097 193.86 -871.415 59.5282 -822.495 -60.813C-793.025 -133.127 -749.546 -203.24 -683.823 -244.372L-683.842 -244.353Z" fill="#5A21BF"/>
<path d="M-681.179 -237.465C-572.025 -306.652 -434.431 -303.032 -317.013 -251.691C-209.858 -204.823 -55.5398 -196.018 39.8753 -124.129C177.809 -20.1976 261.661 127.36 385.28 202.282C406.506 215.151 428.179 227.953 444.529 249.236C522.376 350.612 447.119 557.438 351.18 639.675C306.111 678.309 249.758 671.547 198.384 695.202C141.223 721.566 97.4541 771.697 49.0287 809.131C-46.66 883.098 -169.705 913.365 -293.138 905.393C-445.016 895.601 -590.011 830.915 -692.93 724.064C-795.83 617.214 -856.217 476.022 -871.604 324.968C-884.835 195.178 -866.98 62.5902 -818.311 -56.1133C-788.979 -127.483 -745.854 -196.502 -681.178 -237.484L-681.179 -237.465Z" fill="#5F21C2"/>
<path d="M-678.515 -230.577C-569.674 -300.468 -432.352 -299.251 -313.99 -249.455C-206.583 -204.283 -54.0712 -194.302 40.9636 -122.693C177.927 -19.4796 261.566 127.3 381.376 204.705C401.953 218.004 422.939 231.254 438.646 252.735C513.828 355.615 438.865 559.779 342.841 642.343C298.579 680.396 243.325 674.568 192.847 697.993C136.638 724.128 93.3032 773.05 45.3813 809.626C-49.1639 881.821 -170.26 911.438 -291.843 903.741C-443.454 894.129 -587.931 829.609 -690.471 723.096C-793.011 616.583 -853.135 475.726 -867.946 324.879C-880.553 196.515 -862.526 65.6712 -814.127 -51.3948C-784.934 -121.801 -742.162 -189.745 -678.515 -230.597L-678.515 -230.577Z" fill="#6421C4"/>
<path d="M-675.851 -223.689C-567.342 -294.284 -430.294 -295.452 -310.967 -247.238C-203.307 -203.762 -52.5829 -192.585 42.072 -121.275C178.085 -18.7797 261.471 127.22 377.471 207.128C397.42 220.857 417.717 234.575 432.763 256.253C505.28 360.619 430.61 562.159 334.501 645.031C291.045 682.503 236.912 677.61 187.308 700.823C132.073 726.71 89.1325 774.442 41.7522 810.18C-51.6297 880.584 -170.777 909.589 -290.548 902.147C-441.913 892.734 -585.832 828.343 -688.013 722.186C-790.194 616.03 -850.054 475.469 -864.291 324.867C-876.292 197.929 -858.093 68.8297 -809.945 -46.6178C-780.908 -116.08 -738.472 -182.93 -675.872 -223.651L-675.851 -223.689Z" fill="#6A22C6"/>
<path d="M-673.188 -216.801C-565.01 -288.099 -428.236 -291.633 -307.924 -245.021C-200.013 -203.221 -51.0752 -190.886 43.1805 -119.875C178.244 -18.1182 261.396 127.122 373.586 209.533C392.886 223.711 412.496 237.876 426.9 259.733C496.732 365.622 422.375 564.482 326.182 647.68C283.532 684.572 230.498 680.614 181.79 703.596C127.527 729.254 85.0016 775.778 38.1441 810.657C-54.075 879.29 -171.293 907.662 -289.214 900.476C-440.332 891.243 -583.693 827.02 -685.515 721.201C-787.336 615.381 -846.933 475.135 -860.575 324.76C-871.972 199.248 -853.58 71.8741 -805.703 -41.9167C-776.804 -110.435 -734.721 -176.21 -673.169 -216.781L-673.188 -216.801Z" fill="#6F22C8"/>
<path d="M-670.524 -209.913C-562.658 -281.934 -426.178 -287.815 -304.9 -242.804C-196.757 -202.662 -49.5871 -189.169 44.2694 -118.458C178.364 -17.4194 261.301 127.062 369.682 211.937C388.334 226.544 407.256 241.177 421.017 263.213C488.145 370.624 414.121 566.804 317.843 650.329C276 686.64 224.066 683.616 176.252 706.387C122.961 731.816 80.8316 777.131 34.4968 811.153C-56.5788 878.014 -171.829 905.755 -287.918 898.805C-438.769 889.771 -581.612 825.676 -683.055 720.213C-784.498 614.751 -843.85 474.82 -856.917 324.652C-867.709 200.565 -849.145 74.9356 -801.518 -37.2366C-772.758 -104.791 -731.048 -169.511 -670.524 -209.933L-670.524 -209.913Z" fill="#7422CA"/>
<path d="M-667.861 -203.025C-560.345 -275.79 -424.12 -283.977 -301.877 -240.588C-193.483 -202.103 -48.0992 -187.472 45.377 -117.04C178.521 -16.7392 261.206 126.982 365.776 214.36C383.799 229.417 402.015 244.517 415.133 266.711C479.557 375.665 405.847 569.145 309.484 652.997C268.447 688.727 217.633 686.638 170.694 709.178C118.376 734.358 76.6611 778.484 30.849 811.648C-59.0637 876.737 -172.385 903.866 -286.623 897.152C-437.228 888.317 -579.512 824.352 -680.596 719.245C-781.68 614.139 -840.788 474.504 -853.261 324.582C-863.448 201.94 -844.712 78.0356 -797.335 -32.4988C-768.713 -99.1088 -727.356 -162.754 -667.881 -203.007L-667.861 -203.025Z" fill="#7A22CD"/>
<path d="M-665.197 -196.138C-558.012 -269.625 -422.063 -280.139 -298.853 -238.371C-190.227 -201.544 -46.611 -185.755 46.4665 -115.642C178.641 -16.0597 261.111 126.902 361.872 216.763C379.247 232.25 396.755 247.817 409.251 270.191C470.931 380.686 397.594 571.448 301.145 655.646C260.896 690.775 211.201 689.621 165.138 711.949C113.773 736.901 72.4723 779.818 27.1825 812.143C-61.5673 875.461 -172.94 901.958 -285.347 895.499C-435.704 886.845 -577.432 823.046 -678.156 718.277C-778.88 613.508 -837.744 474.188 -849.604 324.493C-859.204 203.276 -840.258 81.1169 -793.151 -27.7801C-764.667 -93.4458 -723.683 -156.037 -665.217 -196.119L-665.197 -196.138Z" fill="#7F22CF"/>
<path d="M-662.533 -189.25C-555.699 -263.499 -420.024 -276.302 -295.81 -236.154C-186.953 -200.965 -45.1032 -184.057 47.594 -114.224C178.818 -15.3593 261.035 126.843 358.006 219.168C374.732 235.104 391.553 251.119 403.407 273.671C462.343 385.727 389.359 573.77 292.845 658.296C253.402 692.844 204.807 692.625 159.638 714.742C109.246 739.445 68.3602 781.173 23.5932 812.639C-63.9938 874.187 -173.438 900.052 -283.993 893.829C-434.084 885.374 -575.293 821.704 -675.638 717.291C-775.984 612.879 -834.642 473.873 -845.888 324.386C-854.903 204.594 -835.765 84.18 -788.908 -23.0985C-760.562 -87.8005 -719.951 -149.356 -662.514 -189.268L-662.533 -189.25Z" fill="#8422D1"/>
<path d="M-659.889 -182.362C-553.404 -257.374 -418.006 -272.426 -292.806 -233.938C-183.717 -200.387 -43.6346 -182.341 48.6634 -112.806C178.919 -14.6803 260.921 126.782 354.063 221.59C370.16 237.956 386.254 254.457 397.485 277.169C453.658 390.804 381.067 576.091 284.467 660.963C245.812 694.911 198.355 695.646 154.062 717.532C104.642 742.006 64.1511 782.545 19.9266 813.134C-66.4976 872.91 -173.993 898.163 -282.716 892.176C-432.561 883.92 -573.212 820.379 -673.198 716.323C-773.185 612.267 -831.598 473.557 -842.25 324.315C-850.68 205.968 -831.349 87.2604 -784.744 -18.3609C-756.536 -82.1186 -716.297 -142.619 -659.889 -182.362Z" fill="#8922D3"/>
<path d="M-657.225 -175.474C-551.109 -251.249 -415.949 -268.569 -289.783 -231.721C-180.463 -199.789 -42.1461 -180.643 49.7721 -111.408C179.077 -13.9996 260.826 126.703 350.178 223.995C365.627 240.81 381.014 257.778 391.622 280.649C445.012 395.863 372.813 578.414 276.148 663.612C238.299 696.98 191.942 698.649 148.543 720.324C100.096 744.57 60.0197 783.899 16.2987 813.63C-68.9631 871.654 -174.529 896.275 -281.402 890.525C-431 882.487 -571.093 819.075 -670.719 715.356C-770.346 611.637 -828.536 473.261 -838.574 324.227C-846.437 207.305 -826.876 90.3424 -780.541 -13.6415C-752.471 -76.4548 -712.624 -135.92 -657.225 -175.474Z" fill="#8F23D5"/>
<path d="M-654.562 -168.586C-548.814 -245.143 -413.912 -264.673 -286.759 -229.504C-177.208 -199.192 -40.6581 -178.926 50.8609 -109.99C179.197 -13.3202 260.711 126.661 346.274 226.399C361.074 243.662 375.754 261.078 385.72 284.128C436.308 400.921 364.521 580.716 267.79 666.261C230.728 699.028 185.49 701.651 142.987 723.095C95.5115 747.093 55.85 785.233 12.6513 814.126C-71.4477 870.378 -175.065 894.367 -280.106 888.853C-429.438 881.015 -569.012 817.731 -668.26 714.369C-767.527 611.006 -825.511 472.945 -834.897 324.119C-842.194 208.621 -822.422 93.4043 -776.337 -8.96106C-748.405 -70.8108 -708.93 -129.24 -654.561 -168.606L-654.562 -168.586Z" fill="#9423D7"/>
<path d="M-651.898 -161.698C-546.52 -239.037 -411.875 -260.797 -283.736 -227.288C-173.955 -198.575 -39.1895 -177.229 51.9686 -108.572C179.354 -12.6204 260.615 126.601 342.388 228.822C356.54 246.516 370.512 264.418 379.856 287.627C427.602 406.017 356.267 583.038 259.469 668.929C223.214 701.116 179.096 704.674 137.448 725.906C90.9259 749.674 51.6791 786.606 9.0225 814.641C-73.9137 869.122 -175.602 892.498 -278.792 887.221C-427.877 879.601 -566.893 816.426 -665.782 713.421C-764.671 610.396 -822.469 472.648 -831.221 324.049C-837.952 209.996 -817.968 96.505 -772.134 -4.22247C-744.341 -65.1278 -705.257 -122.522 -651.879 -161.698L-651.898 -161.698Z" fill="#9923DA"/>
<path d="M-649.235 -154.81C-544.243 -232.951 -409.839 -256.882 -280.693 -225.07C-170.681 -197.957 -37.6814 -175.531 53.0774 -107.173C179.493 -11.9401 260.52 126.541 338.484 231.226C352.006 249.369 365.233 267.738 373.973 291.107C418.879 411.074 347.975 585.32 251.112 671.578C215.644 703.164 172.644 707.676 131.891 728.678C86.342 752.198 47.5097 787.94 5.35654 815.117C-76.4169 867.826 -176.157 890.59 -277.515 885.549C-426.354 878.128 -564.812 815.102 -663.341 712.433C-761.871 609.765 -819.463 472.331 -827.583 323.96C-833.747 211.331 -813.534 99.5861 -767.97 0.496071C-740.315 -59.4456 -701.622 -115.844 -649.254 -154.811L-649.235 -154.81Z" fill="#9E23DC"/>
<path d="M-646.571 -147.903C-541.968 -226.845 -407.802 -252.948 -277.67 -222.815C-167.428 -197.301 -36.1944 -173.775 54.1847 -105.716C179.651 -11.2209 260.405 126.519 334.598 233.669C347.471 252.261 359.972 271.096 368.109 294.625C410.154 416.19 339.721 587.662 242.791 674.266C208.111 705.252 166.23 710.718 126.372 731.509C81.7949 754.8 43.377 789.353 1.74703 815.652C-78.8639 866.609 -176.675 888.742 -276.181 883.917C-424.755 876.715 -562.693 813.798 -660.844 711.486C-759.014 609.174 -816.401 472.035 -823.868 323.892C-829.485 212.688 -809.042 102.688 -763.728 5.21629C-736.211 -53.7811 -697.928 -109.144 -646.552 -147.922L-646.571 -147.903Z" fill="#A423DE"/>
<path d="M-643.908 -141.015C-539.711 -220.779 -405.767 -249.014 -274.647 -220.598C-164.174 -196.665 -34.7061 -172.078 55.2733 -104.299C179.77 -10.522 260.27 126.477 330.693 236.092C342.918 255.114 354.692 274.435 362.226 298.124C401.371 421.284 331.429 589.964 234.452 676.935C200.559 707.319 159.816 713.741 120.834 734.3C77.2292 757.362 39.2067 790.706 -1.90091 816.166C-81.3491 865.353 -177.213 886.892 -274.906 882.283C-423.233 875.3 -560.613 812.492 -658.424 710.537C-756.215 608.562 -813.435 471.756 -820.25 323.821C-825.301 214.061 -804.626 105.768 -759.583 9.95352C-732.204 -48.0996 -694.313 -102.447 -643.947 -141.016L-643.908 -141.015Z" fill="#A923E0"/>
<path d="M-641.244 -134.127C-537.472 -214.732 -403.731 -245.08 -271.623 -218.382C-160.921 -196.009 -33.2181 -170.361 56.3819 -102.9C179.928 -9.86104 260.175 126.417 326.788 238.496C338.365 257.967 349.413 277.754 356.343 301.604C392.57 426.359 323.137 592.246 226.113 679.583C193.008 709.368 153.384 716.743 115.296 737.072C72.6644 759.886 35.0564 792.041 -5.52849 816.643C-83.7949 864.077 -177.749 884.984 -273.591 880.612C-421.671 873.847 -558.513 811.168 -655.945 709.55C-753.377 607.932 -810.411 471.439 -816.573 323.732C-821.078 215.396 -800.173 108.85 -755.361 14.6731C-728.12 -42.4164 -690.639 -95.768 -641.264 -134.108L-641.244 -134.127Z" fill="#AE23E2"/>
<path d="M-638.581 -127.239C-535.234 -208.686 -401.695 -241.126 -268.58 -216.164C-157.649 -195.353 -31.7104 -168.663 57.49 -101.482C180.067 -9.1615 260.06 126.376 322.903 240.901C333.832 260.82 344.153 281.055 350.48 305.084C383.769 431.434 314.865 594.53 217.793 682.233C185.476 711.417 146.971 719.746 109.778 739.864C68.1181 762.449 30.9246 793.415 -9.13707 817.139C-86.2407 862.803 -178.246 883.097 -272.256 878.961C-420.091 872.434 -556.374 809.845 -653.446 708.564C-750.519 607.283 -807.387 471.123 -812.877 323.625C-816.854 216.732 -795.699 111.912 -751.138 19.3543C-724.035 -36.7908 -686.964 -89.127 -638.561 -127.258L-638.581 -127.239Z" fill="#B423E5"/>
<path d="M-635.917 -120.351C-532.995 -202.658 -399.66 -237.173 -265.557 -213.948C-154.395 -194.697 -30.2223 -166.946 58.5982 -100.064C180.225 -8.4617 259.926 126.314 319.018 243.324C329.298 263.674 338.873 284.394 344.616 308.583C374.948 436.527 306.573 596.832 209.473 684.902C177.944 713.485 140.577 722.769 104.24 742.655C63.5332 765.011 26.7739 794.768 -12.7843 817.635C-88.7256 861.546 -178.783 881.228 -270.96 877.289C-418.53 871 -554.274 808.521 -650.987 707.577C-747.7 606.652 -804.401 470.786 -809.2 323.517C-812.63 218.049 -791.225 114.975 -746.934 24.0542C-719.969 -31.1466 -683.309 -82.4674 -635.897 -120.389L-635.917 -120.351Z" fill="#B924E7"/>
<path d="M-633.253 -113.463C-530.775 -196.651 -397.624 -233.2 -262.533 -211.731C-151.143 -194.022 -28.734 -165.248 59.6873 -98.6658C180.345 -7.80127 259.792 126.253 315.113 245.728C324.745 266.527 333.594 287.713 338.734 312.062C366.089 441.581 298.262 599.095 201.115 687.55C170.373 715.533 134.125 725.752 98.6828 745.446C58.9488 767.554 22.6038 796.122 -16.4322 818.15C-91.1917 860.309 -179.339 879.379 -269.665 875.657C-416.989 869.605 -552.193 807.215 -648.528 706.628C-744.863 606.061 -801.435 470.507 -805.543 323.447C-808.445 219.422 -786.791 118.075 -742.751 28.7925C-715.924 -25.4446 -679.673 -75.7888 -633.253 -113.482L-633.253 -113.463Z" fill="#BE24E9"/>
<path d="M-630.59 -106.575C-528.575 -190.644 -395.589 -229.228 -259.51 -209.515C-147.89 -193.347 -27.246 -163.531 60.7954 -97.248C180.502 -7.10165 259.658 126.211 311.209 248.132C320.192 269.38 328.296 291.013 332.851 315.561C357.21 446.654 289.951 601.377 192.776 690.218C162.821 717.6 127.692 728.774 93.1448 748.237C54.3831 770.116 18.4332 797.495 -20.0796 818.645C-93.6767 859.052 -179.876 877.49 -268.37 874.004C-415.448 868.191 -550.093 805.891 -646.069 705.66C-742.044 605.43 -798.469 470.208 -801.886 323.377C-804.28 220.776 -782.356 121.156 -738.567 33.511C-711.878 -19.7817 -676.057 -69.1303 -630.609 -106.595L-630.59 -106.575Z" fill="#C324EB"/>
<path d="M-627.946 -99.6874C-526.412 -184.657 -393.555 -225.235 -256.486 -207.298C-144.638 -192.653 -25.7768 -161.834 61.8843 -95.8302C180.622 -6.42189 259.504 126.169 307.304 250.555C315.639 272.233 322.996 294.351 326.967 319.06C348.312 451.727 281.64 603.659 184.437 692.887C155.269 719.668 121.279 731.796 87.6065 751.048C49.8175 772.679 14.2816 798.887 -23.708 819.16C-96.1234 857.816 -180.413 875.641 -267.055 872.353C-413.868 866.777 -547.974 804.587 -643.59 704.693C-739.206 604.819 -795.484 469.891 -798.19 323.289C-800.057 222.112 -777.864 124.238 -734.344 38.2309C-707.813 -14.118 -672.401 -62.4705 -627.926 -99.687L-627.946 -99.6874Z" fill="#C924ED"/>
<path d="M-625.282 -92.7999C-524.25 -178.671 -391.501 -221.224 -253.463 -205.081C-141.366 -191.978 -24.2887 -160.137 62.9733 -94.4323C180.761 -5.74223 259.351 126.088 303.4 252.959C311.086 275.085 317.679 297.65 321.085 322.539C339.396 456.76 273.311 605.902 176.098 695.535C147.718 721.717 114.846 734.799 82.069 753.82C45.2523 775.222 10.1312 800.222 -27.3357 819.636C-98.5887 856.54 -180.93 873.753 -265.74 870.681C-412.307 865.363 -545.874 803.243 -641.111 703.706C-736.348 604.17 -792.537 469.572 -794.513 323.181C-795.872 223.446 -773.41 127.3 -730.141 42.9304C-703.748 -8.4548 -668.765 -55.8311 -625.243 -92.8183L-625.282 -92.7999Z" fill="#CE24F0"/>
<path d="M-622.618 -85.9119C-522.087 -172.722 -389.467 -217.212 -250.439 -202.865C-138.094 -191.264 -22.8006 -158.42 64.0816 -93.0142C180.899 -5.04281 259.217 126.046 299.495 255.363C306.533 277.938 312.38 300.969 315.202 326.019C330.461 461.773 264.981 608.145 167.759 698.184C140.148 723.745 108.414 737.801 76.5118 756.61C40.648 777.783 5.9607 801.594 -31.0027 820.151C-101.074 855.303 -181.506 871.902 -264.464 869.047C-410.786 863.986 -543.794 801.938 -638.671 702.757C-733.549 603.577 -789.609 469.273 -790.876 323.13C-791.726 224.818 -768.976 130.42 -725.977 47.6681C-699.722 -2.77278 -665.187 -49.1733 -622.618 -85.9119Z" fill="#D324F2"/>
<path d="M-619.955 -79.0239C-519.943 -166.775 -387.414 -213.181 -247.416 -200.648C-134.823 -190.55 -21.3123 -156.722 65.1702 -91.5967C181.038 -4.36279 258.829 126.057 295.59 257.786C301.921 280.809 307.081 304.288 309.319 329.517C321.505 466.825 256.652 610.388 159.42 700.853C132.596 725.813 102 740.824 70.9737 759.402C36.0827 780.327 1.80934 802.968 -34.6308 820.647C-103.521 854.067 -182.024 870.053 -263.149 867.376C-409.206 862.573 -541.674 800.614 -636.193 701.771C-730.711 602.947 -786.663 468.954 -787.199 323.022C-787.541 226.134 -764.522 133.482 -721.773 52.3681C-695.657 2.89084 -661.551 -42.5334 -619.954 -79.0432L-619.955 -79.0239Z" fill="#D924F4"/>
<path d="M-617.291 -72.1361C-517.818 -160.828 -385.342 -209.15 -244.374 -198.412C-131.533 -189.816 -19.8054 -154.986 66.2972 -90.159C181.196 -3.64378 258.754 125.997 291.724 260.229C297.426 283.682 301.801 307.627 303.474 333.036C312.589 471.858 248.341 612.67 151.118 703.56C125.063 727.9 95.6052 743.885 65.4736 762.233C31.5548 782.929 -2.30403 804.38 -38.2403 821.181C-105.968 852.869 -182.542 868.223 -261.816 865.764C-407.628 861.236 -539.556 799.329 -633.696 700.842C-727.855 602.356 -783.717 468.694 -783.485 322.973C-783.338 227.527 -760.03 136.603 -717.532 57.1268C-691.554 8.59384 -657.896 -35.8546 -617.253 -72.1159L-617.291 -72.1361Z" fill="#DE24F6"/>
<path d="M-469.274 74.6181C-370.955 -16.034 -238.527 -68.07 -95.6368 -61.0001C17.698 -55.3901 125.861 -18.593 211.184 45.6355C324.163 130.695 677.61 539.778 703 678.978C707.405 703.31 276.568 497.208 277.091 522.978C279.986 664.808 602.686 740.085 505.5 831.865C-45.1896 698.865 225.411 882.868 197.049 900.773C165.076 920.992 132.063 940.124 97.1546 955.15C31.8263 983.432 -40.9482 997.579 -116.554 995.417C-261.861 991.637 -392.685 929.658 -486.106 831.865C-579.527 734.072 -635.268 601.013 -633.5 455.773C-632.375 363.173 -608.471 275.723 -566.494 199.523C-540.792 152.898 -508.049 110.381 -469.275 74.6374L-469.274 74.6181Z" fill="#E825FB"/>
<path d="M-358.709 -266.69C-225.696 -282.853 -87.1894 -247.812 25.8704 -158.735C114.948 -88.109 178.514 5.08758 209.202 106.87C249.708 241.109 501.747 554.056 435.394 681.113C423.774 703.321 145.113 560.12 129.726 581.04C44.8067 696.496 813.994 1030.73 681.132 1047.84C648.688 1051.93 -281.3 787.385 -313.913 785.417C-350.75 783.201 -387.622 778.397 -423.747 769.484C-491.171 752.932 -556.297 721.976 -614.66 676.809C-729.55 588.177 -798.053 461.255 -815.507 327.652C-832.961 194.049 -799.536 53.9534 -711.582 -61.3885C-656.469 -134.042 -586.199 -188.791 -508.453 -224.276C-460.829 -246.006 -410.239 -260.429 -358.736 -266.686L-358.709 -266.69Z" fill="#00EAFF"/>
<line x1="643" y1="473.5" x2="949" y2="473.5" stroke="black"/>
</g>
<g opacity="0.39" filter="url(#filter1_f_307_29)">
<path d="M311.714 156.678C256.282 220.982 213.261 301.347 185.749 385.937C139.531 528.187 124.035 681.639 142.878 828.74C161.724 975.745 216.958 1114.8 305.858 1233.24C477.842 1462.39 799.134 1547.18 1061.67 1459.71C1164.93 1425.32 1272.77 1378.73 1370.77 1322.64C1375.9 1319.72 1381.02 1316.79 1386.17 1313.9C1431.71 1288.51 1476.12 1268.81 1527.56 1259.83C1578.64 1250.74 1632.33 1258.84 1680.1 1227.15C1791.73 1153.06 1912.7 888.644 1785.53 787.914C1756.83 765.183 1720.45 755.21 1685.23 745.457C1487.31 691.254 1328.01 576.57 1174.6 440.289C1164.37 431.156 1153.96 422.193 1143.51 413.229C1039.66 324.093 934.213 241.777 837.954 144.601C753.524 59.3535 633.249 -7.98286 517.577 13.7263C431.942 29.5291 368.081 91.2295 311.675 156.677L311.714 156.678Z" fill="#001F9A"/>
</g>
<g filter="url(#filter2_f_307_29)">
<path d="M2548.83 132.134C2486.13 282.295 2367.02 407.137 2207.07 472.294C2080.58 523.36 1945.92 533.794 1822 504.322C1658.55 465.485 1512.87 361.386 1420.71 214.168C1404.61 188.412 1390.11 161.274 1377.6 132.327C1308.57 -27.4308 465.799 39.5001 527.433 -111.077C542.574 -147.793 1021.99 -390.687 1142.21 -442.67C1229.42 -454.691 1432.81 -485.586 1463.64 -518.284C1521.1 -579.364 1748.07 -424.807 1829.8 -458.937C1990.38 -526.297 2056.18 -773.766 2205.21 -710.994C2354.23 -648.222 2479.59 -527.823 2546.69 -364.933C2589.13 -262.635 2603.94 -155.225 2594.3 -51.6335C2588.39 11.8186 2573.12 73.96 2548.84 132.103L2548.83 132.134Z" fill="#EE25FD"/>
</g>
<g filter="url(#filter3_b_307_29)">
<rect x="563" y="521" width="80" height="80" fill="white" fill-opacity="0.1"/>
<rect x="563" y="521" width="80" height="80" stroke="url(#paint0_linear_307_29)" stroke-opacity="0.3"/>
</g>
<g filter="url(#filter4_b_307_29)">
<rect x="1803" y="203" width="80" height="80" fill="white" fill-opacity="0.1"/>
<rect x="1803" y="203" width="80" height="80" stroke="url(#paint1_linear_307_29)" stroke-opacity="0.3"/>
</g>
<g filter="url(#filter5_b_307_29)">
<rect x="79" y="122" width="80" height="80" fill="white" fill-opacity="0.1"/>
<rect x="79" y="122" width="80" height="80" stroke="url(#paint2_linear_307_29)" stroke-opacity="0.3"/>
</g>
</g>
<rect width="1160" height="160" transform="matrix(1 0 0 -1 600 160)" fill="white"/>
<rect width="1160" height="80" transform="matrix(1 0 0 -1 283 80)" fill="white"/>
<defs>
<filter id="filter0_f_307_29" x="-1615.38" y="-1169" width="3008.38" height="2701.55" filterUnits="userSpaceOnUse" color-interpolation-filters="sRGB">
<feFlood flood-opacity="0" result="BackgroundImageFix"/>
<feBlend mode="normal" in="SourceGraphic" in2="BackgroundImageFix" result="shape"/>
<feGaussianBlur stdDeviation="222" result="effect1_foregroundBlur_307_29"/>
</filter>
<filter id="filter1_f_307_29" x="-59.9534" y="-185.382" width="2094.9" height="1873.88" filterUnits="userSpaceOnUse" color-interpolation-filters="sRGB">
<feFlood flood-opacity="0" result="BackgroundImageFix"/>
<feBlend mode="normal" in="SourceGraphic" in2="BackgroundImageFix" result="shape"/>
<feGaussianBlur stdDeviation="97.5" result="effect1_foregroundBlur_307_29"/>
</filter>
<filter id="filter2_f_307_29" x="90.2129" y="-1155.1" width="2940.91" height="2109.71" filterUnits="userSpaceOnUse" color-interpolation-filters="sRGB">
<feFlood flood-opacity="0" result="BackgroundImageFix"/>
<feBlend mode="normal" in="SourceGraphic" in2="BackgroundImageFix" result="shape"/>
<feGaussianBlur stdDeviation="217" result="effect1_foregroundBlur_307_29"/>
</filter>
<filter id="filter3_b_307_29" x="548.74" y="506.74" width="108.52" height="108.52" filterUnits="userSpaceOnUse" color-interpolation-filters="sRGB">
<feFlood flood-opacity="0" result="BackgroundImageFix"/>
<feGaussianBlur in="BackgroundImageFix" stdDeviation="6.88"/>
<feComposite in2="SourceAlpha" operator="in" result="effect1_backgroundBlur_307_29"/>
<feBlend mode="normal" in="SourceGraphic" in2="effect1_backgroundBlur_307_29" result="shape"/>
</filter>
<filter id="filter4_b_307_29" x="1788.74" y="188.74" width="108.52" height="108.52" filterUnits="userSpaceOnUse" color-interpolation-filters="sRGB">
<feFlood flood-opacity="0" result="BackgroundImageFix"/>
<feGaussianBlur in="BackgroundImageFix" stdDeviation="6.88"/>
<feComposite in2="SourceAlpha" operator="in" result="effect1_backgroundBlur_307_29"/>
<feBlend mode="normal" in="SourceGraphic" in2="effect1_backgroundBlur_307_29" result="shape"/>
</filter>
<filter id="filter5_b_307_29" x="64.74" y="107.74" width="108.52" height="108.52" filterUnits="userSpaceOnUse" color-interpolation-filters="sRGB">
<feFlood flood-opacity="0" result="BackgroundImageFix"/>
<feGaussianBlur in="BackgroundImageFix" stdDeviation="6.88"/>
<feComposite in2="SourceAlpha" operator="in" result="effect1_backgroundBlur_307_29"/>
<feBlend mode="normal" in="SourceGraphic" in2="effect1_backgroundBlur_307_29" result="shape"/>
</filter>
<linearGradient id="paint0_linear_307_29" x1="570" y1="533" x2="632.5" y2="590.5" gradientUnits="userSpaceOnUse">
<stop stop-color="white"/>
<stop offset="1" stop-color="white" stop-opacity="0"/>
</linearGradient>
<linearGradient id="paint1_linear_307_29" x1="1810" y1="215" x2="1872.5" y2="272.5" gradientUnits="userSpaceOnUse">
<stop stop-color="white"/>
<stop offset="1" stop-color="white" stop-opacity="0"/>
</linearGradient>
<linearGradient id="paint2_linear_307_29" x1="86" y1="134" x2="148.5" y2="191.5" gradientUnits="userSpaceOnUse">
<stop stop-color="white"/>
<stop offset="1" stop-color="white" stop-opacity="0"/>
</linearGradient>
<clipPath id="clip0_307_29">
<rect width="1920" height="679" fill="white"/>
</clipPath>
</defs>
</svg>
