<svg width="24" height="23" viewBox="0 0 24 23" fill="none" xmlns="http://www.w3.org/2000/svg">
<path fill-rule="evenodd" clip-rule="evenodd" d="M2.46266 2.22633C0.905273 3.78372 0.905273 6.29028 0.905273 11.3034V12.1896C0.905273 17.2028 0.905273 19.7094 2.46266 21.2667C4.02005 22.8241 6.52661 22.8241 11.5398 22.8241H12.426C17.4391 22.8241 19.9457 22.8241 21.503 21.2667C23.0604 19.7094 23.0604 17.2028 23.0604 12.1896V11.3034C23.0604 6.29028 23.0604 3.78372 21.503 2.22633C19.9457 0.668945 17.4391 0.668945 12.426 0.668945H11.5398C6.52661 0.668945 4.02005 0.668945 2.46266 2.22633ZM4.64399 7.40786C4.76399 13.1682 7.64415 16.6299 12.6937 16.6299H12.9799V13.3343C14.8354 13.519 16.2384 14.876 16.8016 16.6299H19.4234C18.7033 14.0082 16.8108 12.5589 15.6292 12.005C16.8108 11.3219 18.4724 9.66029 18.8693 7.40786H16.4876C15.9707 9.23566 14.4384 10.8973 12.9799 11.0542V7.40786H10.5981V13.7959C9.12114 13.4267 7.25645 11.6358 7.17337 7.40786H4.64399Z" fill="#0077FF"/>
</svg>
