<svg width="74" height="23" viewBox="0 0 74 23" fill="none" xmlns="http://www.w3.org/2000/svg">
<path fill-rule="evenodd" clip-rule="evenodd" d="M18.3165 7.24145H23.6116L23.7848 12.383H23.8504L26.0511 7.24145H31.3319L29.4372 16.6387H26.2386L27.7292 9.25545H27.6506L24.3174 16.6387H21.3453L21.0489 9.25545H20.956L19.4637 16.6387H16.4235L18.3165 7.24145ZM34.5176 16.8008L34.811 15.2958H34.1708C31.717 15.2958 30.8232 13.9009 30.8232 12.5043C30.8232 10.4363 32.4775 8.01931 35.7312 8.01931H36.292L36.5699 6.6104H40.1452L39.8657 8.01931H40.4248C41.7322 8.01931 43.8374 8.32909 43.8374 10.8261C43.8374 13.0137 42.2787 15.2958 39.0896 15.2958H38.3847L38.0912 16.8008H34.5176ZM36.0108 10.1682H35.8098C34.8631 10.1682 34.2229 11.175 34.2229 12.0614C34.2229 12.6111 34.5579 13.1473 35.1986 13.1473H35.4109L36.0108 10.1682ZM38.6642 13.1473H38.8765C39.8779 13.1473 40.437 12.0469 40.437 11.2299C40.437 10.6244 40.0918 10.1682 39.4642 10.1682H39.2641L38.6642 13.1473ZM54.4815 7.24145L53.9207 10.0205H50.7733L49.4411 16.6387H45.8675L47.2013 10.0205H44.0539L44.6131 7.24145H54.4815ZM58.8548 7.24145L57.7727 12.6111H57.8286L61.2699 7.24145H65.443L63.5492 16.6387H59.9747L61.0416 11.3767H60.9882L57.5617 16.6387H53.3881L55.2803 7.24145H58.8548ZM68.2171 20.1799L68.7249 17.517L73.7245 19.031L68.2171 20.1799ZM67.0325 18.1242H15.37C14.4161 18.1242 14.0004 19.1893 13.6006 20.2212C13.4594 20.5799 13.2391 21.1446 13.0718 21.3782C12.7674 21.0714 12.5429 19.6084 12.4559 19.031L12.4067 18.7131C12.0986 16.7332 11.8228 14.6443 11.5538 12.6256C10.3826 3.79258 9.82725 0.701583 8.19785 0.669243C6.15269 0.630946 5.42459 4.27726 3.26887 15.1017L2.98763 16.5149C2.6673 18.1242 1.93836 18.1242 1.62727 18.1242H0.657451L0.416992 19.5165H1.62727C2.43903 19.5165 3.87043 19.1629 4.34252 16.7902L4.62586 15.3749C5.95343 8.70227 7.21247 2.40793 8.09864 2.09219C8.87004 2.91941 9.62715 8.61334 10.1816 12.809C10.4507 14.8362 10.7294 16.9315 11.0409 18.9276L11.0876 19.2404C11.3293 20.8369 11.6299 22.8241 13.1176 22.8241C14.0706 22.8241 14.4864 21.7582 14.887 20.7284C15.0408 20.3331 15.2901 19.6961 15.4637 19.5165H66.792L67.0325 18.1242Z" fill="#0069B4"/>
</svg>
