<svg width="82" height="23" viewBox="0 0 82 23" fill="none" xmlns="http://www.w3.org/2000/svg">
<path d="M41.9092 4.44046V17.9404H38.924V11.0574C38.924 9.6504 38.943 8.30022 38.9811 6.95024C38.6388 8.24338 38.3157 9.44122 37.8213 11.0574L35.7489 17.9404H33.0867L30.9763 11.0574C30.5009 9.44122 30.0825 8.22415 29.7402 6.96947C29.7783 8.31944 29.7975 9.6504 29.7975 11.0384V17.9404H26.8501V4.44046H31.6607L33.2769 9.72647C33.7143 11.1713 34.1134 12.5784 34.4367 13.8903C34.76 12.5595 35.1593 11.1333 35.5777 9.72647L37.1747 4.44046H41.9092Z" fill="#0F45C7"/>
<path d="M56.1512 4.44046V17.9404H53.166V13.9285C53.166 11.7989 53.204 9.82135 53.2801 8.11026C52.5767 9.49827 51.6258 11.1713 50.7513 12.6927L47.747 17.9404H44.4956V4.44046H47.4808V8.77564C47.4808 10.8482 47.4428 12.5595 47.3667 14.0614C48.0133 12.7305 48.7737 11.3805 49.5152 10.1066L52.8046 4.44046H56.1512Z" fill="#0F45C7"/>
<path d="M69.8035 11.1335C69.8035 15.2216 67.2177 18.2827 62.9586 18.2827C60.867 18.2827 59.2509 17.5793 57.6157 16.0392L59.3839 13.9475C60.8289 15.1073 61.6466 15.5639 63.0346 15.5639C64.9932 15.5639 66.3431 14.3279 66.6852 12.2555H61.2473V9.6694H66.5901C66.1528 7.88225 64.8791 6.81732 63.0156 6.81732C61.8178 6.81732 60.9811 7.12158 59.6121 8.30041L57.8057 6.17075C59.3648 4.78274 60.734 4.09835 62.9586 4.09835C67.3128 4.09835 69.8035 7.19765 69.8035 11.1335Z" fill="#0F45C7"/>
<path d="M81.6492 7.08336H77.8085V17.9404H74.728V7.08336H70.9253V4.44046H81.6492V7.08336Z" fill="#0F45C7"/>
<path d="M21.3555 15.8528C22.0084 14.4327 22.373 12.8521 22.373 11.186C22.373 5.00803 17.3651 -8.96454e-05 11.1865 -8.96454e-05C5.00833 -8.96454e-05 0 5.00803 0 11.186C0 17.3646 5.00833 22.3733 11.1865 22.3733C15.3761 22.3733 19.0267 20.0698 20.9432 16.6603H20.0202V14.3125L18.2539 16.7339V14.3125L16.4846 16.735V13.1179H15.9887C16.0578 12.8543 16.1122 12.5848 16.1535 12.3112H16.1539H17.2238V14.6249L18.9872 12.2086V14.6249L20.7578 12.1988V15.8528H21.3555ZM16.159 12.2746H15.1064C15.1657 11.9207 15.1974 11.5573 15.1974 11.186C15.1974 7.5442 12.234 4.58128 8.59204 4.58128C7.34983 4.58128 6.13951 4.92869 5.09155 5.58508L5.62647 6.43817C6.51351 5.8826 7.5402 5.58896 8.59204 5.58896C11.6789 5.58896 14.1893 8.10018 14.1893 11.186C14.1893 11.5585 14.1523 11.9221 14.0823 12.2746H12.1653V9.01298L10.3913 11.4451L10.3904 9.02238L8.6266 11.4391V7.25527L6.20576 11.0958V7.25874L2.15358 13.6383C2.26952 13.9401 2.40428 14.2315 2.56009 14.5125L5.39807 10.071V13.7017L7.82054 9.85891V13.6976L9.58929 11.2747V13.6962L11.356 11.2755V13.1537H13.8316C13.034 15.2723 10.9865 16.7842 8.59204 16.7842C7.54143 16.7842 6.51821 16.4908 5.63117 15.9375L5.09789 16.7918C6.14421 17.4457 7.3529 17.7909 8.59204 17.7909C11.5492 17.7909 14.0582 15.8383 14.8976 13.1537H15.9797C15.1094 16.418 12.1283 18.8301 8.59368 18.8301C4.37894 18.8301 0.950015 15.4003 0.950015 11.186C0.950015 6.97186 4.37894 3.54232 8.59368 3.54232C12.8086 3.54232 16.2367 6.97186 16.2367 11.186C16.2367 11.5563 16.2101 11.9193 16.159 12.2746Z" fill="#0F45C7"/>
</svg>
