<svg width="153" height="23" viewBox="0 0 153 23" fill="none" xmlns="http://www.w3.org/2000/svg">
<path d="M34.9186 16.722C38.0533 16.722 40.265 14.5459 40.265 11.4762C40.265 8.40638 38.0533 6.23033 34.9186 6.23033C31.7838 6.23033 29.5722 8.40638 29.5722 11.4762C29.5722 14.5459 31.7838 16.722 34.9186 16.722ZM34.9186 14.6819C33.1108 14.6819 31.88 13.3802 31.88 11.4762C31.88 9.57212 33.1108 8.27037 34.9186 8.27037C36.7264 8.27037 37.9572 9.57212 37.9572 11.4762C37.9572 13.3802 36.7264 14.6819 34.9186 14.6819Z" fill="black"/>
<path d="M47.3226 7.45435C45.8033 7.45435 44.7455 8.03723 43.9763 9.20297C44.1493 7.16292 44.784 6.07489 47.438 5.84175C49.3419 5.66689 50.9766 5.20059 51.1305 2.71368L49.1881 2.53882C49.0534 3.39369 48.765 3.68513 47.4187 3.8017C43.0916 4.17085 41.7069 6.89091 41.7069 10.6213C41.7069 12.5059 42.13 13.9242 42.8801 14.9151C43.8032 16.1197 45.1686 16.722 46.8033 16.722C49.7266 16.722 51.8036 14.7791 51.8036 12.059C51.8036 9.3584 49.9381 7.45435 47.3226 7.45435ZM46.8226 14.7208C45.1879 14.7208 44.0724 13.6522 44.0724 12.0785C44.0724 10.5241 45.1879 9.45554 46.8226 9.45554C48.438 9.45554 49.5535 10.5241 49.5535 12.0785C49.5535 13.6522 48.438 14.7208 46.8226 14.7208Z" fill="black"/>
<path d="M55.837 20.5106V14.9928C56.5293 15.8283 57.7794 16.722 59.5295 16.722C62.395 16.722 64.4143 14.5265 64.4143 11.4762C64.4143 8.42581 62.395 6.23033 59.5295 6.23033C57.7025 6.23033 56.4332 7.20178 55.7408 8.05665L55.2793 6.42462H53.6253V20.5106H55.837ZM58.991 14.7208C57.1255 14.7208 55.837 13.3802 55.837 11.4762C55.837 9.57212 57.1255 8.23151 58.991 8.23151C60.8372 8.23151 62.1065 9.57212 62.1065 11.4762C62.1065 13.3802 60.8372 14.7208 58.991 14.7208Z" fill="black"/>
<path d="M70.4172 6.23033C68.4748 6.23033 66.7632 7.24064 66.2631 8.98925L68.3017 9.33897C68.6094 8.71724 69.3017 8.13437 70.3018 8.13437C71.5134 8.13437 72.225 9.00867 72.3211 10.3298H70.1672C67.2247 10.3298 65.7631 11.6316 65.7631 13.4968C65.7631 15.3814 67.2055 16.722 69.244 16.722C70.8787 16.722 71.9749 15.77 72.4557 14.9345L72.9173 16.5277H74.552V10.8544C74.552 7.92065 72.975 6.23033 70.4172 6.23033ZM69.7633 14.8374C68.6863 14.8374 67.994 14.2739 67.994 13.3996C67.994 12.6225 68.5517 12.0785 70.2441 12.0785H72.3403C72.3403 13.7299 71.3018 14.8374 69.7633 14.8374Z" fill="black"/>
<path d="M82.6439 11.379C83.6632 11.107 84.4132 10.2716 84.4132 9.12525C84.4132 7.43493 82.817 6.23033 80.6053 6.23033C78.6245 6.23033 76.9513 7.16292 76.3359 9.08639L78.3745 9.43611C78.7783 8.63952 79.5668 8.13437 80.5284 8.13437C81.4515 8.13437 82.2016 8.60067 82.2016 9.3584C82.2016 10.0384 81.5862 10.4853 80.3938 10.4853H79.1437V12.4282H80.3938C81.8939 12.4282 82.3554 12.9333 82.3554 13.5745C82.3554 14.3517 81.6631 14.8179 80.3938 14.8179C79.2399 14.8179 78.5668 14.4294 78.1244 13.5356L76.0859 13.8854C76.5667 15.5757 78.2014 16.722 80.413 16.722C82.9516 16.722 84.5671 15.4008 84.5671 13.7494C84.5671 12.4865 83.6632 11.6899 82.6439 11.379Z" fill="black"/>
<path d="M91.4493 16.722C94.5841 16.722 96.7957 14.5459 96.7957 11.4762C96.7957 8.40638 94.5841 6.23033 91.4493 6.23033C88.3146 6.23033 86.1029 8.40638 86.1029 11.4762C86.1029 14.5459 88.3146 16.722 91.4493 16.722ZM91.4493 14.6819C89.6415 14.6819 88.4107 13.3802 88.4107 11.4762C88.4107 9.57212 89.6415 8.27037 91.4493 8.27037C93.2571 8.27037 94.4879 9.57212 94.4879 11.4762C94.4879 13.3802 93.2571 14.6819 91.4493 14.6819Z" fill="black"/>
<path d="M105.603 11.2819C106.469 10.8739 107.027 10.1938 107.027 9.14468C107.027 7.5515 105.584 6.42462 103.507 6.42462H98.7185V16.5277H103.719C105.873 16.5277 107.373 15.3425 107.373 13.7299C107.373 12.5059 106.584 11.5927 105.603 11.2819ZM103.507 8.27037C104.276 8.27037 104.815 8.73667 104.815 9.37783C104.815 10.019 104.276 10.4659 103.507 10.4659H100.93V8.27037H103.507ZM100.93 14.6819V12.2145H103.719C104.584 12.2145 105.161 12.7196 105.161 13.4579C105.161 14.1962 104.584 14.6819 103.719 14.6819H100.93Z" fill="black"/>
<path d="M113.463 6.23033C111.521 6.23033 109.809 7.24064 109.309 8.98925L111.348 9.33897C111.655 8.71724 112.348 8.13437 113.348 8.13437C114.559 8.13437 115.271 9.00867 115.367 10.3298H113.213C110.271 10.3298 108.809 11.6316 108.809 13.4968C108.809 15.3814 110.251 16.722 112.29 16.722C113.925 16.722 115.021 15.77 115.502 14.9345L115.963 16.5277H117.598V10.8544C117.598 7.92065 116.021 6.23033 113.463 6.23033ZM112.809 14.8374C111.732 14.8374 111.04 14.2739 111.04 13.3996C111.04 12.6225 111.598 12.0785 113.29 12.0785H115.386C115.386 13.7299 114.348 14.8374 112.809 14.8374Z" fill="black"/>
<path d="M126.69 10.4076H122.209V6.42462H119.997V16.5277H122.209V12.4476H126.69V16.5277H128.902V6.42462H126.69V10.4076Z" fill="black"/>
<path d="M134.532 16.5277L138.263 9.0281H138.571V16.5277H140.686V6.42462H137.552L133.821 13.9242H133.513V6.42462H131.397V16.5277H134.532Z" fill="black"/>
<path d="M153 11.3596C153 8.44523 150.846 6.23033 147.807 6.23033C144.769 6.23033 142.615 8.42581 142.615 11.4762C142.615 14.5265 144.769 16.722 147.807 16.722C149.884 16.722 151.846 15.7311 152.596 13.8076L150.519 13.4579C150.038 14.1768 149.115 14.6819 147.942 14.6819C146.25 14.6819 145.134 13.6328 144.923 12.0785H152.962C152.981 11.8647 153 11.6316 153 11.3596ZM147.807 8.17323C149.192 8.17323 150.231 9.06696 150.596 10.3298H145.057C145.423 9.0281 146.461 8.17323 147.807 8.17323Z" fill="black"/>
<path fill-rule="evenodd" clip-rule="evenodd" d="M1.53334 1.54907C0 3.09815 0 5.59134 0 10.5777V11.4592C0 16.4456 0 18.9388 1.53334 20.4879C3.06669 22.0369 5.53457 22.0369 10.4703 22.0369H11.3428C16.2786 22.0369 18.7465 22.0369 20.2798 20.4879C21.8132 18.9388 21.8132 16.4456 21.8132 11.4592V10.5777C21.8132 5.59134 21.8132 3.09815 20.2798 1.54907C18.7465 0 16.2786 0 11.3428 0H10.4703C5.53456 0 3.06669 0 1.53334 1.54907ZM3.68101 6.70295C3.79916 12.4326 6.63485 15.8758 11.6064 15.8758H11.8882V12.5978C13.7151 12.7815 15.0965 14.1312 15.6509 15.8758H18.2322C17.5233 13.2681 15.66 11.8265 14.4966 11.2756C15.66 10.5961 17.296 8.94337 17.6868 6.70295H15.3418C14.8328 8.52099 13.3243 10.1737 11.8882 10.3298V6.70295H9.54325V13.0569C8.08904 12.6896 6.25313 10.9083 6.17133 6.70295H3.68101Z" fill="#0077FF"/>
</svg>
