<svg width="109" height="23" viewBox="0 0 109 23" fill="none" xmlns="http://www.w3.org/2000/svg">
<path d="M38.4372 11.1671C38.4372 7.84931 39.8129 5.01709 43.778 5.01709C47.7431 5.01709 49.1188 7.84931 49.1188 11.1671C49.1188 14.4848 47.7431 17.317 43.778 17.317C39.8129 17.317 38.4372 14.4848 38.4372 11.1671ZM40.9458 11.1671C40.9458 13.1091 41.3504 14.9299 43.8185 14.9299C46.2865 14.9299 46.6911 13.1091 46.6911 11.1671C46.6911 9.22496 46.2865 7.40425 43.8185 7.40425C41.3504 7.40425 40.9458 9.22496 40.9458 11.1671ZM101.393 5.30031L103.578 8.94174L105.763 5.30031H108.717L105.156 10.9243L109 17.0338H106.046L103.578 12.9068L101.11 17.0338H98.1566L102 10.9243L98.4398 5.30031H101.393ZM90.5906 9.9937H95.203V12.2595H90.5906V14.7276H96.0527V17.1147H88.082V5.30031H96.0122V7.68747H90.5501V9.9937H90.5906ZM79.99 17.0338V7.68747H76.7531V5.30031H85.6949V7.68747H82.458V17.0338H79.99ZM67.0427 17.0338H64.6555V5.30031H67.164V12.5022L71.817 5.30031H74.2041V17.0338H71.6956V9.83186L67.0427 17.0338ZM50.5753 14.7276C51.6273 14.768 52.3151 14.323 52.5579 13.3519C53.2457 10.8029 53.3266 7.93023 53.6908 5.30031H61.2568V17.0338H58.7483V7.68747H55.9161C55.7542 9.30588 55.471 12.1786 54.9855 13.9588C54.4595 15.9818 52.8006 17.2361 50.5753 17.1147V14.7276ZM26.5015 17.0338V5.30031H35.6455V17.0338H33.1369V7.68747H29.01V17.0338H26.5015Z" fill="#404344"/>
<path d="M10.9647 0C9.0631 0 5.94766 0.0809209 4.12695 0.283222C1.61841 0.566444 0.606904 1.90163 0.364143 4.24833C0.161841 6.06904 0 8.69896 0 11.1266C0 13.5542 0.0404605 16.2246 0.364143 18.0048C0.768746 20.3515 1.86117 21.6058 4.12695 21.9699C5.94766 22.2532 9.2654 22.2532 10.9647 22.2532C12.6641 22.2532 16.0223 22.2532 17.8025 21.9699C20.0683 21.6058 21.1607 20.3515 21.5653 18.0048C21.889 16.2246 21.9295 13.4733 21.9295 11.1266C21.9295 8.77988 21.7272 5.74536 21.5653 4.28879C21.3226 1.86117 20.2706 0.647364 17.8025 0.323682C15.9818 0.0809206 12.8664 0 10.9647 0ZM18.6522 2.549C19.1377 2.7513 19.9874 4.00557 19.7851 5.38122C18.8545 6.14996 17.6811 6.67595 16.5887 6.87825V15.6986H19.866C19.866 17.0338 19.6637 18.1262 19.4209 18.5308H13.4733V6.99963H9.2654V13.8779C9.2654 17.317 7.32331 19.0568 4.81477 19.0568C4.12695 19.0568 3.27728 18.9759 2.549 18.7736C2.22532 18.3285 2.06347 16.9933 2.02301 15.3344C3.68189 16.1437 5.9072 16.5078 6.1095 13.9183V7.44469C3.60096 7.72791 2.67038 9.4677 1.82071 10.6411C1.82071 9.0631 1.94209 7.64699 1.98255 6.67595C3.72235 4.81477 5.62398 3.96511 9.42725 3.96511H14.8489C16.1841 3.96511 17.4788 3.47958 18.6522 2.549Z" fill="#37B34A"/>
</svg>
