<svg width="1920" height="1320" viewBox="0 0 1920 1320" fill="none" xmlns="http://www.w3.org/2000/svg">
<g clip-path="url(#clip0_307_27)">
<path fill-rule="evenodd" clip-rule="evenodd" d="M680 0H160V160H0V999V1040V1160V1200V1320H123V1200H1240V1040H1920V160H1480V80H680V0Z" fill="#0077FF"/>
<g filter="url(#filter0_f_307_27)">
<path opacity="0.02" d="M34.6338 284.313C-8.34265 356.933 -42.8545 435.646 -67.7058 517.253C-109.621 654.929 -125.019 800.839 -109.943 941.926C-94.8818 1082.86 -49.4033 1218.95 30.43 1337.21C233.752 1640.1 678.253 1770.83 989.748 1582.12C1065.17 1536.44 1137.92 1470.22 1224.74 1444.83C1229.35 1443.49 1233.99 1442.26 1238.69 1441.15C1281.04 1431.27 1323.2 1436.27 1365.25 1438.56C1406.49 1440.8 1447.39 1440.84 1487.07 1418.57C1611.14 1349.44 1755.02 1076.32 1626.65 961.914C1597.7 936.103 1559.77 923.252 1523.06 910.72C1321.59 841.957 1119.02 756.635 966.692 609.614C956.194 599.469 945.915 589.059 935.895 578.326C833.75 468.941 763.709 333.732 663.344 222.667C563.719 112.199 412.067 26.8805 269.398 68.5652C164.719 99.1237 90.1501 190.54 34.6338 284.313V284.313Z" fill="#001F9A"/>
<path opacity="0.04" d="M37.5115 286.971C-6.11052 359.073 -41.2239 437.869 -66.2145 519.647C-108.386 657.529 -123.794 803.845 -108.492 945.247C-93.2066 1086.49 -46.9747 1222.62 33.2048 1340.97C235.206 1639.13 670.969 1766.33 980.558 1584.75C1057.4 1539.68 1132.44 1474.67 1219.9 1447.52C1224.54 1446.08 1229.21 1444.76 1233.94 1443.56C1276.48 1432.77 1318.77 1436.32 1361.38 1437.97C1403.19 1439.54 1444.8 1439.96 1485 1417.23C1608.18 1347.56 1750.87 1075.29 1622.56 961.722C1593.62 936.105 1555.78 923.43 1519.16 911.055C1317.91 843.167 1117.89 756.145 965.488 609.779C955.009 599.693 944.728 589.36 934.685 578.762C832.455 470.555 760.35 338.469 660.177 228.279C561.506 119.226 411.665 35.0315 270.571 75.5345C167.014 105.21 93.2004 194.923 37.5115 286.971V286.971Z" fill="#001F9A"/>
<path opacity="0.07" d="M40.3897 289.61C-3.89756 361.213 -39.5732 440.073 -64.7414 522.001C-107.17 660.148 -122.568 806.871 -107.042 948.568C-91.5312 1090.13 -44.7028 1226.39 35.999 1344.73C236.266 1638.44 663.838 1761.97 971.369 1587.36C1049.66 1542.91 1126.94 1479.13 1215.08 1450.18C1219.76 1448.64 1224.45 1447.22 1229.2 1445.92C1271.94 1434.25 1314.36 1436.34 1357.51 1437.32C1399.9 1438.23 1442.27 1439.11 1482.94 1415.85C1605.36 1345.83 1746.73 1074.21 1618.5 961.473C1589.58 936.03 1551.83 923.532 1515.31 911.332C1314.25 844.319 1116.78 755.597 964.325 609.888C953.863 599.879 943.581 589.624 933.497 579.121C831.181 472.111 757.031 343.129 657.051 233.833C559.292 126.271 411.244 43.1819 271.743 82.5037C169.309 111.316 96.2513 199.287 40.3897 289.61V289.61Z" fill="#001F9A"/>
<path opacity="0.09" d="M43.2485 292.268C-1.70408 363.371 -37.9425 442.316 -63.2685 524.376C-105.935 662.749 -121.342 809.878 -105.591 951.909C-89.8559 1093.79 -42.4315 1230.19 38.7738 1348.51C237.288 1637.76 656.838 1757.77 962.179 1590.01C1041.97 1546.17 1121.46 1483.62 1210.24 1452.87C1214.94 1451.26 1219.68 1449.72 1224.45 1448.31C1267.38 1435.73 1309.93 1436.37 1353.61 1436.69C1396.58 1436.93 1439.7 1438.28 1480.84 1414.48C1602.5 1344.14 1742.56 1073.17 1614.39 961.242C1585.48 935.993 1547.82 923.671 1511.38 911.628C1310.52 845.471 1115.59 755.047 963.084 610.033C952.64 600.083 942.336 589.924 932.25 579.518C829.849 473.704 753.417 348.035 653.865 239.425C556.842 133.504 410.842 51.3332 272.916 89.4733C171.605 117.403 99.2832 203.65 43.2485 292.268V292.268Z" fill="#001F9A"/>
<path opacity="0.11" d="M46.1266 294.906C0.489817 365.491 -36.2921 444.52 -61.7767 526.75C-104.7 665.35 -120.116 812.884 -104.141 955.23C-88.1812 1097.44 -40.1598 1233.96 41.5678 1352.26C238.309 1637.07 650.008 1753.7 953.01 1592.62C1034.31 1549.39 1115.98 1488.08 1205.44 1455.54C1210.18 1453.83 1214.94 1452.2 1219.73 1450.69C1262.86 1437.21 1305.52 1436.4 1349.78 1436.06C1393.32 1435.64 1437.18 1437.45 1478.82 1413.1C1599.73 1342.43 1738.45 1072.08 1610.35 961.013C1581.46 935.958 1543.89 923.792 1507.54 911.926C1306.9 846.643 1114.52 754.519 961.94 610.161C951.495 600.269 941.208 590.187 931.081 579.897C828.593 475.28 750.058 352.752 650.758 244.98C554.57 140.587 410.42 59.4837 274.088 96.4426C173.9 123.509 102.295 208.032 46.1266 294.906V294.906Z" fill="#001F9A"/>
<path opacity="0.13" d="M49.0046 297.564C2.68318 367.65 -34.6611 446.743 -60.2846 529.125C-103.464 667.95 -118.871 815.891 -102.69 958.551C-86.5056 1101.08 -37.9075 1237.74 44.3429 1356.02C239.292 1636.4 643.292 1749.8 943.82 1595.25C1026.65 1552.66 1110.49 1492.55 1200.6 1458.21C1205.36 1456.41 1210.16 1454.68 1214.98 1453.08C1258.28 1438.71 1301.09 1436.43 1345.89 1435.42C1390.01 1434.34 1434.63 1436.62 1476.73 1411.74C1596.89 1340.78 1734.28 1071.04 1606.26 960.783C1577.38 935.902 1539.91 923.912 1503.63 912.222C1303.2 847.814 1113.36 753.99 960.7 610.287C950.272 600.453 939.964 590.468 929.815 580.274C827.242 476.854 746.603 357.487 647.553 250.552C552.317 147.67 409.999 67.6343 275.28 103.412C176.214 129.596 105.308 212.376 49.0046 297.564V297.564Z" fill="#001F9A"/>
<path opacity="0.15" d="M51.883 300.203C4.85763 369.789 -33.0103 448.947 -58.792 531.48C-102.229 670.57 -117.645 818.897 -101.239 961.872C-84.8301 1104.71 -35.6548 1241.51 47.1373 1359.78C240.293 1635.74 636.727 1746.01 934.632 1597.86C1019.04 1555.89 1105 1496.99 1195.78 1460.87C1200.59 1458.97 1205.38 1457.15 1210.24 1455.42C1253.71 1440.05 1296.68 1436.43 1342.04 1434.75C1386.73 1433.01 1432.1 1435.74 1474.69 1410.34C1594.11 1339.09 1730.16 1069.94 1602.2 960.515C1573.34 935.827 1535.96 924.014 1499.77 912.461C1299.56 848.909 1112.25 753.403 959.537 610.376C949.128 600.601 938.818 590.693 928.647 580.633C825.987 478.41 743.245 362.185 644.427 256.088C550.044 154.753 409.597 75.7853 276.453 110.382C178.49 135.701 108.282 216.738 51.883 300.203V300.203Z" fill="#001F9A"/>
<path opacity="0.17" d="M54.7416 302.861C7.01231 371.947 -31.3798 451.189 -57.3197 533.873C-100.994 673.171 -116.419 821.904 -99.7884 965.193C-83.155 1108.37 -33.4025 1245.29 49.9124 1363.54C241.236 1635.11 630.255 1742.38 925.443 1600.47C1011.44 1559.13 1099.52 1501.44 1190.94 1463.54C1195.77 1461.56 1200.61 1459.63 1205.49 1457.8C1249.15 1441.53 1292.24 1436.46 1338.14 1434.12C1383.44 1431.71 1429.54 1434.93 1472.62 1408.97C1591.3 1337.44 1726.01 1068.89 1598.13 960.304C1569.28 935.81 1531.99 924.154 1495.9 912.777C1295.89 850.101 1111.14 752.894 958.354 610.523C947.963 600.806 937.65 590.994 927.438 581.031C824.694 480.005 739.846 366.941 641.28 261.68C547.791 161.836 409.176 83.936 277.626 117.351C180.786 141.788 111.236 221.08 54.7609 302.861L54.7416 302.861Z" fill="#001F9A"/>
<path opacity="0.2" d="M57.6193 305.519C9.16671 374.105 -29.7297 453.413 -55.8279 536.247C-99.7586 675.771 -115.193 824.91 -98.3383 968.533C-81.4995 1112.02 -31.1509 1249.09 52.6862 1367.34C242.159 1634.51 623.914 1738.94 916.253 1603.14C1003.88 1562.44 1094.04 1505.96 1186.1 1466.25C1190.97 1464.18 1195.83 1462.14 1200.75 1460.23C1244.58 1443.05 1287.82 1436.53 1334.29 1433.53C1380.16 1430.46 1427.01 1434.14 1470.56 1407.63C1588.51 1335.82 1721.86 1067.85 1594.05 960.093C1565.22 935.774 1528.02 924.313 1492 913.092C1292.19 851.291 1109.99 752.364 957.151 610.688C946.778 601.03 936.444 591.314 926.23 581.447C823.399 481.618 736.467 371.697 638.133 267.273C545.537 168.938 408.773 92.1062 278.797 124.34C183.08 147.913 114.19 225.461 57.6193 305.519V305.519Z" fill="#001F9A"/>
<path opacity="0.22" d="M60.4979 308.157C11.3216 376.262 -28.0788 455.617 -54.3352 538.603C-98.523 678.372 -113.967 827.916 -96.8873 971.854C-79.8237 1115.66 -28.9178 1252.88 55.4808 1371.09C243.083 1633.88 617.687 1735.61 907.083 1605.75C996.356 1565.68 1088.56 1510.41 1181.3 1468.9C1186.19 1466.74 1191.09 1464.61 1196.03 1462.57C1240.06 1444.49 1283.44 1436.51 1330.44 1432.86C1376.88 1429.12 1424.5 1433.29 1468.52 1406.23C1585.75 1334.18 1717.74 1066.77 1589.99 959.825C1561.18 935.699 1524.08 924.395 1488.15 913.351C1288.55 852.424 1108.88 751.797 955.989 610.777C945.633 601.196 935.278 591.558 925.042 581.787C821.927 483.363 733.091 376.375 635.007 272.808C543.305 175.964 408.372 100.238 279.991 131.271C185.396 153.961 117.127 229.745 60.5176 308.139L60.4979 308.157Z" fill="#001F9A"/>
<path opacity="0.24" d="M63.3757 310.816C13.4567 378.42 -26.4479 457.84 -52.8437 540.996C-97.3075 680.991 -112.741 830.923 -95.4368 975.175C-78.1484 1119.29 -26.685 1256.66 58.2557 1374.85C243.967 1633.28 611.554 1732.39 897.874 1608.38C988.815 1568.99 1083.06 1514.87 1176.45 1471.59C1181.37 1469.33 1186.3 1467.11 1191.26 1464.98C1235.47 1445.99 1278.99 1436.56 1326.55 1432.25C1373.57 1427.85 1421.94 1432.49 1466.43 1404.89C1582.92 1332.58 1713.57 1065.72 1585.9 959.633C1557.1 935.701 1520.09 924.554 1484.25 913.686C1284.87 853.615 1107.73 751.306 954.767 610.942C944.428 601.42 934.071 591.878 923.795 582.203C820.594 484.976 729.673 381.15 631.821 278.419C541.012 183.085 407.93 108.427 281.143 138.278C187.671 160.105 120.023 234.124 63.3563 310.815L63.3757 310.816Z" fill="#001F9A"/>
<path opacity="0.26" d="M66.2347 313.454C15.5539 380.557 -24.817 460.063 -51.3705 543.351C-96.0721 683.592 -111.515 833.929 -93.986 978.497C-76.4733 1122.95 -24.4521 1260.45 61.0501 1378.61C244.871 1632.66 605.533 1729.33 888.705 1610.99C981.331 1572.28 1077.58 1519.32 1171.65 1474.25C1176.59 1471.89 1181.54 1469.57 1186.54 1467.34C1230.95 1447.45 1274.58 1436.57 1322.69 1431.6C1370.29 1426.54 1419.43 1431.66 1464.39 1403.5C1580.18 1330.97 1709.46 1064.66 1581.84 959.384C1553.06 935.627 1516.14 924.676 1480.38 913.964C1281.2 854.768 1106.62 750.759 953.584 611.069C943.264 601.606 932.885 592.16 922.606 582.601C819.299 486.589 726.294 385.886 628.675 283.993C538.759 190.149 407.528 116.578 282.315 145.267C189.966 166.211 122.901 238.465 66.2338 313.493L66.2347 313.454Z" fill="#001F9A"/>
<path opacity="0.28" d="M69.1124 316.112C17.6701 382.694 -23.1669 462.286 -49.8791 545.745C-94.8369 686.192 -110.29 836.955 -92.5355 981.817C-74.798 1126.58 -22.2194 1264.23 63.8249 1382.37C245.716 1632.08 599.586 1726.41 879.515 1613.62C973.867 1575.59 1072.1 1523.8 1166.81 1476.92C1171.8 1474.48 1176.76 1472.05 1181.79 1469.71C1226.39 1448.93 1270.15 1436.59 1318.8 1430.95C1366.97 1425.22 1416.86 1430.83 1462.29 1402.1C1577.37 1329.34 1705.27 1063.58 1577.73 959.114C1548.96 935.551 1512.14 924.756 1476.47 914.221C1277.5 855.9 1105.46 750.19 952.364 611.157C942.061 601.752 931.681 592.383 921.36 582.939C817.968 488.144 722.878 390.564 625.491 289.527C536.488 197.193 407.069 124.689 283.469 152.197C192.242 172.278 125.76 242.746 69.0931 316.111L69.1124 316.112Z" fill="#001F9A"/>
<path opacity="0.3" d="M71.9909 318.751C19.7866 384.832 -21.516 464.491 -48.3865 548.1C-93.6014 688.793 -109.064 839.962 -91.0846 985.139C-73.1224 1130.22 -20.0057 1268.01 66.6194 1386.13C246.561 1631.5 593.733 1723.62 870.346 1616.23C966.441 1578.91 1066.62 1528.26 1161.99 1479.59C1167 1477.06 1172.01 1474.53 1177.05 1472.09C1221.83 1450.41 1265.74 1436.62 1314.95 1430.32C1363.7 1423.93 1414.34 1430.03 1460.26 1400.74C1574.64 1327.77 1701.15 1062.52 1573.69 958.905C1544.94 935.535 1508.19 924.916 1472.61 914.537C1273.84 857.072 1104.35 749.661 951.2 611.304C940.896 601.957 930.513 592.685 920.19 583.337C816.692 489.758 719.539 395.301 622.383 295.101C534.293 204.258 406.705 132.841 284.68 159.168C194.576 178.366 128.639 247.048 71.9909 318.751V318.751Z" fill="#001F9A"/>
<path opacity="0.33" d="M74.8493 321.408C21.8444 386.988 -19.9046 466.713 -46.9139 550.474C-92.3662 691.394 -107.819 842.968 -89.6341 988.46C-71.4471 1133.85 -17.7928 1271.82 69.3942 1389.88C247.386 1630.94 587.954 1720.97 861.138 1618.84C958.994 1582.26 1061.12 1532.69 1157.15 1482.25C1162.18 1479.62 1167.23 1476.99 1172.3 1474.46C1217.27 1451.87 1261.29 1436.63 1311.06 1429.67C1360.4 1422.61 1411.81 1429.2 1458.18 1399.36C1571.86 1326.18 1697 1061.45 1569.6 958.655C1540.86 935.46 1504.2 925.017 1468.72 914.814C1270.16 858.224 1103.22 749.113 949.998 611.431C939.712 602.142 929.327 592.967 918.963 583.715C815.379 491.333 716.142 399.999 619.217 300.674C532.04 211.322 406.284 140.991 285.833 166.137C196.852 184.471 131.459 251.349 74.8493 321.408V321.408Z" fill="#001F9A"/>
<path opacity="0.35" d="M77.7272 324.066C23.9415 389.125 -18.2548 468.956 -45.4224 552.868C-91.1317 694.033 -106.593 845.994 -88.1649 991.82C-69.7536 1137.55 -15.5612 1275.66 72.1876 1393.68C248.191 1630.42 582.268 1718.48 851.967 1621.5C951.604 1585.68 1055.66 1537.21 1152.33 1484.98C1157.4 1482.25 1162.47 1479.53 1167.56 1476.88C1212.71 1453.39 1256.88 1436.7 1307.2 1429.07C1357.12 1421.36 1409.29 1428.45 1456.12 1398.01C1569.11 1324.64 1692.87 1060.41 1565.54 958.445C1536.82 935.443 1500.25 925.157 1464.86 915.131C1266.51 859.416 1102.11 748.604 948.815 611.577C938.547 602.347 928.16 593.249 917.755 584.112C814.085 492.946 712.763 404.735 616.071 306.248C529.807 218.386 405.863 149.142 287.025 173.106C199.167 190.558 134.298 255.649 77.747 324.047L77.7272 324.066Z" fill="#001F9A"/>
<path opacity="0.37" d="M80.6055 326.705C26.0002 391.242 -16.6042 471.16 -43.9493 555.223C-89.9153 696.613 -105.367 848.981 -86.7332 995.121C-68.0971 1141.16 -13.3671 1279.44 74.963 1397.42C248.978 1629.85 576.619 1716.05 842.778 1624.09C944.216 1589.05 1050.16 1541.64 1147.51 1487.61C1152.6 1484.81 1157.72 1481.99 1162.83 1479.23C1208.17 1454.85 1252.47 1436.7 1303.33 1428.42C1353.83 1420.04 1406.76 1427.61 1454.07 1396.63C1566.36 1323.07 1688.71 1059.35 1561.47 958.215C1532.76 935.407 1496.28 925.297 1460.97 915.408C1262.83 860.568 1100.96 748.055 947.613 611.704C937.362 602.551 926.955 593.531 916.547 584.49C812.772 494.521 709.385 409.452 612.905 311.82C527.554 225.45 405.441 157.292 288.178 180.075C201.423 196.663 137.081 259.93 80.5861 326.704L80.6055 326.705Z" fill="#001F9A"/>
<path opacity="0.39" d="M83.4836 329.363C28.0589 393.378 -14.9537 473.383 -42.457 557.597C-88.6604 699.215 -104.141 851.988 -85.2823 998.442C-66.4214 1144.8 -11.1731 1283.24 77.7382 1401.18C249.745 1629.33 571.044 1713.77 833.57 1626.72C936.826 1592.5 1044.66 1546.12 1142.65 1490.28C1147.79 1487.39 1152.9 1484.47 1158.05 1481.59C1203.59 1456.31 1248 1436.71 1299.44 1427.77C1350.51 1418.73 1404.2 1426.8 1451.97 1395.25C1563.59 1321.5 1684.54 1058.26 1557.35 957.965C1528.66 935.331 1492.28 925.397 1457.05 915.684C1259.13 861.7 1099.81 747.506 946.392 611.811C936.16 602.717 925.75 593.793 915.301 584.868C811.439 496.114 705.989 414.15 609.72 317.393C525.282 232.513 405 165.462 289.332 187.063C203.698 202.788 139.844 264.209 83.4449 329.362L83.4836 329.363Z" fill="#001F9A"/>
<path opacity="0.41" d="M86.3425 332.001C30.079 395.494 -13.3422 475.606 -40.9844 559.971C-87.4449 701.834 -102.915 854.994 -83.8321 1001.78C-64.7658 1148.45 -8.97985 1287.06 80.532 1404.96C250.511 1628.83 565.524 1711.64 824.4 1629.35C929.493 1595.96 1039.18 1550.59 1137.85 1492.98C1143.01 1489.98 1148.16 1486.97 1153.34 1484C1199.05 1457.83 1243.61 1436.76 1295.58 1427.16C1347.23 1417.45 1401.71 1426.03 1449.93 1393.91C1560.88 1319.98 1680.43 1057.24 1553.32 957.755C1524.64 935.315 1488.35 925.558 1453.22 916.001C1255.49 862.892 1098.72 746.978 945.247 611.959C935.033 602.923 924.602 594.075 914.15 585.266C810.203 497.71 702.668 418.888 606.632 322.968C523.107 239.56 404.637 173.614 290.562 194.034C206.052 208.876 142.665 268.471 86.3614 332.021L86.3425 332.001Z" fill="#001F9A"/>
<path opacity="0.43" d="M89.2202 334.659C32.099 397.61 -11.6921 477.829 -39.4926 562.345C-86.2097 704.434 -101.689 858.001 -82.3816 1005.1C-63.091 1152.11 -6.80605 1290.89 83.3068 1408.71C251.238 1628.32 560.06 1709.59 815.21 1631.98C922.159 1599.45 1033.7 1555.05 1133.01 1495.65C1138.21 1492.56 1143.39 1489.45 1148.6 1486.38C1194.5 1459.31 1239.2 1436.79 1291.73 1426.53C1343.96 1416.16 1399.19 1425.25 1447.88 1392.52C1558.13 1318.43 1676.29 1056.16 1549.24 957.525C1520.57 935.279 1484.38 925.678 1449.32 916.298C1251.8 864.063 1097.58 746.449 944.045 612.105C933.849 603.127 923.415 594.377 912.923 585.663C808.889 499.303 699.29 423.605 603.465 328.56C520.873 246.643 404.215 181.784 291.715 201.022C208.327 215 145.408 272.75 89.2198 334.678L89.2202 334.659Z" fill="#001F9A"/>
<path opacity="0.46" d="M92.0985 337.298C34.1196 399.707 -10.0415 480.033 -38.0001 564.701C-84.9739 707.016 -100.463 861.007 -80.9305 1008.41C-61.4151 1155.73 -4.61233 1294.69 86.1015 1412.45C251.965 1627.8 554.651 1707.63 806.041 1634.57C914.864 1602.95 1028.22 1559.48 1128.19 1498.28C1133.41 1495.12 1138.63 1491.89 1143.87 1488.71C1189.96 1460.75 1234.79 1436.77 1287.86 1425.84C1340.68 1414.81 1396.68 1424.4 1445.82 1391.1C1555.42 1316.84 1672.14 1055.05 1545.17 957.237C1516.52 935.165 1480.41 925.76 1445.45 916.536C1248.14 865.177 1096.47 745.862 942.863 612.174C932.685 603.255 922.25 594.601 911.716 585.983C807.597 500.84 695.933 428.245 600.321 334.056C518.661 253.611 403.815 189.858 292.908 207.915C210.643 221.01 148.154 276.914 92.1188 337.26L92.0985 337.298Z" fill="#001F9A"/>
<path opacity="0.48" d="M94.9572 339.955C36.1017 401.802 -8.41046 482.256 -36.5278 567.094C-83.7587 709.654 -99.2378 864.033 -79.4801 1011.75C-59.74 1159.38 -2.45802 1298.53 88.8761 1416.23C252.653 1627.33 549.259 1705.84 796.832 1637.2C907.529 1606.51 1022.72 1563.96 1123.35 1500.97C1128.61 1497.71 1133.85 1494.39 1139.11 1491.11C1185.4 1462.25 1230.34 1436.82 1283.97 1425.23C1337.37 1413.53 1394.14 1423.63 1443.74 1389.76C1552.67 1315.35 1667.99 1054.01 1541.09 957.026C1512.46 935.148 1476.45 925.9 1441.58 916.852C1244.48 866.349 1095.34 745.353 941.661 612.32C931.481 603.459 921.044 594.882 910.508 586.38C806.303 502.434 692.575 432.963 597.155 339.649C516.409 260.675 403.373 198.027 294.061 214.903C212.918 227.135 150.86 281.173 94.9581 339.917L94.9572 339.955Z" fill="#001F9A"/>
<path opacity="0.5" d="M97.8351 342.614C38.1031 403.899 -6.77993 484.499 -35.0357 569.469C-82.504 712.256 -98.0118 867.039 -78.0298 1015.09C-58.0653 1163.06 -0.284421 1302.37 91.6507 1420.01C253.321 1626.88 543.902 1704.15 787.643 1639.85C900.25 1610.15 1017.24 1568.45 1118.51 1503.66C1123.79 1500.31 1129.08 1496.89 1134.36 1493.51C1180.82 1463.77 1225.91 1436.85 1280.09 1424.61C1334.07 1412.25 1391.63 1422.87 1441.67 1388.42C1549.94 1313.85 1663.84 1052.99 1537 956.834C1508.39 935.15 1472.46 926.059 1437.66 917.187C1240.78 867.558 1094.17 744.861 940.438 612.504C930.276 603.721 919.837 595.222 909.26 586.835C804.969 504.085 689.176 437.738 593.968 345.279C514.155 267.778 402.931 206.235 295.213 221.93C215.193 233.279 153.546 285.431 97.8153 342.632L97.8351 342.614Z" fill="#001F9A"/>
<path opacity="0.52" d="M100.713 345.252C40.0667 405.956 -5.12921 486.703 -33.5432 571.824C-81.2681 714.837 -96.7661 870.027 -76.5786 1018.39C-56.3894 1166.67 1.87027 1306.19 94.4451 1423.76C254.009 1626.41 538.602 1702.54 778.473 1642.46C892.991 1613.77 1011.76 1572.89 1113.71 1506.32C1119.04 1502.86 1124.32 1499.35 1129.64 1495.86C1176.3 1465.21 1221.52 1436.85 1276.24 1423.94C1330.79 1410.92 1389.13 1422.06 1439.63 1387C1547.25 1312.3 1659.72 1051.87 1532.96 956.547C1504.37 935.038 1468.53 926.142 1433.83 917.427C1237.13 868.673 1093.1 744.257 939.296 612.575C929.152 603.85 918.71 595.428 908.111 587.156C803.754 505.604 685.878 442.38 590.881 350.796C512.02 274.767 402.589 214.33 296.445 228.862C217.547 239.348 156.311 289.614 100.733 345.234L100.713 345.252Z" fill="#001F9A"/>
<path opacity="0.54" d="M103.591 347.91C42.0298 408.032 -3.47896 488.926 -32.0516 574.217C-80.0337 717.476 -95.5406 873.052 -75.109 1021.73C-54.695 1170.33 4.04336 1310.05 97.239 1427.54C254.677 1625.98 533.338 1701.05 769.303 1645.11C885.75 1617.49 1006.3 1577.38 1108.89 1509.03C1114.24 1505.48 1119.56 1501.87 1124.91 1498.28C1171.76 1466.75 1217.09 1436.92 1272.39 1423.35C1327.51 1409.67 1386.64 1421.33 1437.57 1385.67C1544.54 1310.83 1655.59 1050.86 1528.89 956.356C1500.31 935.04 1464.56 926.301 1429.93 917.762C1233.45 869.863 1091.95 743.766 938.093 612.759C927.967 604.093 917.504 595.767 906.883 587.592C802.439 507.237 682.519 447.117 587.714 356.427C509.786 281.87 402.181 222.751 297.597 235.889C219.838 245.647 158.959 293.853 103.59 347.949L103.591 347.91Z" fill="#001F9A"/>
<path opacity="0.57" d="M106.45 350.549C43.9744 410.068 -1.84761 491.13 -30.5785 576.572C-78.8172 720.057 -94.3147 876.059 -73.6772 1025.03C-53.0385 1173.94 6.15934 1313.87 100.014 1431.28C255.306 1625.53 528.071 1699.63 760.095 1647.7C878.488 1621.21 1000.78 1581.82 1104.04 1511.66C1109.42 1508.04 1114.77 1504.31 1120.13 1500.63C1167.18 1468.19 1212.64 1436.91 1268.48 1422.68C1324.18 1408.33 1384.08 1420.51 1435.48 1384.27C1541.79 1309.29 1651.4 1049.78 1524.77 956.106C1496.21 934.983 1460.54 926.42 1426.02 918.038C1229.75 871.015 1090.78 743.216 936.872 612.866C926.764 604.258 916.299 596.029 905.637 587.95C801.107 508.792 679.123 451.775 584.53 361.961C507.535 288.856 401.721 230.862 298.751 242.819C222.114 251.714 161.608 298.014 106.45 350.549V350.549Z" fill="#001F9A"/>
<path opacity="0.59" d="M109.328 353.207C45.8997 412.105 -0.217195 493.372 -29.0865 578.947C-77.5626 722.658 -93.0888 879.065 -72.227 1028.37C-51.3639 1177.62 8.29326 1317.75 102.789 1435.06C255.915 1625.12 522.822 1698.33 750.905 1650.35C871.244 1625.03 995.297 1586.31 1099.22 1514.35C1104.62 1510.63 1110.01 1506.83 1115.4 1503.01C1162.64 1469.69 1208.23 1436.95 1264.62 1422.05C1320.9 1407.04 1381.59 1419.74 1433.42 1382.89C1539.08 1307.78 1647.26 1048.7 1520.72 955.857C1492.17 934.909 1456.59 926.522 1422.16 918.316C1226.11 872.168 1089.7 742.669 935.689 612.974C925.599 604.425 915.133 596.273 904.449 588.309C799.834 510.348 675.803 456.455 581.384 367.515C505.341 295.883 401.319 239.013 299.924 249.769C224.41 257.781 164.258 302.155 109.309 353.187L109.328 353.207Z" fill="#001F9A"/>
<path opacity="0.61" d="M112.207 355.846C47.8256 414.122 1.43361 495.577 -27.5944 581.321C-76.3271 725.258 -91.8434 882.072 -70.7569 1031.69C-49.669 1181.25 10.4278 1321.61 105.603 1438.82C256.563 1624.71 517.609 1697.1 741.755 1652.96C864.057 1628.88 989.837 1590.75 1094.42 1517.03C1099.86 1513.21 1105.27 1509.31 1110.68 1505.4C1158.1 1471.19 1203.82 1436.98 1260.77 1421.42C1317.65 1405.74 1379.11 1418.97 1431.38 1381.52C1536.4 1306.3 1643.15 1047.65 1516.66 955.627C1488.13 934.873 1452.64 926.643 1418.29 918.594C1222.44 873.321 1088.57 742.121 934.507 613.102C924.435 604.611 913.946 596.555 903.24 588.706C798.559 511.923 672.465 461.154 578.238 373.089C503.147 302.91 400.917 247.164 301.116 256.739C226.705 263.887 166.927 306.317 112.207 355.826L112.207 355.846Z" fill="#001F9A"/>
<path opacity="0.63" d="M115.065 358.503C49.7132 416.119 3.06456 497.8 -26.1217 583.695C-75.1115 727.878 -90.6368 885.078 -69.3255 1035.01C-48.0129 1184.89 12.5236 1325.47 108.358 1442.57C257.113 1624.32 512.356 1695.96 732.547 1655.59C856.81 1632.79 984.338 1595.22 1089.58 1519.7C1095.04 1515.79 1100.49 1511.79 1105.93 1507.78C1153.54 1472.67 1199.39 1437.01 1256.9 1420.79C1314.35 1404.45 1376.59 1418.21 1429.33 1380.16C1533.71 1304.83 1639.02 1046.59 1512.6 955.417C1484.09 934.857 1448.69 926.802 1414.43 918.91C1218.78 874.492 1087.46 741.592 933.343 613.248C923.289 604.816 912.799 596.837 902.071 589.105C797.304 513.518 669.165 465.834 575.13 378.682C500.992 309.956 400.534 255.335 302.326 263.748C229.038 270.013 169.596 310.498 115.123 358.524L115.065 358.503Z" fill="#001F9A"/>
<path opacity="0.65" d="M117.943 361.161C51.6006 418.116 4.71461 500.023 -24.6492 586.069C-73.8957 730.478 -89.411 888.084 -67.8754 1038.35C-46.3574 1188.54 14.6178 1329.38 111.133 1446.35C257.683 1623.95 507.139 1694.93 723.338 1658.22C849.562 1636.78 978.838 1599.7 1084.72 1522.37C1090.23 1518.38 1095.68 1514.27 1101.15 1510.15C1148.96 1474.15 1194.94 1437.02 1252.99 1420.14C1311.01 1403.13 1374.06 1417.44 1427.21 1378.78C1530.96 1303.34 1634.81 1045.52 1508.47 955.166C1479.97 934.78 1444.67 926.902 1410.5 919.186C1215.06 875.644 1086.27 741.043 932.102 613.374C922.066 605.019 911.574 597.118 900.805 589.481C795.971 515.092 665.788 470.513 571.925 384.235C498.74 316.962 400.075 263.465 303.441 270.696C231.276 276.098 172.15 314.599 117.924 361.141L117.943 361.161Z" fill="#001F9A"/>
<path opacity="0.67" d="M120.821 363.8C53.4699 420.074 6.34565 502.246 -23.157 588.444C-72.6409 733.079 -88.185 891.091 -66.4246 1041.67C-44.6822 1192.2 16.6939 1333.26 113.927 1450.11C258.252 1623.57 501.92 1693.97 714.168 1660.83C842.371 1640.81 973.358 1604.15 1079.92 1525.04C1085.45 1520.96 1090.94 1516.75 1096.45 1512.53C1144.46 1475.65 1190.57 1437.06 1249.15 1419.53C1307.76 1401.86 1371.6 1416.68 1425.19 1377.42C1528.31 1301.86 1630.71 1044.46 1504.43 954.937C1475.95 934.745 1440.74 927.043 1406.64 919.483C1211.42 876.816 1085.18 740.515 930.939 613.502C920.901 605.205 910.407 597.381 899.616 589.86C794.698 516.648 662.469 475.174 568.779 389.808C496.547 323.989 399.653 271.616 304.633 277.666C233.59 282.185 174.782 318.701 120.821 363.8V363.8Z" fill="#001F9A"/>
<path opacity="0.7" d="M123.699 366.458C55.3395 422.012 7.99587 504.469 -21.665 590.818C-71.406 735.699 -86.9402 894.117 -64.9739 1044.99C-43.0068 1195.83 18.7888 1337.16 116.702 1453.87C258.802 1623.22 496.681 1693.08 704.979 1663.46C835.158 1644.94 967.878 1608.63 1075.08 1527.72C1080.65 1523.53 1086.18 1519.25 1091.7 1514.91C1139.98 1477.23 1186.12 1437.09 1245.28 1418.89C1304.46 1400.56 1369.1 1415.93 1423.12 1376.05C1525.61 1300.39 1626.56 1043.42 1500.36 954.726C1471.89 934.728 1436.77 927.183 1402.77 919.799C1207.75 878.007 1084.05 740.005 929.756 613.648C919.736 605.41 909.24 597.683 898.428 590.258C793.443 518.224 659.17 479.854 565.652 395.401C494.372 331.016 399.27 279.787 305.824 284.655C235.904 288.311 177.394 322.823 123.699 366.458V366.458Z" fill="#001F9A"/>
<path opacity="0.72" d="M126.558 369.096C57.171 423.93 9.62734 506.673 -20.1922 593.192C-70.1898 738.299 -85.7335 897.123 -63.5231 1048.32C-41.3312 1199.47 20.8447 1341.07 119.496 1457.63C259.332 1622.88 491.459 1692.26 695.809 1666.07C827.963 1649.12 962.398 1613.07 1070.26 1530.37C1075.85 1526.09 1081.43 1521.72 1086.97 1517.26C1135.44 1478.67 1181.72 1437.08 1241.41 1418.22C1301.17 1399.23 1366.61 1415.16 1421.06 1374.65C1522.94 1298.9 1622.43 1042.32 1496.28 954.458C1467.83 934.634 1432.8 927.265 1398.88 920.057C1204.07 879.121 1082.9 739.437 928.535 613.756C918.533 605.576 908.035 597.945 897.181 590.635C792.11 519.798 655.812 484.514 562.467 400.955C492.159 338.022 398.811 287.917 306.959 291.605C238.142 294.377 179.949 326.885 126.539 369.096L126.558 369.096Z" fill="#001F9A"/>
<path opacity="0.74" d="M129.436 371.754C59.0026 425.829 11.2774 508.896 -18.7004 595.566C-68.9547 740.899 -84.4884 900.13 -62.0731 1051.66C-39.6564 1203.12 22.8998 1345 122.271 1461.4C259.842 1622.56 486.196 1691.54 686.6 1668.71C820.727 1653.44 956.898 1617.56 1065.42 1533.08C1071.05 1528.71 1076.63 1524.23 1082.21 1519.68C1130.88 1480.2 1177.29 1437.14 1237.54 1417.63C1297.87 1397.97 1364.11 1414.44 1418.98 1373.33C1520.25 1297.46 1618.25 1041.31 1492.19 954.266C1463.75 934.636 1428.82 927.443 1394.98 920.392C1200.37 880.33 1081.78 738.946 927.332 613.921C917.348 605.799 906.829 598.245 895.972 591.051C790.836 521.393 652.493 489.193 559.32 406.567C489.965 345.068 398.408 296.087 308.15 298.613C240.456 300.502 182.561 331.006 129.436 371.773L129.436 371.754Z" fill="#001F9A"/>
<path opacity="0.76" d="M132.315 374.393C60.8166 427.67 12.9085 511.12 -17.2078 597.922C-67.7192 743.5 -83.2619 903.117 -60.6218 1054.96C-37.9808 1206.76 24.9364 1348.92 125.066 1465.14C260.373 1622.21 480.913 1690.86 677.431 1671.31C813.529 1657.76 951.419 1622 1060.6 1535.72C1066.26 1531.26 1071.87 1526.68 1077.47 1522.03C1126.34 1481.65 1172.86 1437.13 1233.66 1416.96C1294.59 1396.64 1361.61 1413.65 1416.93 1371.91C1517.58 1295.95 1614.12 1040.19 1488.13 953.998C1459.71 934.561 1424.87 927.526 1391.13 920.651C1196.73 881.464 1080.67 738.36 926.17 614.01C916.204 605.947 905.682 598.49 894.785 591.391C789.582 522.911 649.215 493.797 556.194 412.083C487.812 352.019 398.007 304.181 309.343 305.544C242.772 306.551 185.156 335.012 132.315 374.393V374.393Z" fill="#001F9A"/>
<path opacity="0.78" d="M135.192 377.051C62.6298 429.53 14.5585 513.343 -15.7164 600.316C-66.4651 746.12 -82.0173 906.143 -59.1524 1058.3C-36.2866 1210.42 26.9911 1352.87 127.859 1468.92C260.862 1621.93 475.627 1690.27 668.261 1673.95C806.327 1662.25 945.957 1626.49 1055.8 1538.43C1061.5 1533.88 1067.14 1529.2 1072.76 1524.43C1121.79 1483.17 1168.47 1437.18 1229.83 1416.35C1291.33 1395.37 1359.17 1412.93 1414.91 1370.56C1514.94 1294.51 1610.03 1039.17 1484.1 953.788C1455.69 934.526 1420.94 927.686 1387.27 920.967C1193.08 882.636 1079.56 737.851 925.005 614.176C915.057 606.172 904.534 598.792 893.595 591.808C788.326 524.506 645.934 498.478 553.046 417.695C485.637 359.065 397.604 312.37 310.533 312.553C245.085 312.696 187.749 339.094 135.211 377.071L135.192 377.051Z" fill="#001F9A"/>
<path opacity="0.8" d="M138.051 379.709C64.4056 431.35 16.1896 515.566 -14.2435 602.69C-65.2489 748.72 -80.8109 909.169 -57.7209 1061.62C-34.6303 1214.05 28.9683 1356.85 130.615 1472.68C261.314 1621.63 470.263 1689.74 659.052 1676.56C799.066 1666.78 940.459 1630.93 1050.94 1541.08C1056.66 1536.44 1062.34 1531.66 1067.98 1526.8C1117.22 1484.63 1164.02 1437.2 1225.92 1415.7C1288 1394.05 1356.64 1412.18 1412.79 1369.18C1512.21 1293.06 1605.83 1038.08 1479.98 953.538C1451.59 934.469 1416.93 927.786 1383.36 921.244C1189.38 883.788 1078.41 737.302 923.785 614.283C913.854 606.356 903.31 599.053 892.369 592.167C787.015 526.042 642.617 503.1 549.882 423.229C483.445 366.014 397.169 320.308 311.688 319.483C247.365 318.608 190.307 343.06 138.051 379.689L138.051 379.709Z" fill="#001F9A"/>
<path opacity="0.83" d="M140.929 382.347C66.1825 433.112 17.8397 517.79 -12.7512 605.045C-64.0137 751.321 -79.5654 912.156 -56.2703 1064.94C-32.9554 1217.71 30.9647 1360.82 133.409 1476.46C261.804 1621.37 464.897 1689.28 649.863 1679.19C791.821 1671.45 934.959 1635.4 1046.1 1543.75C1051.86 1539.01 1057.56 1534.14 1063.23 1529.16C1112.66 1486.09 1159.57 1437.21 1222.05 1415.05C1284.7 1392.74 1354.16 1411.43 1410.74 1367.78C1509.55 1291.57 1601.68 1037 1475.91 953.289C1447.53 934.394 1412.97 927.887 1379.48 921.502C1185.72 884.921 1077.28 736.734 922.583 614.391C912.67 606.522 902.124 599.297 891.141 592.544C785.721 527.598 639.299 507.722 546.716 428.802C481.271 373.002 396.747 328.458 312.841 326.452C249.641 324.713 192.844 347.063 140.91 382.347L140.929 382.347Z" fill="#001F9A"/>
<path opacity="0.85" d="M143.807 385.005C67.9406 434.855 19.4899 520.013 -11.2597 607.438C-62.7788 753.941 -78.3399 915.182 -54.8007 1068.28C-31.2611 1221.36 32.9601 1364.83 136.203 1480.23C262.273 1621.13 460.14 1665.1 640.692 1681.84C784.057 1695.13 929.497 1639.9 1041.3 1546.46C1047.08 1541.65 1052.83 1536.66 1058.51 1531.59C1108.13 1487.62 1155.18 1437.28 1218.19 1414.46C1281.43 1391.48 1351.7 1410.73 1408.68 1366.46C1506.9 1290.17 1597.55 1036 1471.83 953.097C1443.47 934.396 1408.98 928.065 1375.59 921.836C1182.04 886.131 1076.13 736.243 921.38 614.556C911.466 606.746 900.957 599.598 889.933 592.961C784.567 528.982 636 512.363 543.569 434.414C479.096 380.048 396.325 336.647 314.032 333.46C251.935 330.838 195.419 351.106 143.807 385.024L143.807 385.005Z" fill="#001F9A"/>
<path opacity="0.87" d="M146.666 387.643C69.6803 436.558 21.102 522.216 -9.78648 609.793C-61.543 756.522 -77.1135 918.169 -53.3689 1071.58C-29.6238 1224.98 34.8982 1368.82 138.978 1483.97C262.706 1620.85 454.758 1667.87 631.504 1684.43C776.68 1698.03 923.999 1644.33 1036.47 1549.1C1042.28 1544.19 1048.03 1539.1 1053.76 1533.93C1103.56 1489.07 1150.75 1437.27 1214.3 1413.79C1278.11 1390.15 1349.21 1409.96 1406.61 1365.05C1504.23 1288.68 1593.4 1034.89 1467.76 952.828C1439.41 934.322 1405.01 928.147 1371.72 922.095C1178.36 887.245 1075.02 735.657 920.198 614.645C910.302 606.893 899.772 599.822 888.726 593.3C783.275 530.519 632.722 516.948 540.423 439.93C476.943 386.96 395.924 344.741 315.206 340.372C254.232 336.886 197.977 355.014 146.667 387.624L146.666 387.643Z" fill="#001F9A"/>
<path opacity="0.89" d="M149.544 390.302C71.4205 438.242 22.7523 524.44 -8.2944 612.168C-60.308 759.142 -75.8875 921.176 -51.9186 1074.92C-27.9487 1228.63 36.8345 1372.88 141.753 1487.75C263.117 1620.63 449.274 1670.82 622.314 1687.08C769.323 1700.88 918.518 1648.81 1031.65 1551.79C1037.49 1546.78 1043.27 1541.62 1049.02 1536.32C1099.01 1490.57 1146.34 1437.31 1210.45 1413.15C1274.85 1388.85 1346.75 1409.22 1404.55 1363.69C1501.57 1287.24 1589.26 1033.85 1463.68 952.618C1435.35 934.286 1401.04 928.306 1367.84 922.411C1174.69 888.436 1073.9 735.147 919.015 614.811C909.137 607.117 898.604 600.143 887.517 593.717C781.98 532.132 629.442 521.59 537.257 445.541C474.75 393.987 395.502 352.93 316.377 347.399C256.526 343.031 200.534 359.018 149.544 390.321L149.544 390.302Z" fill="#001F9A"/>
<path opacity="0.91" d="M152.422 392.94C73.1618 439.868 24.4024 526.663 -6.8025 614.542C-59.0728 761.743 -74.6617 924.182 -50.4487 1078.24C-26.2545 1232.29 38.771 1376.93 144.566 1491.51C263.586 1620.41 443.691 1673.88 613.145 1689.69C762.008 1703.57 913.038 1653.26 1026.83 1554.46C1032.71 1549.36 1038.52 1544.1 1044.31 1538.7C1094.49 1492.05 1141.93 1437.34 1206.6 1412.52C1271.58 1387.56 1344.31 1408.51 1402.51 1362.31C1498.94 1285.79 1585.15 1032.77 1459.63 952.369C1431.31 934.23 1397.1 928.408 1363.97 922.688C1171.03 889.588 1072.77 734.599 917.832 614.919C907.972 607.283 897.418 600.386 886.329 594.076C780.706 533.688 626.203 526.155 534.131 451.077C472.616 400.918 395.101 361.042 317.57 354.33C258.841 349.099 203.131 362.927 152.422 392.94V392.94Z" fill="#001F9A"/>
<path opacity="0.93" d="M155.3 395.598C74.8845 441.475 26.0528 528.887 -5.32973 616.916C-57.8567 764.343 -73.4361 927.208 -49.0172 1081.57C-24.5983 1235.92 40.6488 1381.02 147.322 1495.26C263.958 1620.21 437.931 1677.08 603.936 1692.32C754.676 1706.15 907.539 1657.74 1021.99 1557.13C1027.89 1551.95 1033.74 1546.58 1039.55 1541.09C1089.93 1493.53 1137.5 1437.37 1202.72 1411.89C1268.28 1386.26 1341.83 1407.77 1400.43 1360.95C1496.28 1284.35 1580.98 1031.72 1455.55 952.139C1427.25 934.194 1393.13 928.548 1360.09 922.985C1167.37 890.76 1071.66 734.071 916.63 615.045C906.788 607.469 896.232 600.668 885.102 594.454C779.393 535.263 622.925 530.74 530.965 456.65C470.443 407.887 394.679 369.212 318.723 361.299C261.117 355.185 205.671 366.834 155.281 395.579L155.3 395.598Z" fill="#001F9A"/>
<path opacity="0.96" d="M158.159 398.256C76.5698 443.022 27.6644 531.109 -3.85701 619.29C-56.6411 766.962 -72.2295 930.213 -47.5858 1084.89C-22.9421 1239.56 42.5068 1385.12 150.078 1499.02C264.331 1620 432.033 1680.38 594.728 1694.93C747.367 1708.59 902.04 1662.19 1017.13 1559.79C1023.07 1554.51 1028.94 1549.04 1034.78 1543.43C1085.36 1494.99 1133.05 1437.37 1198.81 1411.22C1264.95 1384.93 1339.33 1407.02 1398.34 1359.54C1493.59 1282.88 1576.8 1030.62 1451.44 951.889C1423.15 934.118 1389.12 928.648 1356.16 923.261C1163.65 891.892 1070.47 733.521 915.39 615.171C905.565 607.672 895.008 600.949 883.855 594.85C778.061 536.856 619.628 535.323 527.78 462.241C468.269 414.875 394.238 377.382 319.876 368.287C263.392 361.309 208.21 370.76 158.139 398.255L158.159 398.256Z" fill="#001F9A"/>
<path opacity="0.98" d="M161.037 400.895C78.2753 444.531 29.3151 533.313 -2.36499 621.665C-55.3864 769.563 -70.9842 933.22 -46.1162 1088.23C-21.2478 1243.21 44.3833 1389.26 152.891 1502.8C264.759 1619.86 425.778 1687.43 585.558 1697.56C740.375 1707.38 896.559 1666.67 1012.31 1562.48C1018.27 1557.11 1024.19 1551.54 1030.04 1545.83C1080.79 1496.48 1128.62 1437.42 1194.96 1410.61C1261.67 1383.66 1336.95 1406.4 1396.3 1358.2C1491.07 1281.58 1572.69 1029.6 1447.4 951.679C1419.13 934.102 1385.19 928.789 1352.32 923.578C1160 893.084 1069.38 732.993 914.245 615.319C904.439 607.878 893.86 601.232 882.685 595.248C776.805 538.451 616.507 539.776 524.672 467.816C466.214 421.75 393.855 385.533 321.087 375.257C265.726 367.416 210.827 374.65 161.037 400.895V400.895Z" fill="#001F9A"/>
<path d="M1443.32 951.449C1415.07 934.066 1381.23 928.929 1348.45 923.875C1156.34 894.256 1068.25 732.464 913.062 615.465C810.654 538.271 622.877 551.99 521.525 473.409C420.173 394.827 278.376 345.704 163.934 403.572C80.0011 446.002 30.9838 535.576 -0.854028 624.059C-54.1321 772.183 -69.7394 936.247 -44.6466 1091.57C-19.5538 1246.89 46.2202 1393.45 155.685 1506.58C265.15 1619.71 419.9 1687.35 576.388 1700.21C732.875 1713.07 891.098 1671.14 1007.51 1565.17C1065.46 1512.43 1116.5 1440.64 1191.11 1410C1258.39 1382.38 1334.45 1405.63 1394.24 1356.84C1488.34 1280.05 1568.56 1028.54 1443.32 951.449V951.449Z" fill="#001F9A"/>
<path d="M166.578 410.441C280.651 351.81 422.25 398.665 524.549 475.606C626.171 552.531 812.142 539.949 914.171 616.864C1068.41 733.144 1156.24 894.156 1344.56 926.279C1376.69 931.782 1409.85 937.348 1437.46 954.929C1559.89 1033.48 1480.08 1282.35 1385.92 1359.49C1326.94 1407.7 1251.98 1385.36 1185.59 1412.77C1111.95 1443.16 1061.31 1513.76 1003.88 1565.65C888.633 1669.87 732.358 1711.14 577.703 1698.54C421.462 1685.88 267.269 1618.37 158.164 1505.59C49.0582 1392.81 -16.4905 1246.55 -40.9697 1091.46C-65.4767 937.564 -49.6779 775.245 3.34942 628.759C35.0493 541.22 83.6935 452.721 166.598 410.441L166.578 410.441Z" fill="#051F9C"/>
<path d="M169.242 417.328C283.111 358.306 424.566 402.2 527.572 477.822C629.685 552.786 813.63 541.666 915.259 618.281C1068.55 733.843 1156.13 894.096 1340.64 928.702C1372.14 934.635 1404.63 940.572 1431.56 958.427C1551.49 1038.02 1471.79 1284.67 1377.57 1362.16C1319.37 1409.79 1245.54 1388.39 1180.01 1415.58C1107.35 1445.74 1057.12 1515.14 1000.21 1566.16C886.129 1668.61 731.783 1709.27 578.979 1696.88C423.004 1684.44 269.33 1617.06 160.604 1504.62C51.8577 1392.18 -13.4663 1246.24 -37.3323 1091.39C-61.2342 938.919 -45.2631 778.345 7.5138 633.477C39.0564 546.882 87.4764 459.712 169.223 417.328L169.242 417.328Z" fill="#0B1F9E"/>
<path d="M171.886 424.216C285.479 364.588 426.724 405.905 530.576 480.039C633.079 553.213 815.099 543.363 916.349 619.68C1068.67 734.504 1156 893.996 1336.73 931.086C1367.59 937.449 1399.41 943.796 1425.68 961.907C1542.97 1042.75 1463.52 1286.98 1369.23 1364.8C1311.84 1411.85 1239.11 1391.39 1174.47 1418.35C1102.78 1448.26 1052.95 1516.47 996.585 1566.66C883.663 1667.33 731.266 1707.36 580.294 1695.23C424.566 1682.99 271.45 1615.74 163.082 1503.66C54.6956 1391.57 -10.0926 1245.87 -33.6363 1091.3C-56.6423 940.225 -40.7705 781.428 11.7363 638.197C43.1405 552.565 91.2431 466.568 171.905 424.236L171.886 424.216Z" fill="#101FA1"/>
<path d="M174.55 431.104C287.847 370.889 428.9 409.61 533.6 482.255C636.454 553.62 816.587 545.08 917.438 621.097C1068.81 735.203 1155.88 893.916 1332.83 933.51C1363.03 940.322 1394.19 947.059 1419.79 965.405C1534.45 1047.53 1455.41 1289.51 1360.87 1367.47C1304.38 1414.06 1232.66 1394.41 1168.91 1421.16C1098.18 1450.85 1048.78 1517.84 992.918 1567.17C881.16 1666.08 730.692 1705.47 581.569 1693.6C426.108 1681.56 273.53 1614.43 165.522 1502.71C57.5142 1390.96 -6.97188 1245.57 -29.9987 1091.23C-52.3218 941.563 -36.3555 784.528 15.9006 642.935C47.1667 558.248 94.9516 473.441 174.549 431.143L174.55 431.104Z" fill="#1520A3"/>
<path d="M177.214 437.992C290.235 377.171 431.077 413.315 536.643 484.473C639.847 554.047 818.095 546.778 918.545 622.515C1068.95 735.903 1155.77 893.856 1328.94 935.933C1358.5 943.175 1388.99 950.322 1413.93 968.905C1525.96 1052.32 1447.2 1291.88 1352.55 1370.14C1296.88 1416.17 1226.27 1397.43 1163.4 1423.95C1093.63 1453.39 1044.62 1519.22 989.309 1567.67C878.694 1664.82 730.194 1703.59 582.904 1691.93C427.688 1680.11 275.649 1613.11 168.001 1501.72C60.3522 1390.33 -3.81158 1245.22 -26.3219 1091.12C-47.9621 942.863 -31.8816 787.571 20.1043 647.615C51.2326 563.872 98.7002 480.238 177.214 437.992V437.992Z" fill="#1A20A5"/>
<path d="M179.877 444.88C292.603 383.453 433.234 417.02 539.666 486.689C643.222 554.493 819.583 548.495 919.654 623.914C1069.11 736.564 1155.67 893.757 1325.04 938.318C1353.95 946.009 1383.77 953.566 1408.05 972.365C1517.44 1057.07 1438.96 1294.22 1344.21 1372.77C1289.37 1418.24 1219.83 1400.42 1157.86 1426.71C1089.07 1455.91 1040.47 1520.53 985.682 1568.13C876.229 1663.51 729.678 1701.64 584.22 1690.24C429.251 1678.61 277.77 1611.75 170.48 1500.71C63.1909 1389.68 -0.670324 1244.87 -22.6448 1091.01C-43.6215 944.163 -27.4272 790.633 24.308 652.315C55.2978 569.536 102.449 487.055 179.878 444.861L179.877 444.88Z" fill="#2020A7"/>
<path d="M182.541 451.768C294.991 389.735 435.391 420.744 542.69 488.906C646.596 554.92 821.072 550.192 920.743 625.332C1069.22 737.263 1155.56 893.677 1321.13 940.741C1349.41 948.862 1378.55 956.829 1402.16 975.864C1508.93 1061.88 1430.73 1296.58 1335.87 1375.44C1281.86 1420.34 1213.4 1403.44 1152.32 1429.52C1084.5 1458.5 1036.32 1521.91 982.035 1568.64C873.745 1662.25 729.123 1699.75 585.515 1688.6C430.812 1677.2 279.869 1610.46 172.939 1499.77C66.0289 1389.07 2.47019 1244.56 -18.9684 1090.95C-39.2628 945.521 -22.9736 793.734 28.5109 657.054C59.3627 575.219 106.197 493.891 182.541 451.768V451.768Z" fill="#2520A9"/>
<path d="M185.204 458.656C297.359 396.016 437.529 424.449 545.713 491.142C649.95 555.384 822.559 551.909 921.851 626.769C1069.38 737.962 1155.44 893.635 1317.25 943.184C1344.88 951.754 1373.35 960.13 1396.3 979.382C1500.45 1066.73 1422.51 1298.98 1327.55 1378.13C1274.36 1422.47 1207.01 1406.48 1146.78 1432.33C1079.94 1461.06 1032.15 1523.28 978.406 1569.17C871.278 1661.03 728.631 1697.59 586.809 1686.99C432.38 1675.44 281.949 1609.17 175.397 1498.84C68.8461 1388.5 5.60929 1244.28 -15.3124 1090.89C-34.9432 946.878 -18.5209 796.853 32.6939 661.792C63.4078 580.901 109.905 500.725 185.184 458.694L185.204 458.656Z" fill="#2A20AC"/>
<path d="M187.868 465.544C299.727 402.278 439.667 428.172 548.756 493.359C653.305 555.83 824.067 553.627 922.959 628.168C1069.52 738.642 1155.35 893.536 1313.34 945.588C1340.33 954.587 1368.13 963.393 1390.42 982.862C1491.94 1071.54 1414.25 1301.32 1319.21 1380.78C1266.83 1424.56 1200.57 1409.48 1141.24 1435.12C1075.35 1463.62 1028 1524.63 974.758 1569.67C868.793 1659.76 728.077 1695.65 588.105 1685.32C433.923 1673.95 284.049 1607.83 177.857 1497.85C71.6655 1387.85 8.73073 1243.95 -11.6551 1090.81C-30.6228 948.216 -14.0863 799.934 36.8777 666.51C67.4532 586.584 113.634 507.542 187.848 465.582L187.868 465.544Z" fill="#3020AE"/>
<path d="M190.532 472.432C302.097 408.521 441.804 431.896 551.779 495.576C656.64 556.294 825.536 555.324 924.067 629.586C1069.68 739.342 1155.36 893.131 1309.46 947.992C1335.81 957.383 1362.93 966.657 1384.55 986.342C1483.45 1076.37 1406.04 1303.66 1310.89 1383.43C1259.34 1426.65 1194.16 1412.49 1135.73 1437.89C1070.8 1466.14 1023.85 1525.99 971.15 1570.15C866.348 1658.46 727.58 1693.7 589.439 1683.65C435.525 1672.44 286.188 1606.51 180.356 1496.86C74.5231 1387.22 11.8913 1243.6 -7.93935 1090.7C-26.2628 949.516 -9.59274 802.978 41.12 671.211C71.5575 592.229 117.403 514.339 190.551 472.451L190.532 472.432Z" fill="#3520B0"/>
<path d="M193.195 479.32C304.465 414.784 443.922 435.639 554.803 497.792C659.976 556.739 827.024 557.041 925.156 631.003C1069.8 740.022 1155.26 893.032 1305.55 950.415C1331.26 960.236 1357.7 969.939 1378.67 989.84C1474.97 1081.24 1397.8 1306.03 1302.53 1386.09C1251.78 1428.73 1187.73 1415.51 1130.17 1440.7C1066.22 1468.73 1019.68 1527.36 967.502 1570.66C863.863 1657.23 727.025 1691.79 590.735 1682.02C437.067 1670.98 288.268 1605.2 182.814 1495.92C77.3604 1386.63 15.0119 1243.3 -4.28254 1090.63C-21.943 950.874 -5.13929 806.079 45.3039 675.93C75.6029 597.911 121.132 521.136 193.195 479.339L193.195 479.32Z" fill="#3A20B2"/>
<path d="M195.859 486.208C306.835 421.027 446.04 439.381 557.826 500.009C663.31 557.222 828.512 558.738 926.265 632.402C1069.96 740.702 1155.17 892.933 1301.67 952.819C1326.75 963.07 1352.5 973.221 1372.81 993.32C1466.48 1086.11 1389.57 1308.37 1294.21 1388.74C1244.29 1430.82 1181.32 1418.49 1124.65 1443.47C1061.67 1471.27 1015.53 1528.69 963.874 1571.16C861.398 1655.95 726.509 1689.87 592.05 1680.34C438.649 1669.49 290.388 1603.86 185.294 1494.93C80.1992 1385.98 18.1527 1242.97 -0.605406 1090.52C-17.6221 952.192 -0.684838 809.141 49.5075 680.63C79.6686 603.556 124.862 527.913 195.859 486.208V486.208Z" fill="#3F21B4"/>
<path d="M198.523 493.096C309.204 427.27 448.138 443.124 560.869 502.226C666.645 557.686 830.019 560.456 927.373 633.82C1070.1 741.382 1155.1 892.834 1297.76 955.223C1322.19 965.904 1347.28 976.484 1366.91 996.799C1457.95 1090.98 1381.31 1310.71 1285.86 1391.39C1236.74 1432.89 1174.86 1421.49 1119.07 1446.26C1057.07 1473.81 1011.34 1530.05 960.208 1571.65C858.894 1654.67 725.954 1687.94 593.326 1678.69C440.173 1668 292.469 1602.55 187.734 1493.94C82.9987 1385.35 21.2354 1242.63 3.03244 1090.43C-13.34 953.51 3.74966 812.222 53.6719 685.348C83.695 609.218 128.553 534.709 198.484 493.114L198.523 493.096Z" fill="#4521B7"/>
<path d="M201.186 499.983C311.573 433.493 450.256 446.885 563.893 504.443C669.96 558.169 831.508 562.153 928.481 635.238C1070.25 742.082 1155.02 892.736 1293.88 957.647C1317.66 968.757 1342.06 979.785 1361.04 1000.3C1449.47 1095.89 1373.1 1313.07 1277.54 1394.06C1229.24 1435 1168.47 1424.52 1113.56 1449.06C1052.5 1476.37 1007.21 1531.4 956.579 1572.15C856.428 1653.4 725.418 1686.03 594.64 1677.04C441.754 1666.53 294.569 1601.23 190.212 1492.97C85.8561 1384.72 24.3756 1242.32 6.72821 1090.34C-9.0005 954.848 8.22275 815.304 57.914 690.049C87.7987 614.883 132.321 541.468 201.205 499.984L201.186 499.983Z" fill="#4A21B9"/>
<path d="M203.83 506.871C313.904 439.716 452.316 450.627 566.897 506.659C673.237 558.652 832.976 563.87 929.551 636.636C1070.35 742.761 1154.89 892.617 1289.96 960.05C1313.11 971.61 1336.82 983.067 1355.14 1003.78C1440.92 1100.79 1364.82 1315.41 1269.18 1396.71C1221.69 1437.06 1162.02 1427.52 1108 1451.83C1047.92 1478.9 1002.95 1532.64 952.933 1572.62C853.775 1651.91 724.884 1684.09 595.937 1675.35C443.298 1665.02 296.67 1599.87 192.673 1491.97C88.6754 1384.07 27.4781 1241.97 10.3864 1090.22C-4.71792 956.146 12.6582 818.346 62.0987 694.729C91.8455 620.507 136.014 548.206 203.851 506.833L203.83 506.871Z" fill="#4F21BB"/>
<path d="M206.494 513.759C316.274 445.94 454.413 454.408 569.921 508.876C676.532 559.154 834.465 565.567 930.659 638.054C1070.51 743.442 1154.81 892.538 1286.05 962.454C1308.56 974.444 1331.6 986.35 1349.26 1007.26C1432.41 1105.72 1356.57 1317.75 1260.84 1399.36C1214.16 1439.15 1155.59 1430.52 1102.46 1454.62C1043.35 1481.46 998.775 1533.99 949.304 1573.14C851.29 1650.65 724.348 1682.18 597.251 1673.72C444.859 1663.56 298.769 1598.58 195.151 1491.02C91.513 1383.48 30.5989 1241.67 14.0623 1090.17C-0.39825 957.523 17.1312 821.447 66.3012 699.487C95.91 626.21 139.743 555.022 206.514 513.76L206.494 513.759Z" fill="#5521BD"/>
<path d="M209.158 520.647C318.625 452.144 456.492 458.169 572.963 511.093C679.847 559.656 835.972 567.285 931.767 639.472C1070.65 744.141 1154.74 892.459 1282.17 964.878C1304.02 977.297 1326.4 989.651 1343.39 1010.76C1423.9 1110.67 1348.35 1320.1 1252.5 1402.03C1206.62 1441.24 1149.17 1433.54 1096.92 1457.41C1038.79 1484.02 994.624 1535.34 945.657 1573.63C848.805 1649.37 723.812 1680.27 598.547 1672.06C446.421 1662.09 300.869 1597.26 197.61 1490.05C94.3316 1382.84 33.7002 1241.36 17.7386 1090.08C3.90248 958.861 21.5849 824.528 70.5045 704.187C99.9748 631.873 143.454 561.76 209.177 520.628L209.158 520.647Z" fill="#5A21BF"/>
<path d="M211.821 527.535C320.975 458.347 458.569 461.968 575.987 513.309C683.142 560.177 837.46 568.982 932.875 640.87C1070.81 744.802 1154.66 892.36 1278.28 967.282C1299.51 980.151 1321.18 992.953 1337.53 1014.24C1415.38 1115.61 1340.12 1322.44 1244.18 1404.67C1199.11 1443.31 1142.76 1436.55 1091.38 1460.2C1034.22 1486.57 990.454 1536.7 942.029 1574.13C846.34 1648.1 723.295 1678.36 599.862 1670.39C447.984 1660.6 302.989 1595.91 200.07 1489.06C97.1698 1382.21 36.783 1241.02 21.3963 1089.97C8.16525 960.178 26.0198 827.59 74.6887 708.887C104.021 637.517 147.146 568.498 211.822 527.515L211.821 527.535Z" fill="#5F21C2"/>
<path d="M214.485 534.423C323.326 464.532 460.648 465.749 579.01 515.545C686.417 560.717 838.929 570.699 933.964 642.308C1070.93 745.521 1154.57 892.3 1274.38 969.705C1294.95 983.004 1315.94 996.254 1331.65 1017.73C1406.83 1120.62 1331.86 1324.78 1235.84 1407.34C1191.58 1445.4 1136.33 1439.57 1085.85 1462.99C1029.64 1489.13 986.303 1538.05 938.381 1574.63C843.836 1646.82 722.74 1676.44 601.157 1668.74C449.546 1659.13 305.069 1594.61 202.529 1488.1C99.9887 1381.58 39.8648 1240.73 25.0535 1089.88C12.4469 961.515 30.4738 830.671 78.8725 713.605C108.066 643.199 150.838 575.255 214.485 534.403L214.485 534.423Z" fill="#6421C4"/>
<path d="M217.149 541.311C325.658 470.716 462.706 469.548 582.033 517.762C689.693 561.238 840.417 572.416 935.072 643.726C1071.09 746.22 1154.47 892.22 1270.47 972.128C1290.42 985.857 1310.72 999.575 1325.76 1021.25C1398.28 1125.62 1323.61 1327.16 1227.5 1410.03C1184.05 1447.5 1129.91 1442.61 1080.31 1465.82C1025.07 1491.71 982.132 1539.44 934.752 1575.18C841.37 1645.58 722.223 1674.59 602.452 1667.15C451.087 1657.73 307.168 1593.34 204.987 1487.19C102.806 1381.03 42.946 1240.47 28.7092 1089.87C16.7077 962.929 34.9068 833.83 83.0552 718.382C112.092 648.92 154.528 582.07 217.128 541.349L217.149 541.311Z" fill="#6A22C6"/>
<path d="M219.812 548.199C327.99 476.9 464.764 473.367 585.076 519.979C692.987 561.779 841.925 574.114 936.181 645.124C1071.24 746.882 1154.4 892.122 1266.59 974.533C1285.89 988.711 1305.5 1002.88 1319.9 1024.73C1389.73 1130.62 1315.38 1329.48 1219.18 1412.68C1176.53 1449.57 1123.5 1445.61 1074.79 1468.6C1020.53 1494.25 978.002 1540.78 931.144 1575.66C838.925 1644.29 721.707 1672.66 603.786 1665.48C452.668 1656.24 309.307 1592.02 207.485 1486.2C105.664 1380.38 46.0674 1240.14 32.4248 1089.76C21.0284 964.247 39.4195 836.874 87.2974 723.083C116.196 654.565 158.279 588.79 219.831 548.219L219.812 548.199Z" fill="#6F22C8"/>
<path d="M222.476 555.087C330.342 483.066 466.822 477.185 588.1 522.196C696.243 562.338 843.413 575.831 937.269 646.542C1071.36 747.581 1154.3 892.062 1262.68 976.937C1281.33 991.544 1300.26 1006.18 1314.02 1028.21C1381.14 1135.62 1307.12 1331.8 1210.84 1415.33C1169 1451.64 1117.07 1448.62 1069.25 1471.39C1015.96 1496.82 973.832 1542.13 927.497 1576.15C836.421 1643.01 721.171 1670.75 605.082 1663.8C454.231 1654.77 311.388 1590.68 209.945 1485.21C108.502 1379.75 49.1498 1239.82 36.0826 1089.65C25.2913 965.565 43.8546 839.936 91.4821 727.763C120.242 660.209 161.952 595.489 222.476 555.067L222.476 555.087Z" fill="#7422CA"/>
<path d="M225.139 561.975C332.655 489.21 468.88 481.023 591.123 524.413C699.517 562.897 844.901 577.528 938.377 647.96C1071.52 748.261 1154.21 891.982 1258.78 979.36C1276.8 994.417 1295.01 1009.52 1308.13 1031.71C1372.56 1140.67 1298.85 1334.14 1202.48 1418C1161.45 1453.73 1110.63 1451.64 1063.69 1474.18C1011.38 1499.36 969.661 1543.48 923.849 1576.65C833.936 1641.74 720.615 1668.87 606.377 1662.15C455.772 1653.32 313.488 1589.35 212.404 1484.25C111.32 1379.14 52.2125 1239.5 39.7391 1089.58C29.5524 966.94 48.2884 843.036 95.6652 732.501C124.287 665.891 165.644 602.246 225.119 561.993L225.139 561.975Z" fill="#7A22CD"/>
<path d="M227.803 568.863C334.987 495.375 470.937 484.861 594.147 526.629C702.773 563.456 846.389 579.245 939.466 649.358C1071.64 748.94 1154.11 891.903 1254.87 981.764C1272.25 997.25 1289.76 1012.82 1302.25 1035.19C1363.93 1145.69 1290.59 1336.45 1194.15 1420.65C1153.9 1455.78 1104.2 1454.62 1058.14 1476.95C1006.77 1501.9 965.472 1544.82 920.182 1577.14C831.433 1640.46 720.06 1666.96 607.653 1660.5C457.296 1651.84 315.568 1588.05 214.844 1483.28C114.12 1378.51 55.2561 1239.19 43.3963 1089.49C33.7954 968.276 52.7423 846.117 99.849 737.22C128.333 671.554 169.317 608.964 227.783 568.881L227.803 568.863Z" fill="#7F22CF"/>
<path d="M230.467 575.75C337.301 501.501 472.976 488.698 597.19 528.846C706.047 564.035 847.897 580.943 940.594 650.776C1071.82 749.641 1154.04 891.843 1251.01 984.168C1267.73 1000.1 1284.55 1016.12 1296.41 1038.67C1355.34 1150.73 1282.36 1338.77 1185.85 1423.3C1146.4 1457.84 1097.81 1457.62 1052.64 1479.74C1002.25 1504.45 961.36 1546.17 916.593 1577.64C829.006 1639.19 719.562 1665.05 609.007 1658.83C458.916 1650.37 317.707 1586.7 217.362 1482.29C117.016 1377.88 58.3579 1238.87 47.1121 1089.39C38.097 969.594 57.2354 849.18 104.092 741.902C132.438 677.2 173.049 615.644 230.486 575.732L230.467 575.75Z" fill="#8422D1"/>
<path d="M233.111 582.638C339.596 507.626 474.994 492.574 600.194 531.062C709.283 564.613 849.365 582.659 941.663 652.194C1071.92 750.32 1153.92 891.782 1247.06 986.591C1263.16 1002.96 1279.25 1019.46 1290.49 1042.17C1346.66 1155.8 1274.07 1341.09 1177.47 1425.96C1138.81 1459.91 1091.36 1460.65 1047.06 1482.53C997.642 1507.01 957.151 1547.54 912.927 1578.13C826.502 1637.91 719.007 1663.16 610.284 1657.18C460.439 1648.92 319.788 1585.38 219.802 1481.32C119.815 1377.27 61.4016 1238.56 50.7497 1089.32C42.3199 970.969 61.6507 852.26 108.256 746.639C136.464 682.882 176.703 622.381 233.111 582.638V582.638Z" fill="#8922D3"/>
<path d="M235.775 589.526C341.891 513.751 477.051 496.431 603.217 533.279C712.537 565.211 850.854 584.357 942.772 653.592C1072.08 751 1153.83 891.703 1243.18 988.995C1258.63 1005.81 1274.01 1022.78 1284.62 1045.65C1338.01 1160.86 1265.81 1343.41 1169.15 1428.61C1131.3 1461.98 1084.94 1463.65 1041.54 1485.32C993.096 1509.57 953.02 1548.9 909.299 1578.63C824.037 1636.65 718.471 1661.27 611.598 1655.52C462 1647.49 321.907 1584.07 222.281 1480.36C122.654 1376.64 64.4642 1238.26 54.4264 1089.23C46.563 972.305 66.124 855.342 112.459 751.358C140.529 688.545 180.376 629.08 235.775 589.526V589.526Z" fill="#8F23D5"/>
<path d="M238.438 596.414C344.185 519.857 479.088 500.327 606.241 535.496C715.792 565.808 852.342 586.074 943.861 655.01C1072.2 751.68 1153.71 891.661 1239.27 991.399C1254.07 1008.66 1268.75 1026.08 1278.72 1049.13C1329.31 1165.92 1257.52 1345.72 1160.79 1431.26C1123.73 1464.03 1078.49 1466.65 1035.99 1488.1C988.511 1512.09 948.85 1550.23 905.651 1579.13C821.552 1635.38 717.935 1659.37 612.894 1653.85C463.562 1646.02 323.988 1582.73 224.74 1479.37C125.472 1376.01 67.4884 1237.94 58.1032 1089.12C50.8063 973.621 70.5782 858.404 116.663 756.039C144.595 694.189 184.07 635.76 238.438 596.395L238.438 596.414Z" fill="#9423D7"/>
<path d="M241.102 603.302C346.48 525.963 481.125 504.203 609.264 537.712C719.045 566.425 853.811 587.771 944.969 656.428C1072.35 752.38 1153.62 891.601 1235.39 993.822C1249.54 1011.52 1263.51 1029.42 1272.86 1052.63C1320.6 1171.02 1249.27 1348.04 1152.47 1433.93C1116.21 1466.12 1072.1 1469.67 1030.45 1490.91C983.926 1514.67 944.679 1551.61 902.023 1579.64C819.086 1634.12 717.398 1657.5 614.208 1652.22C465.123 1644.6 326.107 1581.43 227.218 1478.42C128.329 1375.4 70.5315 1237.65 61.7792 1089.05C55.0483 974.996 75.0316 861.505 120.866 760.778C148.659 699.872 187.743 642.478 241.121 603.302L241.102 603.302Z" fill="#9923DA"/>
<path d="M243.765 610.19C348.757 532.049 483.162 508.118 612.307 539.93C722.319 567.043 855.319 589.469 946.078 657.827C1072.49 753.06 1153.52 891.541 1231.48 996.226C1245.01 1014.37 1258.23 1032.74 1266.97 1056.11C1311.88 1176.07 1240.98 1350.32 1144.11 1436.58C1108.64 1468.16 1065.64 1472.68 1024.89 1493.68C979.342 1517.2 940.51 1552.94 898.357 1580.12C816.583 1632.83 716.843 1655.59 615.485 1650.55C466.646 1643.13 328.188 1580.1 229.659 1477.43C131.129 1374.76 73.5367 1237.33 65.4174 1088.96C59.2529 976.331 79.4663 864.586 125.03 765.496C152.685 705.554 191.379 649.156 243.746 610.189L243.765 610.19Z" fill="#9E23DC"/>
<path d="M246.428 617.097C351.032 538.155 485.197 512.052 615.33 542.185C725.572 567.699 856.806 591.225 947.185 659.284C1072.65 753.779 1153.4 891.519 1227.6 998.669C1240.47 1017.26 1252.97 1036.1 1261.11 1059.63C1303.15 1181.19 1232.72 1352.66 1135.79 1439.27C1101.11 1470.25 1059.23 1475.72 1019.37 1496.51C974.795 1519.8 936.377 1554.35 894.747 1580.65C814.136 1631.61 716.325 1653.74 616.819 1648.92C468.245 1641.71 330.307 1578.8 232.156 1476.49C133.986 1374.17 76.5991 1237.03 69.132 1088.89C63.5147 977.688 83.9583 867.688 129.272 770.216C156.789 711.219 195.071 655.856 246.448 617.078L246.428 617.097Z" fill="#A423DE"/>
<path d="M249.092 623.985C353.289 544.221 487.233 515.986 618.353 544.402C728.826 568.335 858.294 592.922 948.273 660.701C1072.77 754.478 1153.27 891.477 1223.69 1001.09C1235.92 1020.11 1247.69 1039.43 1255.23 1063.12C1294.37 1186.28 1224.43 1354.96 1127.45 1441.93C1093.56 1472.32 1052.82 1478.74 1013.83 1499.3C970.229 1522.36 932.207 1555.71 891.099 1581.17C811.651 1630.35 715.787 1651.89 618.094 1647.28C469.767 1640.3 332.387 1577.49 234.576 1475.54C136.785 1373.56 79.5646 1236.76 72.7502 1088.82C67.6988 979.061 88.3736 870.768 133.417 774.953C160.796 716.9 198.687 662.553 249.053 623.984L249.092 623.985Z" fill="#A923E0"/>
<path d="M251.755 630.873C355.528 550.268 489.269 519.92 621.377 546.618C732.079 568.991 859.782 594.639 949.382 662.1C1072.93 755.139 1153.17 891.417 1219.79 1003.5C1231.37 1022.97 1242.41 1042.75 1249.34 1066.6C1285.57 1191.36 1216.14 1357.25 1119.11 1444.58C1086.01 1474.37 1046.38 1481.74 1008.3 1502.07C965.664 1524.89 928.056 1557.04 887.471 1581.64C809.205 1629.08 715.251 1649.98 619.409 1645.61C471.329 1638.85 334.487 1576.17 237.055 1474.55C139.623 1372.93 82.5887 1236.44 76.4266 1088.73C71.9223 980.396 92.8273 873.85 137.639 779.673C164.88 722.584 202.361 669.232 251.736 630.892L251.755 630.873Z" fill="#AE23E2"/>
<path d="M254.419 637.761C357.766 556.314 491.305 523.874 624.42 548.836C735.352 569.647 861.29 596.337 950.49 663.518C1073.07 755.839 1153.06 891.375 1215.9 1005.9C1226.83 1025.82 1237.15 1046.06 1243.48 1070.08C1276.77 1196.43 1207.86 1359.53 1110.79 1447.23C1078.48 1476.42 1039.97 1484.75 1002.78 1504.86C961.118 1527.45 923.925 1558.41 883.863 1582.14C806.759 1627.8 714.754 1648.1 620.744 1643.96C472.909 1637.43 336.626 1574.84 239.554 1473.56C142.481 1372.28 85.6134 1236.12 80.1233 1088.62C76.1463 981.732 97.3014 876.912 141.863 784.354C168.965 728.209 206.036 675.873 254.439 637.742L254.419 637.761Z" fill="#B423E5"/>
<path d="M257.083 644.649C360.005 562.341 493.34 527.827 627.443 551.052C738.605 570.302 862.778 598.054 951.598 664.936C1073.22 756.538 1152.93 891.314 1212.02 1008.32C1222.3 1028.67 1231.87 1049.39 1237.62 1073.58C1267.95 1201.53 1199.57 1361.83 1102.47 1449.9C1070.94 1478.48 1033.58 1487.77 997.24 1507.65C956.533 1530.01 919.774 1559.77 880.216 1582.63C804.274 1626.55 714.217 1646.23 622.04 1642.29C474.47 1636 338.726 1573.52 242.013 1472.58C145.3 1371.65 88.5994 1235.79 83.8002 1088.52C80.3703 983.048 101.775 879.975 146.066 789.054C173.031 733.853 209.691 682.532 257.103 644.611L257.083 644.649Z" fill="#B924E7"/>
<path d="M259.747 651.537C362.225 568.349 495.376 531.8 630.467 553.269C741.857 570.978 864.266 599.752 952.687 666.334C1073.34 757.198 1152.79 891.253 1208.11 1010.73C1217.74 1031.53 1226.59 1052.71 1231.73 1077.06C1259.09 1206.58 1191.26 1364.09 1094.12 1452.55C1063.37 1480.53 1027.13 1490.75 991.683 1510.45C951.949 1532.55 915.604 1561.12 876.568 1583.15C801.808 1625.31 713.661 1644.38 623.335 1640.66C476.011 1634.61 340.807 1572.22 244.472 1471.63C148.137 1371.06 91.565 1235.51 87.4572 1088.45C84.5547 984.422 106.209 883.075 150.25 793.792C177.076 739.555 213.327 689.211 259.747 651.518L259.747 651.537Z" fill="#BE24E9"/>
<path d="M262.41 658.425C364.425 574.356 497.411 535.772 633.49 555.485C745.11 571.653 865.754 601.469 953.795 667.752C1073.5 757.898 1152.66 891.211 1204.21 1013.13C1213.19 1034.38 1221.3 1056.01 1225.85 1080.56C1250.21 1211.65 1182.95 1366.38 1085.78 1455.22C1055.82 1482.6 1020.69 1493.77 986.145 1513.24C947.383 1535.12 911.433 1562.49 872.92 1583.64C799.323 1624.05 713.124 1642.49 624.63 1639C477.552 1633.19 342.907 1570.89 246.931 1470.66C150.956 1370.43 94.5307 1235.21 91.1137 1088.38C88.7197 985.776 110.644 886.156 154.433 798.511C181.122 745.218 216.943 695.87 262.391 658.405L262.41 658.425Z" fill="#C324EB"/>
<path d="M265.054 665.312C366.588 580.343 499.445 539.764 636.514 557.702C748.362 572.347 867.223 603.166 954.884 669.17C1073.62 758.578 1152.5 891.169 1200.3 1015.55C1208.64 1037.23 1216 1059.35 1219.97 1084.06C1241.31 1216.73 1174.64 1368.66 1077.44 1457.89C1048.27 1484.67 1014.28 1496.8 980.606 1516.05C942.817 1537.68 907.282 1563.89 869.292 1584.16C796.877 1622.82 712.587 1640.64 625.945 1637.35C479.132 1631.78 345.026 1569.59 249.41 1469.69C153.794 1369.82 97.5164 1234.89 94.8098 1088.29C92.9435 987.111 115.136 889.238 158.656 803.231C185.187 750.882 220.599 702.529 265.074 665.313L265.054 665.312Z" fill="#C924ED"/>
<path d="M267.718 672.2C368.75 586.329 501.499 543.776 639.537 559.919C751.634 573.022 868.711 604.863 955.973 670.568C1073.76 759.258 1152.35 891.088 1196.4 1017.96C1204.09 1040.09 1210.68 1062.65 1214.08 1087.54C1232.4 1221.76 1166.31 1370.9 1069.1 1460.54C1040.72 1486.72 1007.85 1499.8 975.069 1518.82C938.252 1540.22 903.131 1565.22 865.664 1584.64C794.411 1621.54 712.07 1638.75 627.26 1635.68C480.693 1630.36 347.126 1568.24 251.889 1468.71C156.652 1369.17 100.463 1234.57 98.4867 1088.18C97.1284 988.446 119.59 892.3 162.859 807.93C189.252 756.545 224.235 709.169 267.757 672.182L267.718 672.2Z" fill="#CE24F0"/>
<path d="M270.382 679.088C370.913 592.278 503.533 547.788 642.561 562.135C754.905 573.736 870.199 606.58 957.082 671.986C1073.9 759.957 1152.22 891.046 1192.5 1020.36C1199.53 1042.94 1205.38 1065.97 1208.2 1091.02C1223.46 1226.77 1157.98 1373.14 1060.76 1463.18C1033.15 1488.75 1001.41 1502.8 969.512 1521.61C933.648 1542.78 898.961 1566.59 861.997 1585.15C791.926 1620.3 711.494 1636.9 628.536 1634.05C482.214 1628.99 349.206 1566.94 254.329 1467.76C159.451 1368.58 103.391 1234.27 102.124 1088.13C101.274 989.819 124.024 895.42 167.023 812.668C193.278 762.227 227.813 715.827 270.382 679.088V679.088Z" fill="#D324F2"/>
<path d="M273.045 685.976C373.057 598.225 505.586 551.819 645.584 564.352C758.177 574.45 871.688 608.278 958.17 673.403C1074.04 760.637 1151.83 891.057 1188.59 1022.79C1194.92 1045.81 1200.08 1069.29 1202.32 1094.52C1214.5 1231.83 1149.65 1375.39 1052.42 1465.85C1025.6 1490.81 995 1505.82 963.974 1524.4C929.083 1545.33 894.809 1567.97 858.369 1585.65C789.479 1619.07 710.976 1635.05 629.851 1632.38C483.794 1627.57 351.326 1565.61 256.807 1466.77C162.289 1367.95 106.337 1233.95 105.801 1088.02C105.459 991.134 128.478 898.482 171.227 817.368C197.343 767.891 231.449 722.467 273.046 685.957L273.045 685.976Z" fill="#D924F4"/>
<path d="M275.709 692.864C375.182 604.172 507.658 555.85 648.626 566.588C761.467 575.184 873.195 610.014 959.297 674.841C1074.2 761.356 1151.75 890.997 1184.72 1025.23C1190.43 1048.68 1194.8 1072.63 1196.47 1098.04C1205.59 1236.86 1141.34 1377.67 1044.12 1468.56C1018.06 1492.9 988.605 1508.89 958.474 1527.23C924.555 1547.93 890.696 1569.38 854.76 1586.18C787.032 1617.87 710.458 1633.22 631.184 1630.76C485.372 1626.24 353.444 1564.33 259.304 1465.84C165.145 1367.36 109.283 1233.69 109.515 1087.97C109.662 992.527 132.97 901.603 175.468 822.127C201.446 773.594 235.104 729.145 275.747 692.884L275.709 692.864Z" fill="#DE24F6"/>
<path d="M278.372 699.752C377.288 610.081 509.711 559.901 651.65 568.805C764.738 575.898 874.683 611.712 960.386 676.239C1074.34 762.017 1151.64 890.898 1180.8 1027.61C1185.85 1051.52 1189.46 1075.91 1190.57 1101.5C1196.58 1241.83 1132.95 1379.85 1035.74 1471.19C1010.47 1494.93 982.135 1511.87 952.898 1530C919.952 1550.45 886.544 1570.79 851.093 1586.66C784.602 1616.71 709.898 1631.49 632.441 1629.09C486.868 1625.11 355.506 1562.98 261.726 1464.85C167.945 1366.72 112.134 1233.35 113.134 1087.88C113.77 993.86 137.386 904.664 179.613 826.826C205.454 779.237 238.644 735.764 278.353 699.771L278.372 699.752Z" fill="#E325F8"/>
<path d="M281.036 706.64C379.356 615.988 511.783 563.952 654.673 571.022C768.008 576.632 876.171 613.429 961.494 677.657C1074.47 762.716 1151.53 890.837 1176.91 1030.04C1181.32 1054.37 1184.17 1079.23 1184.69 1105C1187.58 1246.82 1124.59 1382.08 1027.4 1473.86C1002.9 1496.98 975.721 1514.89 947.359 1532.8C915.386 1553.01 882.374 1572.15 847.465 1587.17C782.137 1615.45 709.362 1629.6 633.756 1627.44C488.449 1623.66 357.625 1561.68 264.204 1463.89C170.783 1366.09 115.042 1233.04 116.81 1087.79C117.936 995.195 141.84 907.745 183.816 831.545C209.518 784.92 242.261 742.403 281.035 706.659L281.036 706.64Z" fill="#E825FB"/>
<path d="M283.7 713.528C381.424 621.857 513.85 568.235 657.697 573.239C771.294 577.54 877.659 615.127 962.583 679.075C1074.61 763.397 1151.41 890.757 1173.01 1032.46C1176.77 1057.24 1178.85 1082.52 1178.81 1108.49C1178.57 1251.82 1116.11 1384.18 1019.06 1476.53C995.314 1499.01 969.288 1517.91 941.821 1535.61C910.8 1555.6 878.223 1573.52 843.817 1587.69C779.652 1614.2 708.825 1627.73 635.051 1625.81C489.99 1622.24 359.706 1560.38 266.644 1462.94C173.582 1365.5 117.718 1232.75 120.467 1087.72C121.966 996.545 146.274 910.846 188 836.264C213.564 790.583 245.84 749.042 283.68 713.547L283.7 713.528Z" fill="#EE25FD"/>
<path d="M1172.94 1111.95C1169.58 1256.75 1107.83 1386.46 1010.74 1479.16C913.634 1571.83 781.181 1627.48 636.367 1624.12C491.553 1620.75 361.826 1559.01 269.123 1461.93C176.421 1364.83 120.782 1232.39 124.145 1087.6C127.507 942.8 189.254 813.088 286.345 720.396C383.454 627.705 515.907 572.073 660.721 575.436C950.33 582.162 1179.67 822.359 1172.94 1111.95Z" fill="#F325FF"/>
<rect x="656" y="759" width="281" height="585" fill="#D9D9D9"/>
<rect x="656" y="496" width="281" height="263" fill="#D9D9D9"/>
<rect x="1652" y="1291" width="36" height="36" fill="#00EAFF"/>
</g>
<rect x="680" y="-138" width="1240" height="218" fill="white"/>
<rect x="1484" y="-138" width="436" height="300" fill="white"/>
<g filter="url(#filter1_b_307_27)">
<rect x="1722" y="279" width="120" height="120" fill="white" fill-opacity="0.1"/>
<rect x="1722" y="279" width="120" height="120" stroke="url(#paint0_linear_307_27)" stroke-opacity="0.3" stroke-width="1.08036"/>
</g>
<g filter="url(#filter2_b_307_27)">
<rect x="760" y="159" width="80" height="80" fill="white" fill-opacity="0.1"/>
<rect x="760" y="159" width="80" height="80" stroke="url(#paint1_linear_307_27)" stroke-opacity="0.3"/>
</g>
<g filter="url(#filter3_b_307_27)">
<rect x="203" y="679" width="80" height="80" transform="rotate(90 203 679)" fill="white" fill-opacity="0.1"/>
<rect x="203" y="679" width="80" height="80" transform="rotate(90 203 679)" stroke="url(#paint2_linear_307_27)" stroke-opacity="0.3"/>
</g>
<rect x="1704" y="834" width="36" height="36" fill="#00EAFF"/>
<g filter="url(#filter4_ddd_307_27)">
<rect x="1226" y="1077" width="454" height="518" fill="white"/>
</g>
</g>
<path d="M1200 1040H1920V1263H1200V1040Z" fill="white"/>
<rect x="123" y="1200" width="1797" height="120" fill="white"/>
<rect x="1" width="159" height="159" fill="white"/>
<defs>
<filter id="filter0_f_307_27" x="-581" y="-404" width="2729.08" height="2574.65" filterUnits="userSpaceOnUse" color-interpolation-filters="sRGB">
<feFlood flood-opacity="0" result="BackgroundImageFix"/>
<feBlend mode="normal" in="SourceGraphic" in2="BackgroundImageFix" result="shape"/>
<feGaussianBlur stdDeviation="222" result="effect1_foregroundBlur_307_27"/>
</filter>
<filter id="filter1_b_307_27" x="1700.65" y="257.648" width="162.705" height="162.704" filterUnits="userSpaceOnUse" color-interpolation-filters="sRGB">
<feFlood flood-opacity="0" result="BackgroundImageFix"/>
<feGaussianBlur in="BackgroundImageFix" stdDeviation="10.406"/>
<feComposite in2="SourceAlpha" operator="in" result="effect1_backgroundBlur_307_27"/>
<feBlend mode="normal" in="SourceGraphic" in2="effect1_backgroundBlur_307_27" result="shape"/>
</filter>
<filter id="filter2_b_307_27" x="745.74" y="144.74" width="108.52" height="108.52" filterUnits="userSpaceOnUse" color-interpolation-filters="sRGB">
<feFlood flood-opacity="0" result="BackgroundImageFix"/>
<feGaussianBlur in="BackgroundImageFix" stdDeviation="6.88"/>
<feComposite in2="SourceAlpha" operator="in" result="effect1_backgroundBlur_307_27"/>
<feBlend mode="normal" in="SourceGraphic" in2="effect1_backgroundBlur_307_27" result="shape"/>
</filter>
<filter id="filter3_b_307_27" x="108.74" y="664.74" width="108.52" height="108.52" filterUnits="userSpaceOnUse" color-interpolation-filters="sRGB">
<feFlood flood-opacity="0" result="BackgroundImageFix"/>
<feGaussianBlur in="BackgroundImageFix" stdDeviation="6.88"/>
<feComposite in2="SourceAlpha" operator="in" result="effect1_backgroundBlur_307_27"/>
<feBlend mode="normal" in="SourceGraphic" in2="effect1_backgroundBlur_307_27" result="shape"/>
</filter>
<filter id="filter4_ddd_307_27" x="1161" y="1017" width="584" height="648" filterUnits="userSpaceOnUse" color-interpolation-filters="sRGB">
<feFlood flood-opacity="0" result="BackgroundImageFix"/>
<feColorMatrix in="SourceAlpha" type="matrix" values="0 0 0 0 0 0 0 0 0 0 0 0 0 0 0 0 0 0 127 0" result="hardAlpha"/>
<feOffset dy="0.407407"/>
<feGaussianBlur stdDeviation="2.64815"/>
<feColorMatrix type="matrix" values="0 0 0 0 0 0 0 0 0 0 0 0 0 0 0 0 0 0 0.0196296 0"/>
<feBlend mode="normal" in2="BackgroundImageFix" result="effect1_dropShadow_307_27"/>
<feColorMatrix in="SourceAlpha" type="matrix" values="0 0 0 0 0 0 0 0 0 0 0 0 0 0 0 0 0 0 127 0" result="hardAlpha"/>
<feOffset dy="1.92593"/>
<feGaussianBlur stdDeviation="10.3519"/>
<feColorMatrix type="matrix" values="0 0 0 0 0 0 0 0 0 0 0 0 0 0 0 0 0 0 0.0303704 0"/>
<feBlend mode="normal" in2="effect1_dropShadow_307_27" result="effect2_dropShadow_307_27"/>
<feColorMatrix in="SourceAlpha" type="matrix" values="0 0 0 0 0 0 0 0 0 0 0 0 0 0 0 0 0 0 127 0" result="hardAlpha"/>
<feOffset dy="5"/>
<feGaussianBlur stdDeviation="32.5"/>
<feColorMatrix type="matrix" values="0 0 0 0 0 0 0 0 0 0 0 0 0 0 0 0 0 0 0.05 0"/>
<feBlend mode="normal" in2="effect2_dropShadow_307_27" result="effect3_dropShadow_307_27"/>
<feBlend mode="normal" in="SourceGraphic" in2="effect3_dropShadow_307_27" result="shape"/>
</filter>
<linearGradient id="paint0_linear_307_27" x1="1773.79" y1="279" x2="1848.32" y2="356.053" gradientUnits="userSpaceOnUse">
<stop stop-color="white"/>
<stop offset="1" stop-color="white" stop-opacity="0"/>
</linearGradient>
<linearGradient id="paint1_linear_307_27" x1="767" y1="171" x2="829.5" y2="228.5" gradientUnits="userSpaceOnUse">
<stop stop-color="white"/>
<stop offset="1" stop-color="white" stop-opacity="0"/>
</linearGradient>
<linearGradient id="paint2_linear_307_27" x1="210" y1="691" x2="272.5" y2="748.5" gradientUnits="userSpaceOnUse">
<stop stop-color="white"/>
<stop offset="1" stop-color="white" stop-opacity="0"/>
</linearGradient>
<clipPath id="clip0_307_27">
<rect width="1920" height="1320" fill="white"/>
</clipPath>
</defs>
</svg>
