<svg width="70" height="66" viewBox="0 0 70 66" fill="none" xmlns="http://www.w3.org/2000/svg">
<g clip-path="url(#clip0_214_2153)">
<path d="M50.5573 62.1188H46.6674V66.0022H50.5573V62.1188Z" fill="#FFE74A"/>
<path d="M46.6674 62.1188H42.7775V66.0022H46.6674V62.1188Z" fill="#D77643"/>
<path d="M42.7798 62.1188H38.8899V66.0022H42.7798V62.1188Z" fill="#D77643"/>
<path d="M38.8899 62.1188H35V66.0022H38.8899V62.1188Z" fill="#D77643"/>
<path d="M35 62.1188H31.1101V66.0022H35V62.1188Z" fill="#D77643"/>
<path d="M31.1123 62.1188H27.2225V66.0022H31.1123V62.1188Z" fill="#D77643"/>
<path d="M27.2225 62.1188H23.3326V66.0022H27.2225V62.1188Z" fill="#D77643"/>
<path d="M23.3348 62.1188H19.4449V66.0022H23.3348V62.1188Z" fill="#D77643"/>
<path d="M50.5573 58.2355H46.6674V62.1189H50.5573V58.2355Z" fill="#FFE74A"/>
<path d="M46.6674 58.2355H42.7775V62.1189H46.6674V58.2355Z" fill="#D77643"/>
<path d="M42.7798 58.2355H38.8899V62.1189H42.7798V58.2355Z" fill="#FFCE29"/>
<path d="M38.8899 58.2355H35V62.1189H38.8899V58.2355Z" fill="#FFCE29"/>
<path d="M35 58.2355H31.1101V62.1189H35V58.2355Z" fill="#FFCE29"/>
<path d="M31.1123 58.2355H27.2225V62.1189H31.1123V58.2355Z" fill="#FFF2AB"/>
<path d="M27.2225 58.2355H23.3326V62.1189H27.2225V58.2355Z" fill="#FFE74A"/>
<path d="M23.3348 58.2355H19.4449V62.1189H23.3348V58.2355Z" fill="#FFE74A"/>
<path d="M46.6674 54.3542H42.7775V58.2376H46.6674V54.3542Z" fill="#FFE74A"/>
<path d="M42.7798 54.3542H38.8899V58.2376H42.7798V54.3542Z" fill="#D77643"/>
<path d="M38.8899 54.3542H35V58.2376H38.8899V54.3542Z" fill="#FFCE29"/>
<path d="M35 54.3542H31.1101V58.2376H35V54.3542Z" fill="#FFF2AB"/>
<path d="M31.1123 54.3542H27.2225V58.2376H31.1123V54.3542Z" fill="#FFE74A"/>
<path d="M27.2225 54.3542H23.3326V58.2376H27.2225V54.3542Z" fill="#FFE74A"/>
<path d="M38.8899 50.4708H35V54.3542H38.8899V50.4708Z" fill="#D77643"/>
<path d="M35 50.4708H31.1101V54.3542H35V50.4708Z" fill="#FFCE29"/>
<path d="M38.8899 46.5897H35V50.4731H38.8899V46.5897Z" fill="#D77643"/>
<path d="M35 46.5897H31.1101V50.4731H35V46.5897Z" fill="#FFCE29"/>
<path d="M38.8899 42.7063H35V46.5897H38.8899V42.7063Z" fill="#D77643"/>
<path d="M35 42.7063H31.1101V46.5897H35V42.7063Z" fill="#FFCE29"/>
<path d="M38.8899 38.8251H35V42.7085H38.8899V38.8251Z" fill="#A22633"/>
<path d="M35 38.8251H31.1101V42.7085H35V38.8251Z" fill="#A22633"/>
<path d="M46.6674 34.9417H42.7775V38.825H46.6674V34.9417Z" fill="#FFE74A"/>
<path d="M42.7798 34.9417H38.8899V38.825H42.7798V34.9417Z" fill="#FFE74A"/>
<path d="M38.8899 34.9417H35V38.825H38.8899V34.9417Z" fill="#FFE74A"/>
<path d="M35 34.9417H31.1101V38.825H35V34.9417Z" fill="#D77643"/>
<path d="M31.1123 34.9417H27.2225V38.825H31.1123V34.9417Z" fill="#D77643"/>
<path d="M27.2225 34.9417H23.3326V38.825H27.2225V34.9417Z" fill="#D77643"/>
<path d="M50.5573 31.0583H46.6674V34.9417H50.5573V31.0583Z" fill="#FFE74A"/>
<path d="M46.6674 31.0583H42.7775V34.9417H46.6674V31.0583Z" fill="#D77643"/>
<path d="M42.7798 31.0583H38.8899V34.9417H42.7798V31.0583Z" fill="#D77643"/>
<path d="M38.8899 31.0583H35V34.9417H38.8899V31.0583Z" fill="#D77643"/>
<path d="M35 31.0583H31.1101V34.9417H35V31.0583Z" fill="#D77643"/>
<path d="M31.1123 31.0583H27.2225V34.9417H31.1123V31.0583Z" fill="#D77643"/>
<path d="M27.2225 31.0583H23.3326V34.9417H27.2225V31.0583Z" fill="#D77643"/>
<path d="M23.3348 31.0583H19.4449V34.9417H23.3348V31.0583Z" fill="#D77643"/>
<path d="M54.4449 27.1771H50.5551V31.0605H54.4449V27.1771Z" fill="#FFE74A"/>
<path d="M50.5573 27.1771H46.6674V31.0605H50.5573V27.1771Z" fill="#D77643"/>
<path d="M46.6674 27.1771H42.7775V31.0605H46.6674V27.1771Z" fill="#D77643"/>
<path d="M42.7798 27.1771H38.8899V31.0605H42.7798V27.1771Z" fill="#D77643"/>
<path d="M38.8899 27.1771H35V31.0605H38.8899V27.1771Z" fill="#FFCE29"/>
<path d="M35 27.1771H31.1101V31.0605H35V27.1771Z" fill="#FFCE29"/>
<path d="M31.1123 27.1771H27.2225V31.0605H31.1123V27.1771Z" fill="#FFCE29"/>
<path d="M27.2225 27.1771H23.3326V31.0605H27.2225V27.1771Z" fill="#FFCE29"/>
<path d="M23.3348 27.1771H19.4449V31.0605H23.3348V27.1771Z" fill="#FFCE29"/>
<path d="M19.4449 27.1771H15.5551V31.0605H19.4449V27.1771Z" fill="#D77643"/>
<path d="M54.4449 23.2937H50.5551V27.1771H54.4449V23.2937Z" fill="#FFE74A"/>
<path d="M50.5573 23.2937H46.6674V27.1771H50.5573V23.2937Z" fill="#D77643"/>
<path d="M46.6674 23.2937H42.7775V27.1771H46.6674V23.2937Z" fill="#D77643"/>
<path d="M42.7798 23.2937H38.8899V27.1771H42.7798V23.2937Z" fill="#FFCE29"/>
<path d="M38.8899 23.2937H35V27.1771H38.8899V23.2937Z" fill="#FFCE29"/>
<path d="M35 23.2937H31.1101V27.1771H35V23.2937Z" fill="#FFCE29"/>
<path d="M31.1123 23.2937H27.2225V27.1771H31.1123V23.2937Z" fill="#FFE74A"/>
<path d="M27.2225 23.2937H23.3326V27.1771H27.2225V23.2937Z" fill="#FFE74A"/>
<path d="M23.3348 23.2937H19.4449V27.1771H23.3348V23.2937Z" fill="#FFCE29"/>
<path d="M19.4449 23.2937H15.5551V27.1771H19.4449V23.2937Z" fill="#FFCE29"/>
<path d="M66.1123 19.4126H62.2225V23.296H66.1123V19.4126Z" fill="#D77643"/>
<path d="M62.2225 19.4126H58.3326V23.296H62.2225V19.4126Z" fill="#A22633"/>
<path d="M58.3348 19.4126H54.4449V23.296H58.3348V19.4126Z" fill="#A22633"/>
<path d="M54.4449 19.4126H50.5551V23.296H54.4449V19.4126Z" fill="#FFE74A"/>
<path d="M50.5573 19.4126H46.6674V23.296H50.5573V19.4126Z" fill="#D77643"/>
<path d="M46.6674 19.4126H42.7775V23.296H46.6674V19.4126Z" fill="#D77643"/>
<path d="M42.7798 19.4126H38.8899V23.296H42.7798V19.4126Z" fill="#FFCE29"/>
<path d="M38.8899 19.4126H35V23.296H38.8899V19.4126Z" fill="#FFCE29"/>
<path d="M35 19.4126H31.1101V23.296H35V19.4126Z" fill="#FFF2AB"/>
<path d="M31.1123 19.4126H27.2225V23.296H31.1123V19.4126Z" fill="#FFF2AB"/>
<path d="M27.2225 19.4126H23.3326V23.296H27.2225V19.4126Z" fill="#FFF2AB"/>
<path d="M23.3348 19.4126H19.4449V23.296H23.3348V19.4126Z" fill="#FFE74A"/>
<path d="M19.4449 19.4126H15.5551V23.296H19.4449V19.4126Z" fill="#FFCE29"/>
<path d="M15.5573 19.4126H11.6674V23.296H15.5573V19.4126Z" fill="#A22633"/>
<path d="M11.6674 19.4126H7.77753V23.296H11.6674V19.4126Z" fill="#A22633"/>
<path d="M7.77977 19.4126H3.88989V23.296H7.77977V19.4126Z" fill="#D77643"/>
<path d="M70 15.5292H66.1101V19.4126H70V15.5292Z" fill="#D77643"/>
<path d="M66.1123 15.5292H62.2225V19.4126H66.1123V15.5292Z" fill="#D77643"/>
<path d="M54.4449 15.5292H50.5551V19.4126H54.4449V15.5292Z" fill="#FFE74A"/>
<path d="M50.5573 15.5292H46.6674V19.4126H50.5573V15.5292Z" fill="#D77643"/>
<path d="M46.6674 15.5292H42.7775V19.4126H46.6674V15.5292Z" fill="#D77643"/>
<path d="M42.7798 15.5292H38.8899V19.4126H42.7798V15.5292Z" fill="#FFCE29"/>
<path d="M38.8899 15.5292H35V19.4126H38.8899V15.5292Z" fill="#FFCE29"/>
<path d="M35 15.5292H31.1101V19.4126H35V15.5292Z" fill="#FFF2AB"/>
<path d="M31.1123 15.5292H27.2225V19.4126H31.1123V15.5292Z" fill="#FFF2AB"/>
<path d="M27.2225 15.5292H23.3326V19.4126H27.2225V15.5292Z" fill="#FFF2AB"/>
<path d="M23.3348 15.5292H19.4449V19.4126H23.3348V15.5292Z" fill="#FFE74A"/>
<path d="M19.4449 15.5292H15.5551V19.4126H19.4449V15.5292Z" fill="#FFCE29"/>
<path d="M7.77977 15.5292H3.88989V19.4126H7.77977V15.5292Z" fill="#D77643"/>
<path d="M3.88987 15.5292H0V19.4126H3.88987V15.5292Z" fill="#D77643"/>
<path d="M70 11.6479H66.1101V15.5313H70V11.6479Z" fill="#FFE74A"/>
<path d="M66.1123 11.6479H62.2225V15.5313H66.1123V11.6479Z" fill="#FFE74A"/>
<path d="M62.2225 11.6479H58.3326V15.5313H62.2225V11.6479Z" fill="#FFCE29"/>
<path d="M58.3348 11.6479H54.4449V15.5313H58.3348V11.6479Z" fill="#D77643"/>
<path d="M54.4449 11.6479H50.5551V15.5313H54.4449V11.6479Z" fill="#FFE74A"/>
<path d="M50.5573 11.6479H46.6674V15.5313H50.5573V11.6479Z" fill="#D77643"/>
<path d="M46.6674 11.6479H42.7775V15.5313H46.6674V11.6479Z" fill="#D77643"/>
<path d="M42.7798 11.6479H38.8899V15.5313H42.7798V11.6479Z" fill="#FFCE29"/>
<path d="M38.8899 11.6479H35V15.5313H38.8899V11.6479Z" fill="#FFCE29"/>
<path d="M35 11.6479H31.1101V15.5313H35V11.6479Z" fill="#FFF2AB"/>
<path d="M31.1123 11.6479H27.2225V15.5313H31.1123V11.6479Z" fill="#FFF2AB"/>
<path d="M27.2225 11.6479H23.3326V15.5313H27.2225V11.6479Z" fill="#FFF2AB"/>
<path d="M23.3348 11.6479H19.4449V15.5313H23.3348V11.6479Z" fill="#FFE74A"/>
<path d="M19.4449 11.6479H15.5551V15.5313H19.4449V11.6479Z" fill="#FFCE29"/>
<path d="M15.5573 11.6479H11.6674V15.5313H15.5573V11.6479Z" fill="#FFCE29"/>
<path d="M11.6674 11.6479H7.77753V15.5313H11.6674V11.6479Z" fill="#FFCE29"/>
<path d="M7.77977 11.6479H3.88989V15.5313H7.77977V11.6479Z" fill="#FFE74A"/>
<path d="M3.88987 11.6479H0V15.5313H3.88987V11.6479Z" fill="#FFF2AB"/>
<path d="M54.4449 7.76453H50.5551V11.6479H54.4449V7.76453Z" fill="#A22633"/>
<path d="M50.5573 7.76453H46.6674V11.6479H50.5573V7.76453Z" fill="#A22633"/>
<path d="M46.6674 7.76453H42.7775V11.6479H46.6674V7.76453Z" fill="#A22633"/>
<path d="M42.7798 7.76453H38.8899V11.6479H42.7798V7.76453Z" fill="#A22633"/>
<path d="M38.8899 7.76453H35V11.6479H38.8899V7.76453Z" fill="#A22633"/>
<path d="M35 7.76453H31.1101V11.6479H35V7.76453Z" fill="#A22633"/>
<path d="M31.1123 7.76453H27.2225V11.6479H31.1123V7.76453Z" fill="#A22633"/>
<path d="M27.2225 7.76453H23.3326V11.6479H27.2225V7.76453Z" fill="#A22633"/>
<path d="M23.3348 7.76453H19.4449V11.6479H23.3348V7.76453Z" fill="#A22633"/>
<path d="M19.4449 7.76453H15.5551V11.6479H19.4449V7.76453Z" fill="#A22633"/>
<path d="M58.3348 3.88342H54.4449V7.76682H58.3348V3.88342Z" fill="#FFE74A"/>
<path d="M54.4449 3.88342H50.5551V7.76682H54.4449V3.88342Z" fill="#D77643"/>
<path d="M50.5573 3.88342H46.6674V7.76682H50.5573V3.88342Z" fill="#D77643"/>
<path d="M46.6674 3.88342H42.7775V7.76682H46.6674V3.88342Z" fill="#FFCE29"/>
<path d="M42.7798 3.88342H38.8899V7.76682H42.7798V3.88342Z" fill="#FFCE29"/>
<path d="M38.8899 3.88342H35V7.76682H38.8899V3.88342Z" fill="#FFE74A"/>
<path d="M35 3.88342H31.1101V7.76682H35V3.88342Z" fill="#FFE74A"/>
<path d="M31.1123 3.88342H27.2225V7.76682H31.1123V3.88342Z" fill="#FFE74A"/>
<path d="M27.2225 3.88342H23.3326V7.76682H27.2225V3.88342Z" fill="#FFE74A"/>
<path d="M23.3348 3.88342H19.4449V7.76682H23.3348V3.88342Z" fill="#FFE74A"/>
<path d="M19.4449 3.88342H15.5551V7.76682H19.4449V3.88342Z" fill="#FFCE29"/>
<path d="M15.5573 3.88342H11.6674V7.76682H15.5573V3.88342Z" fill="#FFCE29"/>
<path d="M58.3348 0H54.4449V3.88339H58.3348V0Z" fill="#FFE74A"/>
<path d="M54.4449 0H50.5551V3.88339H54.4449V0Z" fill="#D77643"/>
<path d="M50.5573 0H46.6674V3.88339H50.5573V0Z" fill="#D77643"/>
<path d="M46.6674 0H42.7775V3.88339H46.6674V0Z" fill="#FFE74A"/>
<path d="M42.7798 0H38.8899V3.88339H42.7798V0Z" fill="#FFE74A"/>
<path d="M38.8899 0H35V3.88339H38.8899V0Z" fill="#FFF2AB"/>
<path d="M35 0H31.1101V3.88339H35V0Z" fill="#FFF2AB"/>
<path d="M31.1123 0H27.2225V3.88339H31.1123V0Z" fill="#FFE74A"/>
<path d="M27.2225 0H23.3326V3.88339H27.2225V0Z" fill="#FFF2AB"/>
<path d="M23.3348 0H19.4449V3.88339H23.3348V0Z" fill="#FFF2AB"/>
<path d="M19.4449 0H15.5551V3.88339H19.4449V0Z" fill="#FFCE29"/>
<path d="M15.5573 0H11.6674V3.88339H15.5573V0Z" fill="#FFF2AB"/>
</g>
<defs>
<clipPath id="clip0_214_2153">
<rect width="70" height="66" fill="white"/>
</clipPath>
</defs>
</svg>
