<svg width="74" height="68" viewBox="0 0 74 68" fill="none" xmlns="http://www.w3.org/2000/svg">
<g clip-path="url(#clip0_214_1212)">
<path d="M42.2849 20.9233H36.9988V26.1532H42.2849V20.9233Z" fill="#E9E5E1"/>
<path d="M42.2849 15.6923H36.9988V20.9234H42.2849V15.6923Z" fill="#E9E5E1"/>
<path d="M47.5709 57.5389H42.2861V62.7688H47.5709V57.5389Z" fill="#A22633"/>
<path d="M36.9987 57.5389H26.4291V62.7688H31.7139V68H42.286V62.7688H36.9987V57.5389Z" fill="#A22633"/>
<path d="M52.8557 52.3077H47.5709V57.5376H52.8557V52.3077Z" fill="#A22633"/>
<path d="M26.4278 52.3077H21.1417V57.5376H26.4278V52.3077Z" fill="#A22633"/>
<path d="M58.1418 47.0767H52.8557V52.3078H58.1418V47.0767Z" fill="#A22633"/>
<path d="M21.1417 47.0767H15.8569V52.3078H21.1417V47.0767Z" fill="#A22633"/>
<path d="M63.4279 41.8467H58.1431V47.0766H63.4279V41.8467Z" fill="#A22633"/>
<path d="M15.857 41.8467H10.5721V47.0766H15.857V41.8467Z" fill="#A22633"/>
<path d="M0 31.3844V36.6156H5.28481V41.8467H10.5722V36.6156H36.9987V57.5389H42.2861V52.3078H47.5709V47.0766H52.8557V41.8467H58.143V36.6156H63.4278V41.8467H68.7126V36.6156H74V31.3844H0Z" fill="#A22633"/>
<path d="M36.9987 15.6922V0H31.7139V5.23116H26.4291V15.6922H36.9987Z" fill="#A22633"/>
<path d="M10.5709 10.4623H5.28479V15.6922H10.5709V10.4623Z" fill="#A22633"/>
<path d="M15.857 5.23114H10.5721V10.461H15.857V5.23114Z" fill="#A22633"/>
<path d="M21.1417 0H15.8569V5.23116H21.1417V0Z" fill="#A22633"/>
<path d="M42.2849 57.5389H36.9988V62.7688H42.2849V57.5389Z" fill="#BE4A2F"/>
<path d="M31.7139 52.3077H26.4291V57.5376H31.7139V52.3077Z" fill="#BE4A2F"/>
<path d="M26.4278 47.0767H21.1417V52.3078H26.4278V47.0767Z" fill="#BE4A2F"/>
<path d="M21.1417 41.8467H15.8569V47.0766H21.1417V41.8467Z" fill="#BE4A2F"/>
<path d="M15.857 36.6156H10.5721V41.8455H15.857V36.6156Z" fill="#BE4A2F"/>
<path d="M74 15.6923H63.4279V31.3845H74V15.6923Z" fill="#BE4A2F"/>
<path d="M5.28481 15.6923H0V31.3845H5.28481V15.6923Z" fill="#BE4A2F"/>
<path d="M15.857 10.4623H10.5721V15.6922H15.857V10.4623Z" fill="#BE4A2F"/>
<path d="M21.1417 5.23114H15.8569V10.461H21.1417V5.23114Z" fill="#BE4A2F"/>
<path d="M31.7139 0H21.1417V5.23116H31.7139V0Z" fill="#BE4A2F"/>
<path d="M47.5709 52.3077H42.2861V57.5376H47.5709V52.3077Z" fill="#F77622"/>
<path d="M52.8557 47.0767H47.5709V52.3078H52.8557V47.0767Z" fill="#F77622"/>
<path d="M58.1418 41.8467H52.8557V47.0766H58.1418V41.8467Z" fill="#F77622"/>
<path d="M63.4279 36.6156H58.1431V41.8455H63.4279V36.6156Z" fill="#F77622"/>
<path d="M36.9987 15.6923H21.1417V31.3845H36.9987V15.6923Z" fill="#F77622"/>
<path d="M10.5709 15.6923H5.28479V31.3845H10.5709V15.6923Z" fill="#F77622"/>
<path d="M68.7127 10.4623H63.4279V15.6922H68.7127V10.4623Z" fill="#F77622"/>
<path d="M58.1431 10.4623H52.8557V31.3844H63.4279V15.6922H58.1431V10.4623Z" fill="#F77622"/>
<path d="M63.4279 5.23114H58.1431V10.461H63.4279V5.23114Z" fill="#F77622"/>
<path d="M52.8557 5.23114H47.5709V10.461H52.8557V5.23114Z" fill="#F77622"/>
<path d="M58.1418 0H52.8557V5.23116H58.1418V0Z" fill="#F77622"/>
<path d="M47.5709 0H42.2861V5.23116H47.5709V0Z" fill="#F77622"/>
<path d="M31.7139 41.8468H26.4291V36.6156H15.8569V41.8468H21.1417V47.0767H26.4291V52.3078H31.7139V57.539H36.9987V47.0767H31.7139V41.8468Z" fill="#FEE761"/>
<path d="M21.143 15.6923H10.5721V31.3845H21.143V15.6923Z" fill="#FEE761"/>
<path d="M52.857 15.6923H42.2861V26.1546H52.857V15.6923Z" fill="#FEE761"/>
<path d="M63.4279 10.4623H58.1431V15.6922H63.4279V10.4623Z" fill="#FEE761"/>
<path d="M26.4278 10.4623H21.1417V15.6922H26.4278V10.4623Z" fill="#FEE761"/>
<path d="M58.1418 5.23114H52.8557V10.461H58.1418V5.23114Z" fill="#FEE761"/>
<path d="M52.8557 0H47.5709V5.23116H52.8557V0Z" fill="#FEE761"/>
<path d="M42.2861 0H36.9988V10.4623H47.5709V5.23116H42.2861V0Z" fill="#FEE761"/>
<path d="M26.4291 36.6156V41.8468H31.7139V47.0767H36.9987V36.6156H26.4291Z" fill="#FEAE34"/>
<path d="M52.8557 26.1545H36.9988V31.3844H52.8557V26.1545Z" fill="#FEAE34"/>
<path d="M52.8557 10.4623H36.9988V15.6922H52.8557V10.4623Z" fill="#FEAE34"/>
<path d="M21.1417 10.4623H15.8569V15.6922H21.1417V10.4623Z" fill="#FEAE34"/>
<path d="M26.4278 5.23114H21.1417V10.461H26.4278V5.23114Z" fill="#FEAE34"/>
</g>
<defs>
<clipPath id="clip0_214_1212">
<rect width="74" height="68" fill="white"/>
</clipPath>
</defs>
</svg>
