<svg width="63" height="59" viewBox="0 0 63 59" fill="none" xmlns="http://www.w3.org/2000/svg">
<g clip-path="url(#clip0_214_2102)">
<path d="M4.84546 49.1671V54.0842H9.69322V59.0001H19.3841V54.0842H14.5387V49.1671H4.84546Z" fill="#A22633"/>
<path d="M43.6159 44.25H33.9227V49.1671H43.6159V44.25Z" fill="#A22633"/>
<path d="M48.4613 39.3341H43.6159V44.25H48.4613V39.3341Z" fill="#A22633"/>
<path d="M33.9227 39.3341H29.0773V44.25H33.9227V39.3341Z" fill="#A22633"/>
<path d="M9.6932 29.5H0V39.3341H9.6932V29.5Z" fill="#A22633"/>
<path d="M33.9227 14.75H29.0773V39.3341H33.9227V14.75Z" fill="#FEE761"/>
<path d="M38.7693 9.83411H33.9227V14.75H38.7693V9.83411Z" fill="#FEE761"/>
<path d="M14.5386 9.83411H9.69318V49.1682H14.5386V9.83411Z" fill="#FEE761"/>
<path d="M19.3841 4.91711H14.5386V9.83299H19.3841V4.91711Z" fill="#FEE761"/>
<path d="M24.2307 0H19.3841V4.91706H24.2307V0Z" fill="#FEE761"/>
<path d="M53.3091 59V54.0841H58.1546V49.1682H63V9.83412H58.1546V4.91706H53.3091V0H24.2318V4.91706H19.3852V9.83294H14.5398V54.0841H19.3852V59H53.3091ZM33.9227 14.75V9.83412H38.7693V14.75H33.9227V44.25H43.6159V19.6671H48.4614V44.25H43.6159V49.1671H33.9227V44.25H29.0773V14.75H33.9227Z" fill="#FEAE34"/>
<path d="M9.6932 14.75H0V24.5841H9.6932V14.75Z" fill="#FEAE34"/>
<path d="M9.6932 39.3341H0V49.1682H9.6932V39.3341Z" fill="#D77643"/>
<path d="M9.6932 24.5841H0V29.5H9.6932V24.5841Z" fill="#D77643"/>
<path d="M48.4613 19.6671H43.6159V39.333H48.4613V19.6671Z" fill="#D77643"/>
<path d="M9.6932 0V4.91706H4.84544V9.83412H0V14.75H9.6932V9.83412H14.5386V4.91706H19.3841V0H9.6932Z" fill="#D77643"/>
</g>
<defs>
<clipPath id="clip0_214_2102">
<rect width="63" height="59" fill="white"/>
</clipPath>
</defs>
</svg>
