<svg width="45" height="61" viewBox="0 0 45 61" fill="none" xmlns="http://www.w3.org/2000/svg">
<g clip-path="url(#clip0_214_2119)">
<path d="M20.454 28.4661H16.3628V32.5331H20.454V28.4661Z" fill="#68386C"/>
<path d="M20.454 56.934H16.3628V61H20.454V56.934Z" fill="#B55088"/>
<path d="M32.7264 48.8H28.6353V52.8661H32.7264V48.8Z" fill="#B55088"/>
<path d="M24.5452 28.4661H20.455V32.5331H24.5452V28.4661Z" fill="#B55088"/>
<path d="M36.8176 8.13403H32.7274V16.267H36.8176V8.13403Z" fill="#B55088"/>
<path d="M4.09019 8.13403H0V16.267H4.09019V8.13403Z" fill="#B55088"/>
<path d="M40.9078 24.4H36.8176V28.466H40.9078V24.4Z" fill="#EBE024"/>
<path d="M12.2726 24.4H8.18237V28.466H12.2726V24.4Z" fill="#EBE024"/>
<path d="M44.999 4.06604H40.9078V24.4H44.999V4.06604Z" fill="#EBE024"/>
<path d="M8.18139 4.06604H4.09021V24.4H8.18139V4.06604Z" fill="#EBE024"/>
<path d="M40.9078 0H36.8176V4.06602H40.9078V0Z" fill="#EBE024"/>
<path d="M28.6363 0H20.455V4.06602H28.6363V0Z" fill="#EBE024"/>
<path d="M12.2726 0H8.18237V4.06602H12.2726V0Z" fill="#EBE024"/>
<path d="M20.454 32.5339H16.3628V36.6H20.454V32.5339Z" fill="#BE4A2F"/>
<path d="M44.999 56.934H40.9078V61H44.999V56.934Z" fill="#FEE761"/>
<path d="M24.5452 44.734H20.455V61H24.5452V44.734Z" fill="#FEE761"/>
<path d="M44.999 40.666H40.9078V44.733H44.999V40.666Z" fill="#FEE761"/>
<path d="M36.8176 52.866V61H40.9078V56.9339H45V52.866H36.8176Z" fill="#FEAE34"/>
<path d="M40.9078 40.666H36.8176V48.8H45V44.734H40.9078V40.666Z" fill="#FEAE34"/>
<path d="M20.455 32.5339V44.7339H24.5452V61H28.6353V32.5339H20.455Z" fill="#FEAE34"/>
<path d="M36.8177 24.4H40.9079V4.06602H36.8177V0H28.6353V4.06602H20.4539V0H12.2726V4.06602H8.18237V24.4H12.2726V28.466H36.8177V24.4ZM12.2726 8.13398H36.8177V20.334H12.2726V8.13398Z" fill="#FEAE34"/>
<path d="M36.8176 40.666H32.7274V44.734H28.6353V48.8H32.7274V52.866H28.6353V56.934H32.7274V61H36.8176V52.866H40.9078V48.8H36.8176V40.666Z" fill="#D77643"/>
<path d="M20.454 36.6H16.3628V56.934H20.454V36.6Z" fill="#D77643"/>
<path d="M28.6352 28.4661H24.545V32.5331H28.6352V28.4661Z" fill="#D77643"/>
<path d="M8.18139 24.4H4.09021V28.466H8.18139V24.4Z" fill="#D77643"/>
<path d="M36.8176 16.266H32.7274V20.333H36.8176V16.266Z" fill="#D77643"/>
<path d="M4.09019 16.266H0V24.4H4.09019V16.266Z" fill="#D77643"/>
<path d="M4.09019 4.06604H0V8.13303H4.09019V4.06604Z" fill="#D77643"/>
<path d="M8.18139 0H4.09021V4.06602H8.18139V0Z" fill="#D77643"/>
</g>
<defs>
<clipPath id="clip0_214_2119">
<rect width="45" height="61" fill="white"/>
</clipPath>
</defs>
</svg>
