<svg width="40" height="30" viewBox="0 0 40 30" fill="none" xmlns="http://www.w3.org/2000/svg">
<path d="M39.7902 12.7426C39.7902 12.7426 39.4691 12.7245 39.2335 12.7063C33.4035 12.2791 28.1021 9.93136 28.1754 1.27076V0.985352H23.3821C23.3821 1.14065 23.3727 1.28893 23.3663 1.5544C23.2602 6.1326 25.0746 10.15 27.8255 12.7549H0V17.2569H27.8144C25.0711 19.8613 23.2614 23.874 23.3674 28.4463C23.3739 28.7112 23.388 29.0148 23.388 29.0148H28.176C28.176 29.0148 28.176 28.8835 28.176 28.73C28.1027 20.0688 33.4041 17.7211 39.2341 17.2939C39.4685 17.2763 39.8061 17.2687 39.8061 17.2687" fill="#212121"/>
</svg>
